<?xml version="1.0" standalone="no"?>
<!DOCTYPE svg PUBLIC "-//W3C//DTD SVG 20010904//EN"
 "http://www.w3.org/TR/2001/REC-SVG-20010904/DTD/svg10.dtd">
<svg version="1.0" xmlns="http://www.w3.org/2000/svg"
 width="512.000000pt" height="512.000000pt" viewBox="0 0 512.000000 512.000000"
 preserveAspectRatio="xMidYMid meet">
<metadata>
Created by potrace 1.11, written by Peter Selinger 2001-2013
</metadata>
<g transform="translate(0.000000,512.000000) scale(0.100000,-0.100000)"
fill="#000000" stroke="none">
<path d="M4915 4124 c-38 -7 -90 -16 -115 -19 -25 -4 -52 -8 -60 -10 -8 -2
-28 -6 -45 -9 -57 -9 -330 -56 -351 -60 -12 -3 -37 -7 -55 -10 -19 -3 -113
-20 -209 -36 -96 -17 -191 -33 -210 -35 -19 -3 -55 -9 -80 -15 -25 -5 -63 -11
-85 -14 -22 -3 -51 -8 -65 -11 -20 -4 -169 -30 -290 -50 -14 -2 -90 -16 -170
-30 -80 -14 -163 -28 -185 -32 -22 -3 -84 -13 -137 -23 l-97 -17 -48 81 c-26
44 -54 94 -62 110 -18 35 -72 60 -112 51 -32 -7 -69 -42 -90 -84 -11 -21 -135
-239 -215 -378 -86 -148 -274 -476 -294 -513 -14 -25 -33 -56 -42 -70 -8 -14
-30 -50 -47 -80 -17 -30 -45 -81 -63 -112 l-32 -57 -136 -56 c-74 -31 -187
-79 -250 -105 -63 -27 -187 -78 -275 -115 -88 -37 -173 -73 -190 -80 -16 -7
-194 -81 -395 -165 -438 -182 -484 -203 -497 -233 -16 -36 -8 -87 20 -114 33
-33 80 -36 147 -8 251 103 675 281 718 301 29 13 55 24 58 24 3 0 20 7 37 14
55 25 552 233 574 240 19 6 15 -6 -29 -81 -28 -48 -110 -191 -183 -318 -72
-126 -203 -354 -290 -505 -213 -369 -215 -372 -215 -398 0 -33 28 -78 57 -91
34 -15 3272 -15 3306 0 28 13 57 58 57 88 0 12 -9 40 -21 62 -19 38 -19 40 -2
35 57 -17 275 -80 318 -91 28 -7 138 -38 245 -69 107 -31 203 -56 213 -56 28
0 74 30 86 57 8 17 11 468 11 1529 l0 1506 -34 34 c-38 38 -56 40 -171 18z"/>
</g>
</svg>
