<svg width="50" height="50" fill="none" xmlns="http://www.w3.org/2000/svg"><path d="M22.607.098c-5.84.605-11.142 3.115-15.263 7.226C0 14.658-2.041 25.704 2.187 35.234c.45 1.016 1.377 2.686 2.012 3.633l.361.537-.254.537c-.224.479-.253.655-.253 1.66 0 .928.039 1.212.224 1.66a4.537 4.537 0 002.461 2.462c.44.175.733.215 1.611.224.938 0 1.153-.029 1.67-.254l.596-.244.527.352c3.018 2.06 6.778 3.457 10.782 4.023 1.172.166 5.01.157 6.2-.01 5.665-.78 10.645-3.232 14.542-7.148 3.965-3.984 6.328-8.809 7.158-14.59.166-1.133.156-4.99 0-6.152-.566-4.004-1.963-7.764-4.023-10.781l-.352-.528.244-.595c.225-.518.254-.733.254-1.67-.01-.88-.049-1.172-.225-1.612a4.537 4.537 0 00-2.46-2.46c-.45-.186-.723-.225-1.66-.215-.997 0-1.182.029-1.66.244l-.548.254-.43-.303a45.094 45.094 0 00-1.65-1.006C34.766 1.768 31.66.703 28.496.244 27.266.06 23.808-.02 22.607.098zm4.502 2.94c3.37.321 6.777 1.474 9.57 3.232.752.468.82.537.762.761-.254.996-.215 2.139.098 2.871l.137.303-13.73 13.73-13.722 13.74-.312-.136c-.752-.312-1.885-.352-2.88-.098-.226.059-.294-.01-.763-.761-4.97-7.9-4.316-18.223 1.612-25.596 4.56-5.664 11.953-8.76 19.228-8.047zm15.537 4.306c.655.654.537 1.758-.234 2.236-.664.41-1.63.186-2.012-.478-.224-.381-.234-1.065-.03-1.465.255-.489.704-.713 1.358-.674.498.03.606.078.918.38zm-1.611 5.342c.576.097 1.191.048 1.934-.127.214-.059.283 0 .625.546 2.675 4.278 3.828 9.043 3.369 13.946-.567 6.094-3.78 11.885-8.633 15.527-7.432 5.586-17.314 5.986-25.225 1.016-.508-.313-.605-.42-.547-.576.03-.108.079-.655.098-1.221.03-.82.01-1.123-.137-1.514l-.175-.488 13.71-13.73 13.721-13.74.313.136c.175.068.595.176.947.225zM9.228 40.469c.557.361.733 1.338.352 1.943-.479.772-1.582.889-2.236.235-.293-.294-.352-.43-.391-.89-.04-.429 0-.605.176-.888.43-.693 1.377-.879 2.1-.4z" fill="white"/></svg>