<svg width="426" height="438" fill="none" xmlns="http://www.w3.org/2000/svg"><g opacity=".3" fill="white"><path d="M268.149 129.856l2.829-13.75 67.188 21.909-70.017-8.159zm2.612-14.416l-.145.04-.137.191-2.959 14.379.048.229.2.117 73.21 8.529a.28.28 0 00.316-.225.29.29 0 00-.194-.338l-70.25-22.908-.089-.014zM42.663-37.632l34.103-21.874 24.122 63.002-58.225-41.128zm34.245-22.597l-.154.046L41.99-37.887l-.134.24.123.241L101.33 4.517l.343-.009a.29.29 0 00.092-.332L77.178-60.043l-.18-.173-.09-.013z"/><path d="M77.325-59.656l104.136-1.67-79.838 65.13-24.298-63.46zM182.29-61.92h-.004l-105.381 1.69-.235.127-.03.266 24.589 64.22.194.176.257-.055 80.793-65.91a.29.29 0 00-.183-.514zM341.569 138.725l120.572-48.668-59.529 99.247-61.043-50.579zM462.83 89.176l-.106.021-121.82 49.171-.178.226.102.267 61.674 51.103.231.063.198-.136 60.147-100.275-.026-.339-.222-.101z"/><path d="M403.099 189.611l59.35-98.945-9.483 121.364-49.867-22.419zM462.83 89.176l-.245.14-60.147 100.275-.028.236.157.178 50.536 22.721.264-.015.14-.226 9.612-122.996a.288.288 0 00-.199-.299l-.09-.014zM272.477 114.795l31.952-24.197 18.769 5.639-50.721 18.558zm31.894-24.806l-.173.058-33.609 25.452a.289.289 0 00.272.503l53.353-19.52a.29.29 0 00-.015-.55l-19.744-5.93-.084-.013z"/><path d="M271.648 115.715l52.303-19.136 16.564 41.591-68.867-22.455zm52.467-19.794l-.099.016-53.352 19.521a.29.29 0 00.008.548l70.251 22.907.298-.077.058-.306-16.895-42.428a.29.29 0 00-.269-.181z"/><path d="M304.649 90.06L299.81 1.892l23.9 93.893-19.061-5.727zm-5.291-91.394l-.042.003a.29.29 0 00-.244.303l5.013 91.323a.289.289 0 00.205.262l19.743 5.93.282-.068.081-.28-24.758-97.255a.289.289 0 00-.28-.218z"/><path d="M324.533 96.48l136.602-6.642-119.964 48.423-16.638-41.781zm138.297-7.304h-.012l-138.717 6.745-.227.133-.026.264 16.896 42.428.153.158.221.002 121.821-49.171a.293.293 0 00.175-.332.29.29 0 00-.284-.227z"/><path d="M327.165 248.644l14.065-109.45 60.995 50.54-75.06 58.91zm13.845-110.296l-.106.02-.178.232-14.222 110.669c-.016.116.04.23.142.288l.321-.022 75.895-59.566.112-.225-.104-.227-61.674-51.102-.186-.067z"/><path d="M327.343 249.238l74.98-58.847-9.663 88.31-65.317-29.463zm75.34-59.786l-.175.061-75.897 59.565-.109.263.168.23 66.115 29.822.261-.013.145-.219 9.782-89.388a.297.297 0 00-.148-.286l-.142-.035z"/><path d="M361.699 410.629l31.327-130.777 101.288 157.19-132.615-26.413zm31.202-131.791l-.047.004a.29.29 0 00-.231.218l-31.555 131.728.038.223.187.128 133.578 26.605a.284.284 0 00.293-.122l.004-.32-102.022-158.33-.245-.134z"/><path d="M393.287 278.274l9.64-88.106 49.811 22.395-59.451 65.711zm9.396-88.822l-.141.037-.143.22-9.782 89.387a.289.289 0 00.499.228l60.318-66.667.068-.254-.163-.205-50.537-22.722-.119-.024z"/><path d="M393.765 278.607l59.471-65.73 41.315 39.722-100.786 26.008zm59.454-66.434h-.009l-.203.094-60.317 66.666-.034.345a.287.287 0 00.319.131l102.224-26.377.206-.209-.08-.281-41.905-40.289-.201-.08z"/><path d="M393.363 279.309l101.474-26.184-.197 183.355-101.277-157.171zm101.762-26.849l-.07.01-102.223 26.377-.197.175.026.263 102.024 158.331a.289.289 0 00.53-.157l.199-184.709-.111-.229-.178-.061zM324.293 95.735L299.751-.676l128.651 24.114-104.109 72.297zm-24.935-97.07l-.209.093-.07.27 24.758 97.253.178.2.264-.032 105.02-72.93a.292.292 0 00.118-.298.286.286 0 00-.23-.224L299.412-1.329l-.054-.005z"/><path d="M300.273-1.168l75.779-36.968 52.328 60.982L300.273-1.168zm75.853-37.616l-.124.029-76.768 37.45a.292.292 0 00-.161.3.291.291 0 00.235.246l129.774 24.326a.289.289 0 00.304-.141l-.033-.333-53.007-61.775-.22-.102z"/><path d="M325.111 95.871l103.918-72.163 33.343 65.49-137.261 6.673zm104.022-72.878l-.161.05L323.951 95.97a.29.29 0 00-.108.332.3.3 0 00.286.197l138.717-6.745.236-.144.006-.278-33.697-66.183-.185-.15-.073-.007z"/><path d="M376.619-38.363l35.249-12.573 16.726 73.143-51.975-60.57zm35.456-13.245l-.094.017-35.951 12.823-.182.2.06.262 53.01 61.776a.287.287 0 00.499-.253l-17.06-74.6-.142-.19-.14-.035z"/><path d="M429.301 22.717l-16.856-73.711 85.069 7.51-68.213 66.201zm-17.226-74.325l-.216.1-.064.255 17.059 74.6.199.212.282-.07 69.035-66.998.072-.305a.286.286 0 00-.247-.191l-86.094-7.601-.026-.002zM84.483 34.13L4.387-13.024l96.66 17.517L84.483 34.13zM2.84-13.888a.29.29 0 00-.145.54l81.751 48.127.22.03.177-.138 16.905-30.25.01-.265-.21-.16L2.89-13.884l-.051-.004z"/><path d="M85.036 34.322l16.508-29.533 32.771 39.378-49.279-9.845zm16.46-30.331l-.026.001-.225.147L84.34 34.388l-.011.263.205.163 50.472 10.082a.287.287 0 00.303-.136l-.027-.335-33.564-40.332-.222-.102zM244.313 207.786l-.07.01a.29.29 0 00-.208.353l15.855 61.393a.285.285 0 00.351.207.29.29 0 00.207-.353l-15.855-61.392a.29.29 0 00-.28-.218z"/><path d="M260.373 269.104l-15.62-60.485 81.256 40.621-65.636 19.864zm-16.06-61.318l-.181.066-.097.297 15.855 61.393.138.179.224.024 66.619-20.162a.287.287 0 00.204-.253.288.288 0 00-.158-.283l-82.474-41.23-.13-.031z"/><path d="M244.836 207.345l23.172-76.921 72.227 8.414-95.399 68.507zm22.964-77.526a.287.287 0 00-.274.205l-23.487 77.968a.288.288 0 00.108.319l.335.001 96.696-69.439a.29.29 0 00-.134-.524l-73.208-8.528-.036-.002z"/><path d="M244.873 208.032l95.767-68.772-14.085 109.605-81.682-40.833zm96.137-69.684l-.167.053-96.696 69.439-.121.259.16.237 82.474 41.23.264-.004.15-.219 14.223-110.669a.29.29 0 00-.138-.285l-.149-.041zM267.634 129.498l-47.762-51.83 50.57 38.184-2.808 13.646zM217.483 75.21l-.213.095a.29.29 0 00.003.391l50.318 54.61.289.081.205-.221 2.959-14.377-.109-.291-53.278-40.23-.174-.058z"/><path d="M270.762 115.368l-52.156-39.383 85.059 14.467-32.903 24.916zM217.483 75.21a.292.292 0 00-.173.522l53.279 40.23h.346l33.612-25.452a.287.287 0 00.104-.3.284.284 0 00-.231-.216l-86.888-14.78-.049-.004z"/><path d="M218.107 75.312L299.106-.41l4.96 90.342-85.959-14.62zm81.251-76.646l-.194.077-81.876 76.544-.08.296.227.202 86.89 14.78.239-.07.096-.232-5.013-91.323a.29.29 0 00-.179-.253l-.11-.021zM135.197 44.323l-32.74-39.34 97.452 39.568-64.712-.228zM101.496 3.991l-.233.12.013.355 33.565 40.332.22.103 66.344.234h.003a.29.29 0 00.107-.558L101.604 4.01l-.108-.02z"/><path d="M102.058 4.196l80.034-65.291L201.029 44.38 102.058 4.196zm80.231-66.115l-.181.065-80.793 65.91-.103.267.177.226 99.91 40.566.289-.044.101-.276L182.574-61.68l-.183-.22-.102-.019z"/><path d="M216.876 74.963l-80.2-30.056 64.556.227 15.644 29.829zm-81.815-30.641a.289.289 0 00-.282.238.29.29 0 00.183.324l82.42 30.888a.29.29 0 00.318-.08l.039-.327-16.078-30.654-.254-.155-66.345-.234h-.001z"/><path d="M201.623 44.425L182.677-61.102 298.705-1.058l-97.082 45.483zM182.289-61.92l-.171.057-.112.284 19.117 106.475.151.205.254.007 97.953-45.89.167-.257-.156-.263-117.069-60.586-.134-.032z"/><path d="M201.802 44.98L297.826-.006 217.563 75.03l-15.761-30.05zm97.556-46.314l-.12.027-97.953 45.89-.152.17.018.228 16.078 30.654.206.15.246-.073L299.556-.832a.29.29 0 00.043-.374l-.241-.128zM260.168 269.178l-.238.129a.29.29 0 00.079.402l66.57 44.758a.29.29 0 00.32-.481l-66.57-44.758-.161-.05z"/><path d="M260.838 269.569l65.662-19.872-.049 63.988-65.613-44.116zm65.95-20.553l-.081.012-66.621 20.163a.288.288 0 00-.202.234l.126.284 66.569 44.759.295.014.153-.255.049-64.921-.115-.232-.173-.058z"/><path d="M327.027 313.745l.049-63.992 65.169 29.397-65.218 34.595zm-.239-64.729l-.156.047-.131.243-.05 64.921.139.248.283.007 66.166-35.098.153-.265-.171-.255-66.114-29.822-.119-.026z"/><path d="M327.094 314.365l65.379-34.681-31.179 130.163-34.2-95.482zm65.807-35.527l-.133.035-66.164 35.097a.29.29 0 00-.137.355l34.609 96.629c.043.12.165.207.286.19a.288.288 0 00.266-.221l31.555-131.727-.103-.297-.179-.061zM402.705 193.579c-2.109.011-3.828-1.698-3.839-3.819-.011-2.12 1.69-3.848 3.8-3.858 2.108-.011 3.827 1.7 3.838 3.819.01 2.12-1.69 3.848-3.799 3.858z"/><path d="M402.711 194.739c-2.742.014-4.984-2.216-4.998-4.972-.013-2.757 2.205-5.011 4.947-5.024 2.741-.014 4.982 2.217 4.997 4.973.014 2.755-2.205 5.009-4.946 5.023zm-.006-1.16c2.109-.01 3.809-1.738 3.799-3.858-.011-2.119-1.73-3.83-3.838-3.819-2.11.01-3.811 1.738-3.8 3.858.011 2.121 1.73 3.83 3.839 3.819zM324.133 99.628a3.407 3.407 0 01-3.416-3.4 3.408 3.408 0 013.381-3.436 3.41 3.41 0 013.418 3.401 3.41 3.41 0 01-3.383 3.435z"/><path d="M324.139 100.788c-2.51.012-4.564-2.03-4.576-4.555-.013-2.523 2.02-4.587 4.529-4.6 2.511-.013 4.564 2.03 4.576 4.554.014 2.523-2.018 4.587-4.529 4.601zm-.006-1.16a3.41 3.41 0 003.383-3.435 3.41 3.41 0 00-3.418-3.4 3.408 3.408 0 00-3.381 3.435 3.407 3.407 0 003.416 3.4zM429.152 26.573c-1.805.008-3.28-1.46-3.29-3.274-.008-1.814 1.452-3.298 3.256-3.308 1.804-.008 3.28 1.46 3.289 3.274a3.285 3.285 0 01-3.255 3.308zm-.007-1.16a2.127 2.127 0 002.11-2.142 2.126 2.126 0 00-2.13-2.12 2.126 2.126 0 00-2.11 2.142 2.126 2.126 0 002.13 2.12zM84.605 37.273a2.737 2.737 0 01-2.743-2.73 2.735 2.735 0 012.715-2.758 2.737 2.737 0 012.743 2.73 2.738 2.738 0 01-2.715 2.758z"/><path d="M84.61 38.432c-2.14.011-3.89-1.73-3.902-3.883-.01-2.152 1.722-3.911 3.862-3.923 2.142-.011 3.892 1.731 3.903 3.884.011 2.151-1.722 3.911-3.863 3.922zm-.005-1.159a2.738 2.738 0 002.715-2.759 2.737 2.737 0 00-2.743-2.729 2.735 2.735 0 00-2.715 2.758 2.737 2.737 0 002.743 2.73zM244.322 209.732a1.65 1.65 0 01-1.655-1.647 1.653 1.653 0 011.638-1.666 1.654 1.654 0 011.657 1.649 1.651 1.651 0 01-1.64 1.664z"/><path d="M244.329 210.892a2.813 2.813 0 01-2.815-2.802 2.81 2.81 0 012.786-2.829 2.812 2.812 0 012.816 2.8 2.814 2.814 0 01-2.787 2.831zm-.006-1.16a1.653 1.653 0 001.64-1.664 1.654 1.654 0 00-1.658-1.649 1.653 1.653 0 00-1.638 1.666 1.651 1.651 0 001.656 1.647zM341.031 142.414c-2.075.011-3.765-1.671-3.776-3.757-.01-2.086 1.663-3.785 3.737-3.795 2.074-.011 3.765 1.671 3.776 3.757.011 2.086-1.664 3.785-3.737 3.795z"/><path d="M341.037 143.573c-2.707.014-4.921-2.189-4.934-4.91-.015-2.722 2.176-4.947 4.884-4.961 2.706-.013 4.92 2.19 4.933 4.91.015 2.722-2.177 4.948-4.883 4.961zm-.006-1.159c2.074-.01 3.748-1.709 3.737-3.795-.011-2.086-1.702-3.768-3.776-3.757-2.074.01-3.747 1.709-3.737 3.795.011 2.086 1.701 3.768 3.776 3.757zM267.792 128.225a1.879 1.879 0 011.884 1.874 1.88 1.88 0 01-1.865 1.893 1.877 1.877 0 01-1.883-1.874 1.878 1.878 0 011.864-1.893z"/><path d="M267.817 133.151a3.036 3.036 0 01-3.041-3.026 3.038 3.038 0 013.011-3.06 3.039 3.039 0 013.041 3.027 3.037 3.037 0 01-3.011 3.059zm-.006-1.159a1.879 1.879 0 001.865-1.893 1.878 1.878 0 00-1.883-1.874 1.878 1.878 0 00-1.865 1.893 1.878 1.878 0 001.883 1.874zM270.772 117.86a2.123 2.123 0 01-2.128-2.119 2.125 2.125 0 012.107-2.141 2.125 2.125 0 012.129 2.12 2.125 2.125 0 01-2.108 2.14z"/><path d="M270.778 119.018c-1.802.01-3.279-1.458-3.287-3.271-.009-1.813 1.45-3.296 3.254-3.305 1.804-.01 3.278 1.457 3.288 3.271.01 1.813-1.451 3.297-3.255 3.305zm-.006-1.158a2.125 2.125 0 002.108-2.14 2.126 2.126 0 00-2.129-2.12 2.125 2.125 0 00-2.107 2.141 2.123 2.123 0 002.128 2.119zM304.381 91.947a1.664 1.664 0 01-1.667-1.66 1.663 1.663 0 011.65-1.675 1.663 1.663 0 011.667 1.659c.004.92-.735 1.67-1.65 1.675z"/><path d="M304.387 93.105a2.821 2.821 0 01-2.825-2.811 2.82 2.82 0 012.796-2.84 2.821 2.821 0 012.825 2.81 2.821 2.821 0 01-2.796 2.84zm-.006-1.159a1.665 1.665 0 001.65-1.675 1.663 1.663 0 00-1.667-1.659 1.664 1.664 0 00-1.65 1.675c.005.92.752 1.664 1.667 1.66zM101.515 7.892a3.601 3.601 0 01-3.611-3.594 3.604 3.604 0 013.574-3.63 3.604 3.604 0 013.612 3.593c.01 1.996-1.591 3.621-3.575 3.63z"/><path d="M101.521 9.052c-2.617.014-4.757-2.117-4.77-4.747-.013-2.632 2.105-4.782 4.721-4.797 2.617-.012 4.758 2.117 4.77 4.749.014 2.63-2.104 4.781-4.721 4.795zm-.006-1.16c1.984-.01 3.585-1.635 3.575-3.63a3.604 3.604 0 00-3.612-3.594 3.604 3.604 0 00-3.574 3.63 3.601 3.601 0 003.611 3.594zM137.131 44.6a2.074 2.074 0 01-2.058 2.092 2.075 2.075 0 01-2.08-2.07 2.076 2.076 0 012.059-2.091 2.075 2.075 0 012.079 2.07z"/><path d="M135.078 47.851c-1.776.01-3.228-1.437-3.238-3.223a3.234 3.234 0 013.206-3.255 3.233 3.233 0 013.238 3.222 3.235 3.235 0 01-3.206 3.256zm-.005-1.16a2.075 2.075 0 002.058-2.09 2.075 2.075 0 00-2.079-2.07 2.076 2.076 0 00-2.059 2.09 2.074 2.074 0 002.08 2.07zM201.423 48.264a3.41 3.41 0 01-3.417-3.4 3.41 3.41 0 013.382-3.436 3.41 3.41 0 013.418 3.4 3.41 3.41 0 01-3.383 3.436z"/><path d="M201.429 49.422c-2.51.014-4.563-2.029-4.575-4.553-.013-2.523 2.018-4.587 4.529-4.6 2.51-.013 4.563 2.03 4.575 4.553.012 2.524-2.018 4.588-4.529 4.6zm-.006-1.158a3.41 3.41 0 003.383-3.436 3.41 3.41 0 00-3.418-3.4 3.41 3.41 0 00-3.382 3.436 3.41 3.41 0 003.417 3.4zM299.375 1.937a2.974 2.974 0 01-2.98-2.966 2.973 2.973 0 012.949-2.996 2.975 2.975 0 012.981 2.966 2.973 2.973 0 01-2.95 2.996z"/><path d="M299.38 3.097c-2.27.01-4.127-1.837-4.139-4.12-.01-2.282 1.827-4.15 4.098-4.16 2.271-.013 4.128 1.834 4.138 4.118.012 2.283-1.825 4.15-4.097 4.162zm-.005-1.16a2.973 2.973 0 002.95-2.996 2.974 2.974 0 00-2.98-2.966 2.973 2.973 0 00-2.95 2.996 2.973 2.973 0 002.98 2.966zM217.495 77.688a2.184 2.184 0 01-2.188-2.177 2.182 2.182 0 012.166-2.2 2.182 2.182 0 012.187 2.178 2.182 2.182 0 01-2.165 2.2z"/><path d="M217.5 78.847c-1.835.01-3.336-1.485-3.346-3.33-.01-1.846 1.476-3.355 3.313-3.364 1.835-.01 3.336 1.485 3.346 3.33.01 1.846-1.476 3.355-3.313 3.364zm-.005-1.159a2.183 2.183 0 002.165-2.2 2.181 2.181 0 00-2.187-2.176 2.182 2.182 0 00-2.166 2.199 2.184 2.184 0 002.188 2.177zM260.183 272.086a2.612 2.612 0 01-2.618-2.604 2.61 2.61 0 012.591-2.63 2.608 2.608 0 012.617 2.603 2.612 2.612 0 01-2.59 2.631z"/><path d="M260.189 273.245c-2.073.011-3.765-1.676-3.776-3.758-.011-2.082 1.665-3.784 3.737-3.795 2.071-.011 3.765 1.675 3.776 3.757.011 2.082-1.666 3.785-3.737 3.796zm-.006-1.16a2.61 2.61 0 002.59-2.63 2.608 2.608 0 00-2.617-2.603 2.61 2.61 0 00-2.591 2.63 2.61 2.61 0 002.618 2.603zM326.799 251.25a1.94 1.94 0 01-1.944-1.935 1.939 1.939 0 011.923-1.954 1.94 1.94 0 011.944 1.934 1.94 1.94 0 01-1.923 1.955z"/><path d="M326.805 252.408a3.1 3.1 0 01-3.105-3.087c-.008-1.71 1.371-3.11 3.072-3.118a3.099 3.099 0 013.104 3.087c.008 1.711-1.37 3.11-3.071 3.118zm-.006-1.158a1.94 1.94 0 001.923-1.955 1.94 1.94 0 00-1.944-1.934 1.939 1.939 0 00-1.923 1.954 1.94 1.94 0 001.944 1.935zM326.717 310.041c2.299-.012 4.173 1.853 4.184 4.163.011 2.312-1.841 4.196-4.141 4.208-2.299.011-4.172-1.852-4.185-4.164-.011-2.312 1.843-4.194 4.142-4.207z"/><path d="M326.765 319.571c-2.929.014-5.326-2.37-5.342-5.317-.015-2.948 2.357-5.356 5.288-5.372 2.931-.015 5.328 2.371 5.344 5.318.015 2.946-2.359 5.356-5.29 5.371zm-.005-1.159c2.299-.012 4.152-1.895 4.141-4.207-.011-2.311-1.885-4.176-4.184-4.163-2.299.012-4.153 1.894-4.142 4.206.012 2.312 1.886 4.175 4.185 4.164zM392.913 281.265a2.131 2.131 0 01-2.135-2.125 2.13 2.13 0 012.114-2.147 2.129 2.129 0 012.135 2.124 2.131 2.131 0 01-2.114 2.148z"/><path d="M392.919 282.423c-1.807.01-3.284-1.461-3.294-3.277-.009-1.817 1.454-3.304 3.261-3.312 1.807-.01 3.285 1.461 3.295 3.277.008 1.817-1.453 3.304-3.262 3.312zm-.006-1.158a2.13 2.13 0 002.114-2.148 2.129 2.129 0 00-2.135-2.124 2.13 2.13 0 00-2.114 2.147 2.131 2.131 0 002.135 2.125z"/></g></svg>