<svg width="1151" height="594" fill="none" xmlns="http://www.w3.org/2000/svg"><g opacity=".2" stroke="white" stroke-width="2.863"><path d="M1726.8 351.483l-74.71-72.834-18.92-55.547 44.2-92.17-31.84-93.482-42.14-8.324-4.93-129.868-23.07-67.741c-19.02 6.478 30.75-13.848 48.31-22.392 17.57-8.543 27.1-10.298 37.94-12.921l5.43-63.956-168.9-495.863-56.62-33.049-35.25-103.492-90.77 30.92-44.67 90.814 10.36 61.488-9.42 12.282 9.69 28.451-31.57 18.311 59.37 81.082-20.97 44.946-8.19-6.283-83.29-.36L944.001-29.019l-24.535-14.323-75.87 25.843-122.615-62.563C700.057-36.634 637.757 65.525 615.273 82.152c-28.104 20.784-18.221 33.766-153.634 115.124-108.33 65.087-104.658 100.039-102.192 110.41 16.933-5.768 27.061-7.96 40.925 2.692 50.446 38.761-24.122 46.637-22.004 52.855l9.229 27.096 13.772 2.87 4.534 13.31 7.343 3.812-.011 17.713 18.433 9.737-10.917 12.33 17.075 50.128 33.614 18.791 10.436 4.005-16.199 14.59 4.154 12.193-25.01 8.519-3.518 58.654 18.104-.118 3.23 9.484-21.677 7.383-7.46 22.825-24.361 8.298-31.305 5.499 3.349 27.588 11.382 33.417 15.685 28.289c45.637 74.14 9.733 28.576 30.767 50.378l15.156 44.495 37.039-51.063 33.248-11.325-8.99-46.188 19.34-18.684 19.494-9.354 78.452 26.127 25.52-31.612 2.159-15.855-5.498-16.141 1.775-21.425 32.516-11.075 6.458-19.817 10.31-24.173 12.193-4.154 75.46 6.049 9.426-14.301 20.997 3.938 33.392-52.893 63.634-4.058 26.262 14.957 84.68-39.934 21.21-37.653 7.1-12.027 6.22-30.947 71.3 31.767 70.81 30.332 23.42-73.302-4.99-14.652c14.17-3.762 26.92-.507 36.15 4.038 9.22 4.545 53.23 35.138 52.42 56.233l311.02-63.456-2.5-29.538 102.6-22.85z"/><path d="M1643.96 281.418l67.87 66.09-97.17 21.004.18 27.155-293.8 60.763c.77-19.92-45.52-52.839-54.24-57.127-8.72-4.288-37.71 1.755-51.11 5.313l5.08 14.903-18.62 60.772-76.25-32.994-73.52-29.391 5.08 14.903-6.71 11.359 5.07 14.903-27.75 47.253-83.479 39.019-20.902-12.537-51.111 5.314-16.317-3.514-34.958 52.731-20.873-8.01-11.672 14.56-76.078-5.839-12.193 4.154-9.306 30.386-9.856 15.453-32.516 11.076-5.241 29.001 4.733 31.652-21.588 20.961-41.254-10.14-31.309-12.015-24.819 11.477-20.665 23.672 6.52 28.019.982 11.761-28.451 9.691-6.685 15.886-21.097 26.842-10.153-29.806c-13.255-19.677-44.135-62.986-52.626-87.915-8.491-24.929-14.767-43.354-12.058-44.277l19.459-.58 38.799-19.264 2.591-19.026 23.032-7.846-4.154-12.193-15.855-2.159 7.803-52.554 18.967-6.461-4.615-13.548 10.809-8.218 3.053-17.672-11.762.982-24.103-17.494-20.245-50.56 8.963-13.637-17.27-10.75-1.905-14.471-8.188-6.283-1.444-13.116-15.856-2.159-6.922-20.323 32.516-11.075 5.703-27.647c-2-5.871-7.89-16.061-20.991-26.114-13.101-10.053-27.359-7.817-32.173-5.673-2.327-9.792 14.1-44.72 116.531-106.222 128.039-76.877 122.472-97.66 149.047-117.297C658.149 56.857 703.059-29.1 722.856-70.117l121.231 58.499L918.602-37l24.996 15.677 257.832-508.161 73.77-.935 13.67 13.489 26.77-59.015-53.06-84.744 25.71-13.294-10.15-29.806 10.35-9.573-9.9-60.132 43.77-88.999 79.93-27.227 33.69 98.901 56.34 32.22 162.53 490.473-6.88 55.264c-10.25 2.481-31.22 15.774-47.82 23.849-16.61 8.074-34.91 14.41-37.45 18.802l24.92 73.16 9.91 131.193 42.58 5.153 30.46 89.417-46.91 93.093 20.3 59.612z"/><path d="M994.907 280.235l-14.471 1.905-9.23-27.096-21.021-30.64c1.951-1.673 7.12-4.844 12.194-4.154 5.074.691 23.799 40.278 32.528 59.985zM1161.77-20.034l35.86 16.512 17-29.984 32.52-11.075-11.08-32.516-24.96-11.152c.16 1.96-.68 7.79-5.33 15.424-4.66 7.634-17.3 8.411-23.04 7.845l-20.97 44.946zM1196.31 1.465l-8.48 19.518-36.78-19.221 8.93-18.163 36.33 17.866zM1184.73 100.663l-22.25-12.075 18.3-39.497 24.07 12.968-20.12 38.604zM1139.86 22.202l36.79 19.222 9.83-19.98-36.79-19.221-9.83 19.98zM1128.25 45.814l36.79 19.222 8.93-18.163-37.25-20.577-8.47 19.518zM1164.15 66.852l-8.94 18.163-38.14-18.76 10.29-18.625 36.79 19.222zM1155.88-19.543L1145.6-.918l-38.15-18.76 10.29-18.625 38.14 18.76zM1097.63.3l38.14 18.76L1146.06.437l-39.5-18.298L1097.63.3zM1104.57-45.911l-13.83 30.415-47.23-23.226 3.55-11.791-16.35-8.04 11.18-20.441 62.68 33.083z"/><path d="M1089.38-15.034l-4.47 9.081-64.95-35.33 10.75-17.27 16.35 8.04-4.01 10.436 46.33 25.043zM1027.86-9.2l-17.7-7.579 8.94-18.163 63.13 34.438-4.46 9.082-46.33-25.043-3.58 7.265z"/><path d="M1063.47 37.639L1000.34 3.2l10.28-18.625 17.71 7.579 3.57-7.266 46.33 25.044-14.76 27.706zM987.905-28.854l16.345 8.04L991.284 3.26l-68.308 74.675-21.051-35.166 54.388-57.837 21.901-42.237 17.27 10.75-7.579 17.701zM1084.66 24.374l38.6 20.115 9.83-19.98-38.14-18.76-10.29 18.625zM1121.91 44.95l-8.93 18.163-36.79-19.221 7.58-17.702 38.14 18.76zM1032.5 284.062l10.09 20.754c19-1.934 35.29-2.946 62.44-3.124 27.16-.178 82.45 11.228 115.09 18.257l64.86 21.753 6.66-20.411c-13.3-3.534-41.75-16.021-64.87-21.754-47.89-11.874-108.31-20.563-133.19-18.137-8.21.801-45.41-.156-61.08 2.662zM1133.83 275.252l39.87 6.076 41.33-47.342 31.23-68.097 91.51 11.169 17.52-19.577-31-33.29-82.65-42.91-14.7 36.758-12.56 16.376-41.25 60.92-39.3 79.917z"/><path d="M1354.37 154.772l20.96 21.588-4.04 5.91-12.62 7.325-14.47 1.905-12.23-.373-16.26 5.538-16.31-3.514-17.24-6.224-8.13 2.769 7.84 23.032-5.42 1.846-4.43 13.607-6.23 17.24-7.17 10.005-18.97 6.461-12.25-4.899-13.55 4.615-7.64 8.649-3.08 13.146-5.82 9.543 11.94 26.174-20.85-3.485-8.3-24.386-8.25-15.335-5.54-16.258 12.08-22.257 10.34-9.573 24.82-11.477 7.64-8.65c.13-2.566.49-8.331.84-10.868.43-3.171-9.52-1.296-14.94.55s-5.91-4.035-8.65-7.638c-2.74-3.603 10.38-5.046 14.44-6.431l16.26-5.538-3.2-4.957c.43-3.171 1.02-10.327-.09-13.578-1.11-3.252-5.32-6.754-7.29-8.099l-9.14-13.519 10.43 4.005 15 8.502 11.32 2.189 13.03-15.022c2.11-1.221 5.66-6.464 3.05-17.672-2.6-11.207 3.78.73 7.3 8.1l10.47 8.531c.91 1.201 6.47 6.566 21.39 18.417 18.65 14.814 21.79 10.72 29.95 12.477 6.53 1.406 18.06-7.662 23.01-12.371zM1102.58 272.289l23.09 1.206c19.68-35.432 61.28-110.386 66.66-119.473 5.37-9.088 17.51-21.086 22.91-25.949l-1.85-5.419-27.7-14.755-83.11 164.39zM925.283 84.71l50.779 82.495 107.028-36.457-21.69-63.676 8.91-22.689-74.471-36.627-70.556 76.953z"/><path d="M1026.37 39.692c-7.63-4.657-6.25-10.973-4.61-13.549l.89-1.816 38.14 18.76-4.89 12.253c-6.66-3.276-21.89-10.991-29.53-15.648zM996.787 152.586l-21.677 7.384-2.71.923-46.656-74.829 22.481-22.777 48.562 89.299z"/><path d="M1056.36 56.695l-29.99-17.003c-3.33-2.392-9.78-13.062-1.44-13.117 9.05-.059 25.86 9.336 36.76 14.696l-4.44 13.608M994.793 124.537l4.615 13.548.922 2.71 13.55-4.615-.03-4.526 9.94-1.875 2.74 3.603 27.99-11.046-25.32-65.463-7.7-.403-3.23-9.483-15.36 3.721-14.962-3.975-32.516 11.075 24.192 31.072 10.555 22.109 12.191-4.153.43-3.172 10.84-3.691 4.62 13.548-3.14 4.094-20.327 6.922z"/><circle cx="1052.2" cy="44.502" r="2.863" transform="rotate(-108.81 1052.2 44.502)"/><path d="M1089.55 149.716l-82.64 28.15-6-17.613 82.64-28.15 6 17.613z"/><path d="M977.879 168.099l8.709 16.689 20.322-6.922-6-17.613-23.031 7.846zM1057.42 219.628l-42 14.306-25.17-42.833 51.48-17.536 15.69 46.063z"/><path d="M1016.11 200.437l-17.612 5.999-8.248-15.335 20.32-6.922 5.54 16.258zM1080.24 109.042l13.38 39.289 40.64-13.844 6.2-21.766-27.71-14.755-32.51 11.076z"/><path d="M1065.47 65.688l13.84 40.644.93 2.71 31.16-10.614 29.95 12.477 10.72-21.796-78.56-39.768-8.04 16.347zM1047.61 173.073l15.23 44.709 43.36-14.767-15.23-44.709-43.36 14.767zM1018.62 238.892l16.99 36.551 38.92-1.16-16.62-48.774-39.29 13.383zM1063.79 225.018l16.16 47.419 1.38 4.064 16.26-5.538 19.68-35.432-8.77-25.742-44.71 15.229zM1111.65 205.695l8.3 24.387 18.79-33.616-27.09 9.229z"/><path d="M1140.96 189.662l-29.81 10.152-15.22-44.709 39.29-13.383 22.76-48.578 24.07 12.968-41.09 83.55zM869.948-2.282l27.392 36.03 47.643-51.005-24.966-11.152-46.958 17.506-3.111 8.62zM818.312 130.218l9.691 28.451 82.644-28.15-16.465-26.144-75.87 25.843zM804.496 94.1l10.614 31.161 79.935-27.228-18.743-28.392L804.496 94.1zM889.668 175.465l-51.483 17.536-9.692-28.451 51.484-17.536 9.691 28.451z"/><path d="M878.769 170.105l-43.354 14.768-6.922-20.323 43.354-14.767 6.922 20.322z"/><circle cx="839.392" cy="169.91" r="4.294" transform="rotate(-108.81 839.392 169.91)"/><path d="M883.579 144.275l9.692 28.451 33.87-11.537-13.756-27.067-29.806 10.153z"/><path d="M913.877 140.003l-27.097 9.229 6.491 23.494 32.515-11.076-11.909-21.647zM893.762 178.607l5.076 14.903 39.29-13.383-9.141-13.519-35.225 11.999zM898.867 198.036l5.076 14.903 46.064-15.691-7.786-13.98-43.354 14.768zM839.107 195.711l5.077 14.903 50.128-17.075-5.076-14.903-50.129 17.075zM845.107 213.324l5.538 16.258 48.773-16.614-5.538-16.258-48.773 16.614zM876.703 61.944l-74.515 25.382-5.999-17.613 23.718-41.343 56.796 33.574zM805.627 128.491l-43.355 14.767 29.362-78.041 7.845 23.032-6.774 2.307 12.922 37.935zM828.21 190.351l-77.225 26.305-8.306-24.387 6.774-2.308 13.802-34.941-1.846-5.419 47.419-16.152 19.382 56.902zM703.537 228.281l3.691 10.839 47.076.597-8.768-25.742-41.999 14.306zM790.25 61.152l-79.485-42.478 21.008-40.42 80.408 45.188-21.931 37.71zM908.617 235.539l-50.128 17.074-5.538-16.257 50.129-17.075 5.537 16.258z"/><path d="M880.048 227.126l5.076 14.903.462 1.355-28.451 9.691-5.538-16.258 28.451-9.691zM1013.44 276.945l-10.84 3.692-48.037-78.892 14.903-5.077 43.974 80.277zM966.266 191.71l-13.549 4.615-53.117-93.796 13.549-4.614 53.117 93.795zM859.413 255.323l11.075 32.516 106.777-6.131-8.307-24.386-21.482-31.995-88.063 29.996z"/><path d="M876.623 257.021l8.768 25.741 6.774-2.307 1.384 4.065 35.226-11.999-1.385-4.064 27.097-9.23-2.426-24.878-67.741 23.074-1.846-5.419-4.065 1.384-1.786 3.633zM763.847 245.539l15.69 46.063 79.189-2.781-10.152-29.806c-9.779-.298-16.511-10-18.654-14.814l-66.073 1.338zM795.117 528.217l-55.839-163.933-.58-19.459-24.967-11.152-61.517 5.834-119.461 4.403-55.695-3.709-50.277-5.555-6.626 24.937-31.161 10.614 3.231 9.484 22.659 4.378.55 14.933 5.911 4.034 4.615 13.549 19.577 17.523-13.028 15.022 21.139 48.744 8.159 1.757 9.111 8.992 14.01-3.26 5.076 14.903-1.266 14.04-12.625 7.324 5.538 16.258-16.258 5.538 3.23 9.483-12.104 17.731-4.408 18.134 16.258-5.538 11.076 32.516-23.032 7.845-11.643 19.086-23.032 7.845-3.544 11.791-27.617-1.177 5.538 16.258 16.986 36.55 21.02 30.64 16.495 30.67 15.111 26.605 13.831-30.415 24.387-8.307.775-19.92-4.153-12.193 11.643-19.086 6.715-11.36 32.917-18.772 26.754 7.519 37.219 16.05 18.967-6.46 8.04-16.347c-2.019-8.888-5.54-30.47-3.467-45.691 2.073-15.221 17.39-17.011 24.789-16.004 8.581-2.922 25.539-12.025 24.73-25.055-.81-13.03 2.561-23.553 4.348-27.186l20.322-6.922 23.121 5.733c5.573-1.394 20.617-3.394 36.207-.237 15.591 3.157 22.754-4.223 24.387-8.307l20.814-1.041 25.534-40.45-48.49-9.187zM724.944 317.758l-8.1 7.295c-91.987 6.637-278.653 10.243-289.288-10.327-10.635-20.569-17.502-23.27-28.226-25.161-10.723-1.892-16.837-17.736.715-28.972 151.444-96.945 220.883-137.23 243.217-182.638 4.198-3.95 7.447 14.096 6.922 20.323-2.1 24.907-144.531 115.759-213.96 157.552-3.102 10.128-4.03 34.334 17.075 50.128 21.104 15.794 186.813 5.415 267.03-1.748l4.615 13.548zM756.925 225.216l4.154 12.193c24.446.746 39.378.195 66.534.018-1.131-6.873 4.561-17.682 7.549-22.228l-5.076-14.903-73.161 24.92z"/><path d="M833.984 242.816l16.258-5.538 5.076 14.903c-12.193 4.154-19.026-2.591-21.334-9.365zM848.304 231.588l-16.258 5.538c-3.624-10.641 6.006-17.88 11.274-20.17l4.984 14.632zM851.001 258.875l9.968 29.265 5.912-2.014-9.968-29.264-5.912 2.013zM842.397 214.247l-5.419 1.846-5.538-16.258 5.419-1.846 5.538 16.258zM772.302 292.555l-23.984.609-16.152-47.418 23.984-.61 16.152 47.419zM746.963 293.626l-19.458.58-16.614-48.774 19.92.775 16.152 47.419zM658.312 95.51l13.383 39.289 75.87-25.843L736.49 76.44l-44.515-24.15-33.663 43.22zM699.993 240.072l-74.514 25.382-21.229-62.322 74.515-25.381 21.228 62.321zM625.077 273.151l9.691 28.451 83.253-4.166-17.075-50.128-75.869 25.843zM560.701 257.278l15.69 46.064 54.311-.356-21.228-62.321-48.773 16.613zM607.167 233.891l-48.773 16.613-17.075-50.128 43.697-31.516 22.151 65.031zM1381.57 438.834l-56.07 8.514c-13.83-15.449-43.48-46.877-51.46-48.998-7.98-2.12-46.78-1.202-65.18-.478l6.92 20.322-8.44 24.044-7.49 31.279-101.22-44.146c3.39-34.421-50.27-98.738 24.74-91.59 113.77 10.842 219.54 71.886 258.2 101.053z"/><path d="M1124.49 438.707l-17.71-7.579 8.82-36.267 11.33 2.189 2.16-15.855 13.49-13.667 21.79 10.72-15.53 47.626-14.04-1.266-10.31 14.099zM513.342 282.482l8.768 25.741 48.401-4.39-15.229-44.709-36.58 12.46 2.769 8.129-8.129 2.769zM552.975 252.35l-35.226 11.998-2.769-8.128-9.483 3.23-11.076-32.516 31.102-19.666 11.075 32.516 10.839-3.692 5.538 16.258zM438.501 258.078l10.152 29.806 43.354-14.767-2.768-8.129 9.483-3.231-11.537-33.87-48.684 30.191zM450.499 293.303l2.769 8.129 59.328 5.496-7.845-23.032-8.129 2.769-2.769-8.129-43.354 14.767z"/><path d="M495.178 273.549l-1.846-5.42 5.42-1.845 1.845 5.42zM498.871 284.387l-1.846-5.42 5.42-1.845 1.845 5.42zM512.419 279.772l-1.846-5.42 5.42-1.845 1.845 5.42zM508.727 268.934l-1.846-5.42 5.42-1.845 1.845 5.42zM749.224 362.408l145.232-8.645 23.997 70.451-73.22 15.868-68.782 2.26-27.227-79.934z"/><path d="M771.345 422.914l5.999 17.612 33.959 2.041-1.041-20.813-38.917 1.16zM537.492 237.968l-11.999-35.226 10.839-3.691 11.998 35.225z"/><path d="M542.911 236.122l-1.846-5.42 5.42-1.845 1.845 5.42zM1020.8 294.097l-8.07 11.82-266.483 16.681-13.637-8.963-3.692-10.839 288.182-19.538 3.7 10.839zM751.755 334.33l258.295-22.964 19.95 5.301 10.06 16.228-142.463 16.774-151.113 9.136-4.153-12.193 9.424-12.282zM910.519 387.604l7.07 42.952 160.021-31.825-33.46-62.694-144.707 19.052 11.076 32.515zM1123.4 342.307l-23.88 85.248c-21.54-41.047-24.71-41.479-59.58-112.763 106.52-31.733 301.68 64.452 385.94 116.511h0c-17.62 5.999-32.85 11.187-43.88 4.36-78.16-48.37-204.97-82.391-258.6-93.356zM887.513 53.727l-13.98 7.785L820.34 25.2l15.216-26.351c9.697 6.273 29.493 11.122 36.876 32.8 4.062 11.922 10.843 19.994 15.081 22.079zM731.311-23.1l79.947 43.832 16.11-28.167-79.947-43.833-16.11 28.168z"/><path d="M813.895 423.54l-1.237 18.565 37.563-.698 67.8-14.022-14.306-42-68.723 11.313-21.097 26.842zM773.771 447.791l28.15 82.644 42.148 8.324 9.424-12.282 14.962 3.975 12.685 1.728 9.484-3.231 14.932-.55 19.92.775 19.086 11.643 78.058-37.173 11.64-19.086-75.18-7.655-91.187-32.443-30.298 4.271-63.824-.94z"/><path d="M1033.8 483.203c-16.17 19.116-71.395-5.416-84.754-18.002l.804-15.394-12.193 4.153-6.922-20.322 114.785-27.003 36.18-4.763 14.22 28.422-47.17-14.175 4.62 13.548-7.15 14.53 3.23 9.484c9.68 3.256-5.19 17.159-15.65 29.522z"/><path d="M1005.17 465.739l-37.737-26.457 25.742-8.768 13.545-4.615 16.81 9.395-8.96 13.637 4.15 12.193-11.33-2.189-2.22 6.804zM985.312 474.016l-10.838 3.692-12.223-.373-11.046-27.989 6.774-2.308 9.052-.059 10.897 5.36 7.384 21.677zM944.503 531.765L917.72 519.72l-18.625-10.289-4.615-13.548-2.769-8.129-23.15-10.258-.669-33.037 60.594-8.543 6.461 18.967 13.548-4.615 5.538 16.258-13.548 4.615 20.932 17.062-16.914 43.562z"/><path d="M812.523 490.536l3.23 9.484 63.854 5.466 3.053-17.672-11.36-6.715-4.614-13.548-20.962-21.588-43.354 14.767 4.704 27.126 5.449 2.68zM451.506 447.185l17.537 51.483 33.497.686 18.21-53.075-69.244.906zM648.68 76.11l5.538 16.258 91.387-144.53-14.531-7.146L648.68 76.11zM759.312 520.757l-54.802-5.526 2.727-67.457 42.549.627 20.305 59.612-10.779 12.744zM702.639 367.692l2.26 68.782 46.644 3.768-24.92-73.16-23.984.61zM693.642 514.397l-74.261-4.945 24.031-62.618 48.43.136 1.8 67.427zM673.697 371.502l-27.634 65.357 50.247 1.029-7.71-71.462-14.903 5.076zM601.709 506.399l-78.325-3.561 23.167-56.275 77.864 2.206-22.706 57.63zM572.772 372.615l-24.002 67.144 78.296-.965 23.078-69.853-77.372 3.674zM528.849 438.984l-80.573-1.283 23.57-63.972 77.863 2.206-20.86 63.049zM1149.83 437.635l-3.12 8.62 7.27 3.574 4.9-12.253 3.57-7.265 8.56-5.94 4.04-5.91 2.21-6.804.41-7.697 7.17-10.005.87-6.342 4-10.436 6.72-11.359 10.72-21.796-14.97-3.976-4.86 16.779-.38 12.223-5.39 6.372-6.74 6.833 1.41 8.591-4.49 4.555-4.93 7.727-.4 7.697-1.33 4.987c.61.298 1.28 1.983-.86 6.342-2.15 4.36-3.3 3.643-3.61 2.74l-3.57 7.265-7.2 5.478z"/><circle cx="649.92" cy="403.793" r="4.294" transform="rotate(-108.81 649.92 403.793)"/><circle cx="567.94" cy="602.574" r="37.213" transform="rotate(-108.81 567.94 602.574)"/><path d="M558.977 616.211c-3.2-4.958-6.372-5.389-10.897-5.36h0c3.603-2.739 7.205-5.478 5.36-10.898v.001c4.987 1.325 4.987 1.325 8.158 1.757.432-3.172-.491-5.881-3.23-9.484 5.419-1.846 12.223.372 15.885 6.685l10.838-3.692 1.385 4.065-10.839 3.691c1.876 9.946-5.33 15.424-8.04 16.347-.029-4.526-1.414-8.59-3.23-9.484-2.248 2.278-3.142 4.094-5.39 6.372z"/></g></svg>