<svg width="44" height="44" fill="none" xmlns="http://www.w3.org/2000/svg"><path fill-rule="evenodd" clip-rule="evenodd" d="M27.014 0H6v44h32.8V11.786L27.014 0zM36.8 25.2V13.6H25.2V2H8v23.2h28.8z" fill="#F50000"/><path d="M15.95 31.7c.558 0 1.041.093 1.45.279.413.186.731.45.953.792.222.342.333.747.333 1.215 0 .462-.11.867-.333 1.215-.222.342-.54.606-.954.792-.408.18-.89.27-1.449.27h-1.269V38h-1.458v-6.3h2.727zm-.08 3.375c.437 0 .77-.093.998-.279.228-.192.342-.462.342-.81 0-.354-.114-.624-.342-.81-.228-.192-.56-.288-.999-.288h-1.188v2.187h1.188zM19.907 31.7h2.862c.684 0 1.287.132 1.81.396.527.258.935.624 1.223 1.098.294.474.441 1.026.441 1.656 0 .63-.147 1.182-.44 1.656a2.925 2.925 0 01-1.225 1.107c-.522.258-1.125.387-1.809.387h-2.862v-6.3zm2.79 5.103c.63 0 1.131-.174 1.503-.522.378-.354.567-.831.567-1.431 0-.6-.189-1.074-.567-1.422-.372-.354-.873-.531-1.503-.531h-1.332v3.906h1.332zM28.98 32.87v1.665h2.917v1.17H28.98V38h-1.458v-6.3h4.76v1.17h-3.302z" fill="white"/></svg>