<svg width="45" height="44" fill="none" xmlns="http://www.w3.org/2000/svg"><path fill-rule="evenodd" clip-rule="evenodd" d="M27.77 0H6.754v44h32.8V11.786L27.769 0zm9.785 25.2V13.6h-11.6V2h-17.2v23.2h28.8z" fill="#006CBF"/><path d="M10.018 31.7h2.862c.684 0 1.287.132 1.809.396.528.258.936.624 1.224 1.098.294.474.44 1.026.44 1.656 0 .63-.146 1.182-.44 1.656a2.925 2.925 0 01-1.224 1.107c-.522.258-1.125.387-1.81.387h-2.861v-6.3zm2.79 5.103c.63 0 1.13-.174 1.503-.522.378-.354.567-.831.567-1.431 0-.6-.19-1.074-.567-1.422-.372-.354-.873-.531-1.503-.531h-1.332v3.906h1.332zM20.504 38.108a3.704 3.704 0 01-1.773-.423 3.19 3.19 0 01-1.233-1.161 3.23 3.23 0 01-.44-1.674c0-.618.146-1.173.44-1.665a3.17 3.17 0 011.233-1.17 3.704 3.704 0 011.773-.423c.654 0 1.242.141 1.764.423a3.17 3.17 0 011.683 2.835 3.18 3.18 0 01-.45 1.674 3.19 3.19 0 01-1.233 1.161c-.522.282-1.11.423-1.764.423zm0-1.242c.372 0 .708-.084 1.008-.252.3-.174.534-.414.702-.72.174-.306.261-.654.261-1.044s-.087-.738-.26-1.044a1.78 1.78 0 00-.703-.711 1.972 1.972 0 00-1.008-.261c-.372 0-.708.087-1.008.261a1.84 1.84 0 00-.71.711 2.133 2.133 0 00-.253 1.044c0 .39.084.738.252 1.044.174.306.411.546.711.72.3.168.636.252 1.008.252zM28.062 38.108a3.677 3.677 0 01-1.746-.414 3.208 3.208 0 01-1.224-1.161 3.248 3.248 0 01-.441-1.683 3.2 3.2 0 01.44-1.674c.3-.498.709-.885 1.225-1.161a3.632 3.632 0 011.755-.423 3.64 3.64 0 011.476.288c.444.192.816.468 1.116.828l-.936.864c-.426-.492-.954-.738-1.584-.738-.39 0-.738.087-1.044.261a1.823 1.823 0 00-.72.711 2.133 2.133 0 00-.252 1.044c0 .39.084.738.252 1.044.174.306.414.546.72.72.306.168.654.252 1.044.252.63 0 1.158-.249 1.584-.747l.936.864c-.3.366-.672.645-1.116.837a3.704 3.704 0 01-1.485.288zM35.493 38l-1.52-2.187L32.477 38h-1.674l2.331-3.204-2.214-3.096h1.656l1.45 2.043 1.421-2.043h1.575l-2.196 3.042L37.177 38h-1.684z" fill="white"/></svg>