<svg width="1326" height="807" fill="none" xmlns="http://www.w3.org/2000/svg"><g opacity=".2" stroke="#D1D1D1" stroke-width="2.863"><path d="M858.262 1300.82l-7.83-104.04 22.563-54.17 94.128-39.87 37.977-91.17-26.102-34.123 82.232-100.638 27.51-66.061c-18.54-7.725 32.23 9.965 51.05 15.176 18.82 5.212 27.13 10.208 36.99 15.409l46.39-44.364L1424.59 313.4 1404 251.16l42.04-100.925-88.52-36.872-93.58 38.545-32.91 52.961-15.2 2.974-11.55 27.746-35.79-7.152-9.12 100.079-45.47 19.823-1.98-10.129-62.21-55.371-526.68 214.753-8.921-26.973-73.989-30.818-50.55-128.036c-44.422 18.721-158.728 54.106-186.588 51.698-34.824-3.01-36.003 13.264-191.369-15.32-124.293-22.868-144.664 5.77-149.676 15.178 16.513 6.878 25.558 11.935 28.906 29.095 12.182 62.441-48.944 19.011-51.469 25.075l-11.007 26.425 8.428 11.263-5.406 12.98 2.984 7.717-11.728 13.275 7.381 19.497-16.344 2.022-20.362 48.886 12.773 36.329 5.176 9.908-21.799.223-4.953 11.891-24.39-10.159-41.444 41.654 13.653 11.889-3.852 9.249-21.14-8.805-20.695 12.18-23.757-9.896-27.112-16.588-15.741 22.902-13.574 32.588-6.956 31.59c-14.831 85.788-11.607 27.866-10.26 58.132l-18.073 43.391 61.557-13.784 32.423 13.506 23.818-40.582 26.863-1.215 20.807 5.883 41.541 71.497 40.051-6.82 12.109-10.461 6.557-15.741 15.505-14.89 31.709 13.207 17.954-10.586 23.724-11.306 11.891 4.953 52.581 54.461 16.53-4.487 13.14 16.845 60.033-17.57 50.401 39.058 9.797 28.591 89.916 26.08 40.815-14.202 13.28-4.322 25.141-19.089 32.447 70.994 33.03 69.596 66.056-39.47 5.952-14.29c13.12 6.56 20.526 17.43 24.436 26.94 3.91 9.51 16.667 61.57 2.102 76.85l275.206 158.2 17.667-23.81 92.047 50.75z"/><path d="M842.505 1193.47l7.167 94.47-86.762-48.55-17.833 20.48-260.507-148.82c13.761-14.42.829-69.73-2.872-78.71-3.7-8.99-29.435-23.63-41.84-29.84l-6.054 14.54-54.163 33.25-35.35-75.188-35.68-70.678-6.054 14.534-12.55 4.075-6.054 14.533-52.073 17.072-88.411-25.972-7.379-23.23-41.84-29.831-9.911-13.43-61.102 16.411-10.351-19.816-18.386 3.195-53.183-54.711-11.891-4.953-27.082 16.628-17.615 5.066-31.709-13.207-23.118 18.278-17.392 26.866-30.057 1.435-24.225-34.898-15.527-29.724-26.204-7.814-31.157 4.078-13.649 25.324-7.045 9.469-27.746-11.557-15.522 7.489-33.579 6.169 12.107-29.067c3.08-23.524 8.578-76.43 18.704-100.741 10.126-24.31 17.61-42.279 20.253-41.178l14.975 12.439 41.838 11.225 14.531-12.553 22.461 9.355 4.953-11.891-10.461-12.109 40.621-34.245 18.498 7.704 5.503-13.212 13.542.989 13.981-11.231-9.469-7.045-6.5-29.065 18.27-51.307 15.743-4.296-5.837-19.486 8.146-12.112-1.983-10.128 7.595-10.791-10.461-12.109 8.255-19.819 31.71 13.208 22.567-16.957c2.385-5.726 4.71-17.264 1.538-33.47-3.173-16.206-15.343-23.963-20.371-25.54 4.733-8.882 40.16-24.204 157.658-2.551 146.872 27.066 156.448 7.798 189.367 10.656 26.336 2.287 116.882-32.456 158.864-50.113l52.2 124.072 72.668 30.268 8.371 28.294 529.534-210.459 55.94 48.105 1.32 19.157 59.12-26.541 16.28-98.648 28.08 7.043 12.11-29.067 14.09-.332 32.36-51.64 91.71-37.774 77.95 32.469-40.17 96.45 20.92 61.431-202.63 475.312-41.72 36.887c-9.32-4.916-33.85-8.825-51.64-13.756-17.79-4.93-35.71-12.289-40.51-10.674l-29.72 71.346-79.369 104.932 28.519 32.032-36.321 87.2-96.77 38.77-24.214 58.13z"/><path d="M356.596 763.165l-12.112-8.146 11.006-26.425 4.51-36.882c2.569.036 8.544 1.077 11.891 4.952 3.347 3.875-8.802 45.949-15.295 66.501zM721.2 468.502l3.084 7.486 14.972-6.167-3.083-7.486-14.973 6.167zM1027.97 785.433l-19.82-8.255-2.64-1.101 23.66-56.812-31.827-79.927 44.367-17.18 10.02 24.33c2.43 16.514 7.56 51.833 8.71 60.992 1.43 11.45.22 21.8-1.21 28.956-1.14 5.725 3.63 12.367 6.17 14.972l-37.43 34.025z"/><path d="M998.887 661.688l-42.274 19.602c12.443 22.238 8.041 32.808 9.141 30.165l-17.06 40.958 50.207 20.913 23.659-56.813-23.673-54.825zM824.731 796.907l-89.402-31.036 18.711-44.922 87.201 36.322-16.51 39.636zM867.561 813.197l-36.995-15.41 15.96-38.315 36.994 15.409-15.959 38.316z"/><path d="M895.085 821.56l-18.497-7.704 36.872-88.522-9.801-21.138 48.109-18.722 10.573 23.009c-14.272 31.783-40.724 97.771-46.669 104.597-4.699 5.397-13.981 11.232-20.587 8.48z"/><path d="M908.185 797.558l5.505 5.394 1.101-2.642 1.539-14.864 6.165-3.634 4.294-2.863 5.612-20.919 3.19-18.827 3.412-15.634-.112-10.899-1.542-3.743-.991-5.065-13.212-5.503-1.651 3.964.661 9.578 1.983 10.129-3.302 7.927.662 9.578-1.21 10.35-1.1 2.642-5.504 13.212-.109 7.707-3.852 9.249-1.539 14.863zM943.069 661.694l6.388 18.166-49.982 19.493-6.938-16.844 50.532-20.815zM884.607 660.601l6.938 16.843 49.982-19.493-6.388-18.165-50.532 20.815zM853.234 698.698l7.488 15.523 34.238-15.198-6.167-14.972-35.559 14.647zM847.176 676.019l6.167 14.972 33.688-13.876-6.167-14.973-33.688 13.877zM884.4 769.046l-36.995-15.409 14.859-35.674 36.33-12.775 6.609 21.358-20.803 42.5zM763.174 695.296l-8.805 21.139 87.751 35 14.309-34.352-6.938-16.843-37.431 15.418-48.886-20.362z"/><path d="M776.712 659.072l51.527 21.463 13.322-2.204 6.167 14.973-36.881 14.097-46.243-19.262 12.108-29.067zM756.018 693.865l-8.255 19.819-14.533-6.054-25.652 9.472-8.7-23.78 28.073-11.564 29.067 12.107z"/><path d="M680.376 648.405l15.968 36.11 32.588-11.234 31.709 13.208 13.208-31.71-11.343-24.88c-1.174 1.578-5.658 5.395-14.202 8.038-8.543 2.644-18.533-5.135-22.46-9.355l-45.468 19.823zM663.196 604.038l16.739 37.981 43.046-17.731-37.327-29.501-22.458 9.251zM654.511 710.502l10.021 24.331 37.982-16.74-8.701-23.78-39.302 16.189zM692.051 687.378l-19.266 9.03-14.868-38.752 18.716-7.709 15.418 37.431zM617.744 754.105l-8.7-23.78 39.853-17.51 9.471 25.651-40.624 15.639zM636.009 665.585l14.868 38.752 20.587-8.48-14.868-38.752-20.587 8.48zM611.679 675.607l14.868 38.752 18.715-7.709-14.317-40.073-19.266 9.03zM624.675 715.13l-18.715 7.709-16.189-39.303 20.036-7.158 14.868 38.752zM675.642 644.882l-20.037 7.159-16.189-39.303 20.037-7.158 16.189 39.302zM618.829 621.218l16.189 39.303 20.037-7.159-17.51-39.853-18.716 7.709zM654.606 591.158l-30.495 13.655-20.043-48.66 10.458-6.497-6.938-16.844 21.908-7.93 25.11 66.276z"/><path d="M622.791 604.263l-9.358 3.854-25.331-69.467 19.487-5.838 6.938 16.844-9.908 5.176 18.172 49.431zM572.802 567.937l-8.259-17.394 18.715-7.709 24.56 67.596-9.358 3.855-18.172-49.431-7.486 3.083z"/><path d="M568.515 626.619l-24.559-67.596 20.036-7.159 8.26 17.394 7.486-3.083 18.172 49.431-29.395 11.013zM573.784 498.576l6.388 18.165 16.073-8.809 7.709 18.715 24.33-10.022-13.876-33.687-40.624 15.638zM555.842 526.763l6.938 16.844-25.651 9.471-100.627 10.802 7.481-40.296 79.049-7.386 44.367-17.181 5.837 19.487-17.394 8.259z"/><path d="M571.915 517.953l7.709 18.716-18.166 6.388-5.616-16.294 16.073-8.81zM640.176 521.578l24.669 59.89 17.394-8.26 40.069-51.53-9.142-30.165-72.99 30.065zM785.512 600.72l-58.789 22.027-1.871.77-37.327-29.501-21.908 7.93 64.947-81.48 20.587-8.48 34.361 88.734zM758.431 617.348l-32.587 11.234c15.503 16.38 31.268 6.822 37.212-.005l-4.625-11.229zM763.496 616.356l14.097 36.881 52.849 22.013 48.66-20.043-9.251-22.459-48.885-20.362-8.26-17.394-49.21 21.364z"/><path d="M785.956 625.712l-7.704 18.497 4.184 4.844 4.37 6.472 12.476 5.196 6.936-1.762 18.056 1.319 19.598 5.062 13.872-3.525 4.952-11.891-8.368-9.688-18.497-7.704-3.302 7.927-23.782-9.906-9.579.662-13.212-5.503zM787.384 599.949l-4.625-11.229 23.009-10.572 5.947 11.779-24.331 10.022z"/><path d="M793.658 588.608c-1.674-1.937-4.44.735-5.614 2.313l2.312 5.615 4.294-2.863c.367-.881.682-3.127-.992-5.065zM718.781 489.2l11.013 29.395 21.909-7.93 30.836 74.862 22.458-9.251-39.977-105.027-46.239 17.951zM824.488 607.651l-6.167-14.972 14.972-6.167 34.116-119.129 14.972-6.167 25.103 10.456 27.203 68.697-5.056 75.417 44.917-18.502 9.031 19.266-99.413 37.665-10.793-26.202-48.885-20.362z"/><path d="M872.036 497.219l-28.726 76.41 13.433 8.696-1.651 3.964-1.101 2.642 35.673 14.859 30.498 4.951.987-32.149-9.249-3.852-.441-6.385-11.891-4.953-2.201 5.285-7.928-3.302-1.655-33.249 10.899-.112-.666-46.791-19.818-8.255-6.163 22.241zM770.634 468.936l46.695 118.679 11.229-4.626 33.015-116.486-12.885-28.623-78.054 31.056z"/><path d="M973.226 596.734l-41.174 16.96 1.863-75.197-26.431-66.825-23.783-9.906-18.936 4.516-12.334-29.944 33.688-13.877 6.388 18.166 20.036-7.159 60.683 163.266zM936.874 423.446l-16.844 6.938 24.56 67.596 20.036-7.158 6.388 18.165 37.436-15.418 14.3-34.352 3.3-82.353-5.73-8.587-90.384 38.325 6.938 16.844z"/><path d="M951.748 518.017l-7.158-20.036 18.715-7.709 7.709 18.715-19.266 9.03zM918.708 429.834l-6.938-16.844 16.844-6.938 6.938 16.844-16.844 6.938zM906.156 415.303l-18.165 6.388 5.066 17.614 18.716-7.709-5.617-16.293zM879.29 397.911l6.388 18.165 18.165-6.388-6.388-18.165-18.165 6.388zM903.07 389.21l6.387 18.165 18.166-6.387-6.388-18.166-18.165 6.388zM578.851 516.191l6.938 16.844 18.166-6.388-7.709-18.715-17.395 8.259zM593.177 630.69l15.639 40.624 20.587-8.48-16.189-39.303-20.037 7.159zM607.495 670.763l-18.716 7.709-14.868-38.752 17.395-8.259 16.189 39.302zM382.252 790.906l-6.162 22.24c15.525 11.118 28.407 21.135 48.887 38.968 20.48 17.834 54.396 62.969 74.216 89.83l34.248 59.226 18.494-10.9c-7.634-11.449-20.703-39.632-34.247-59.228-28.056-40.59-67.61-87.078-87.869-101.718-6.693-4.836-33.95-30.163-47.567-38.418zM984.169 950.143l-40.958-17.06 64.389-154.584 19.82 8.255c14.2-8.039 24.66-14.536 38.2-32.153 7.26 12.33 16.18 14.494 21.8 18.384l-40.18 96.449-52.503 66.505-10.568 14.204zM880.675 919.438l-7.705 18.497-60.222 10.577 23.778-27.307.109-7.707-9.139-11.559-113.289 3.978-1.547-40.956-33.81-90.055 26.752-12.114c58.28 20.141 177.219 61.412 186.732 65.375 11.891 4.953 29.064-6.499 29.394-11.013.264-3.612 16.62-41.142 24.765-59.456l52.078 20.142-62.187 149.298-33.03-13.758-22.679 6.058z"/><path d="M464.061 851.339l25.877 30.934 62.314-8.155 68.476-30.395 61.222 68.913 26.093-3.086-1.217-45.469-33.59-86.862-35.339 17.84-20.257 3.965-71.23 18.395-82.349 33.92zM1042.4 873.618c-1.39-7.816-3.7-23.868-1.76-25.542 2.42-2.092 8.47 1.981 12.22.439 2.99-1.233-2.21-7.119-5.18-9.908l-.99-5.064c1.95.293 6.58.571 9.58-.662 2.99-1.234 4.84-4.184 5.39-5.506-1.94-.293-5.5-1.672-4.18-4.843 1.32-3.171 6.79-16.295 9.35-22.461l-1.54-3.743c-1.98 2.275-6.47 6.606-8.59 5.726-2.11-.881-6.16-2.568-7.92-3.302l-2.75 6.606-2.76 6.606-8.25 1.212-7.93-3.302-3.85 9.249-10.57-4.403-8.59 5.726-11.997 21.36-1.319 18.056c1.175 4.624 2.248 13.96-2.861 14.313-2.128.147-7.706-.109-12.991-2.31l-6.606-2.752-11.557 27.746 3.963 1.651 1.763 6.936 3.743-1.542c2.994-1.233 7.266-.074 9.028.66l5.505 5.394 1.763 6.936 6.276 7.265 4.955 6.715 2.863 4.294 45.792-61.55zm-85.547-21.678c1.981-8.478-2.753-12.001 2.42-20.699 5.173-8.698 12.439-14.974 14.09-18.938 1.321-3.171-.772-8.074-1.983-10.129-2.679 1.468-8.102 5.308-8.366 8.919-.264 3.611-7.889 12.736-11.668 16.846l-4.403 10.57c-3.229 2.79-10.7 8.567-14.752 9.36-5.064.992-10.128 1.983-12.771.882-2.642-1.1-4.623 7.377-9.908 5.176-5.285-2.201-39.637-16.51-42.058-14.417-1.938 1.673-9.54 16.699-13.099 24.002-1.358 2.019-4.976 5.99-8.587 5.726-3.611-.263-10.166-1.65-12.992-2.31-2.642-1.101-8.147-2.774-9.028-.66-1.1 2.643-4.843 4.185-6.606-2.751-1.41-5.549-1.542-9.945-1.432-11.45-1.798 1.835-5.46 6.408-5.724 10.019-.33 4.514 1.542 3.744-1.981 8.478-3.522 4.735-3.081 11.12-9.137 7.047-6.056-4.072-9.799-2.531-12.112-8.145-1.85-4.492-2.24-10.753-2.203-13.322-1.945-.293-6.32-.461-8.257 1.212-1.938 1.674-7.707-.109-10.35-1.209l-8.036 4.404-4.293 2.863c-1.652-2.238-5.55-6.032-7.928-3.301-2.378 2.73-7.963 5.469-10.458 6.496l-3.852 9.249-3.853 9.249 2.754 12c.404 2.752.309 8.191-3.302 7.927-3.611-.264-10.019.479-12.771.883l2.756 30.606c-.514-1.248.154-3.347 6.936-1.762 6.782 1.584 9.578-.662 10.129-1.983-1.578-1.174-4.405-4.316-3.084-7.486 1.651-3.964 2.201-5.285 7.045-9.47 3.875-3.347 13.211-6.901 17.394-8.259 3.56-1.101 11.582-3.238 15.193-2.974 4.514.329 7.707.109 10.57 4.402 2.291 3.435 2.643 7.303 2.534 8.808 5.1-3.561 16.469-10.506 21.137-9.802 4.668.704 13.835-.955 17.835-1.873 1.174-1.579 4.36-3.766 7.707.109 4.184 4.843 5.947 11.779 6.167 14.972.221 3.193 2.422-2.092 5.945-6.827 2.818-3.787 9.981-10.313 13.21-13.103l10.458-6.497 13.981-11.231 9.908-5.176 19.818 8.255c2.129-.147 6.606-.97 7.487-3.084.88-2.114 5.504-.808 7.706.109l25.104 10.457 12.657-30.389c-.073-1.064-.749-3.413-2.863-4.293-2.114-.881-2.937-5.358-3.084-7.486z"/><path d="M709.142 906.908l1.435 30.056-6.936 1.763-14.313-2.861-12.111-8.146-8.919-8.366-15.855-6.604-9.91-13.431-8.81-16.073-7.927-3.301-9.356 22.46-5.284-2.201-12.33 7.268-16.073 8.81-12.001 2.754-18.497-7.705-5.946-11.78-13.213-5.503-11.45 1.433-11.008 7.818-10.679 3.304-8.364 27.525-13.324-16.402 9.906-23.782 3.961-16.956 6.604-15.855 23.78-8.7 14.092-.332 26.204 7.814 11.45-1.433c1.798-1.835 5.879-5.924 7.816-7.598 2.422-2.092-6.276-7.265-11.561-9.467-5.285-2.201-1.763-6.935-1.433-11.449.33-4.514 11.12 3.081 15.084 4.732l15.855 6.604.88-5.835c2.422-2.093 7.595-7.07 8.916-10.241 1.321-3.17.476-8.587-.111-10.899l2.09-16.185 5.175 9.909 5.617 16.293 7.048 9.137 19.707-2.644c2.385.476 8.521-1.102 13.981-11.232 5.459-10.13 2.349 3.046.111 10.9l2.203 13.321c-.109 1.505.508 9.204 3.857 27.964 4.187 23.45 9.251 22.459 14.206 29.174 3.964 5.372 18.607 6.2 25.433 5.942zM442.589 828.442l16.517 16.182c38.201-13.547 118.987-42.226 129.027-45.486 10.041-3.26 27.083-4.223 34.35-4.298l2.201-5.285-11.013-29.394-171.082 68.281zM659.91 742.21l9.692 28.844-37.21 18.611-9.913-32.037 37.431-15.418zM732.9 712.144l-66.054 28.303 10.242 27.523 29.174-14.206 21.139 8.805 18.711-44.922-13.212-5.503zM977.664 865.259c-.794-4.052-3.854-3.156-5.285-2.201l23.113-55.492 11.668 1.76-2.75 6.606c-.88 2.114-4.99 2.056-6.935 1.763l-3.852 9.248-5.503 13.213-3.853 9.248c1.395 1.615 3.744 5.901 1.983 10.129-1.761 4.228.589 8.514 1.983 10.128l-5.285-2.201c-1.431.955-4.491 1.85-5.284-2.201zM981.509 800.191c1.761-4.228 5.21-5.065 6.715-4.955l-25.865 62.098-1.212-8.257 7.154-17.176-8.587 5.726 5.503-13.212 5.285 2.201 5.394-5.506-.991-5.064 2.201-5.285 4.403-10.57zM976.961 520.767c-3.435 2.29-4.735-3.523-4.955-6.716l39.854-17.51 15.96-38.315 1.97-82.903-27.64-56.477 13.65-6.717 3.3 10.679-6.16 3.634 11.12 21.687 35.01-31.932-7.25 155.127-23.11 55.492-10.46 6.497-.66 9.028c-.55 1.321-2.93 4.052-8.04 4.404-5.11.353-4.92-3.082-4.18-4.843l-12.773.882c-.954-1.431-2.643-4.822-1.762-6.936.88-2.114-2.644-13.505-4.516-18.936-1.689.331-5.923 1.564-9.358 3.855zM1057.66 472.204l-19.82 47.564 4.41 8.037 11.45-1.433 3.3-7.927.66-46.241zM1066.56 350.326l-3.63 68.261 35.68 14.858-.12-66.718-1.99-28.735-29.94 12.334zM1066.12 343.941l1.21-28.956 21.25 19.705-22.46 9.251zM1149.25 386.318l-43.61-18.161 52.19-24.778 11.89 4.953-14.86 35.673 2.64 1.101-20.47 56.592 76.63 31.919-3.85 9.248-18.16 43.601 9.47 7.045-4.4 10.569-7.49 3.084c-1.54 2.459-5.64 7.575-9.69 8.369-4.05.793-5.8-9.652-6.16-14.973-13.14-4.439-38.14-13.405-33.04-13.758 5.11-.353 11.82-8.515 14.54-12.553l-37-15.409 17.5-53.178-5.28-2.202 19.15-57.142z"/><path d="M1097.51 454.694l-13.76 33.031 23.78 9.906 13.76-33.031-23.78-9.906zM982.248 541.574l3.743-1.542 19.379 1.87-3.3 7.927-.44 12.221.11 10.899 9.03.66 13.54.989 6.28 7.266 5.17 9.908-5.5 13.212-30.388 5.949-17.951-46.238.327-23.121zM1057 518.445l1.21 8.257 9.03.66 5.29 2.201-1.66 3.964 4.19 4.843 8.26-1.212 11.55-27.746-13.21-5.503-10.9.112-5.39 5.505-2.76 6.606-5.61 2.313zM1088.83 579.765l-10.03-24.33 17.73-12.774 9.35-22.461 23.79 9.906 21.14 8.805-2.76 6.607 3.97 1.651-3.85 9.248-59.34 23.348zM1077.57 398.327l-4.95 11.891 15.86 6.604 4.95-11.891-15.86-6.604zM1167.21 506.982l3.3 10.679-2.2 5.284 7.93 3.302.44 6.386 5.5 5.394 1.1-2.642-.44-6.386-1.76-6.936 1.65-3.964 3.97 1.651 1.65-3.963-3.97-1.651 4.41-10.57-5.29-2.201-6.39.441-9.9 5.176zM1155.98 548.82l2.86 4.293 3.97 1.651 2.75-6.606-1.76-6.936-5.07.992-2.75 6.606zM1175.91 567.974l-18.71 7.709 5.94 11.78 18.5 7.704-5.73-27.193zM1212.79 553.877l-29.39 11.013-2.2 5.285 7.6 26.422 4.18 4.844 19.81-47.564zM1225.12 528.003l-22.9 2.865-8.15-6.494 17.06-40.958 32.15.986-18.16 43.601zM1170.16 336.111l-9.91 5.176-1.1 2.642 10.57 4.403-12.22 36.774-19.92 55.271 79.28 33.019-3.86 9.248 18.61-.002 82.22-175.063-107.13-55.476.88-5.835-24.11-5.392-13.31 95.235zM1233.48 481.871l10.35 1.21 56.68-136.086-3.96-1.651-63.07 136.527zM1299.42 368.244l-45.13 108.34 59.78-16.962-14.65-91.378zM1372.85 363.17l-60.78-25.315-11.55 27.746 21.04 128.15 51.29-130.581zM1246.91 490.567l-15.95 38.316 25.1 10.456-9.15-48.772zM1230.95 528.883l-7.7 18.497 27.75 11.557 7.15-17.176-27.2-12.878z"/><circle cx="1243.73" cy="546.607" r="4.294" transform="rotate(-67.387 1243.73 546.607)"/><path d="M1348.86 461.71c-2.84 4.971-9.18-2.788-8.7-5.174l-3.96-1.651 56.68-136.086-48.88-20.362-16.74-37.981 15.96-38.316 35.89-19.161 20.15 22.347-9.36 22.461 21.92 66.496c-19.74 48.628-57.24 137.407-62.96 147.427zM1272.53 164.789l-18.5 29.508 87.08-49.004-3.08-7.486-65.5 26.982zM1312.95 294.807l-98.98-48.981 12.1-29.066 10.35 1.209 4.4-10.569 17.95-9.581 54.18 96.988z"/><path d="M1374.72 362.399l-62.1-25.865 13.76-33.03-63.87-107.227 82.57-49.333 34.58 54.714-36.44 20.482-15.96 38.316 15.42 37.431 50.2 20.912-18.16 43.6zM1227.43 552.224l-21.46 51.528 70.03 29.167 21.46-51.528-70.03-29.167zM1195.85 624.341l31.93 90.826 11.9 4.953 32.46-77.953-71.34-29.717-4.95 11.891zM1189.46 624.782l-26.42 63.419 54.18 22.563-27.76-85.982zM1157.2 594.289l-23.12 55.492.56 17.285 14.53 6.053 16.51-21.03 21.91-45.142-9.25-3.853-2.2 5.285-14.54-6.053 2.2-5.285-6.6-2.752zM1131.33 637.781l2.31 5.614 20.92-50.206-5.07.991-10.35-1.21-8.25 19.819 2.64 1.1-7.71 18.497 5.51 5.395zM1135.85 712.536l-6.16 3.634 4.95 6.715-4.95 11.891 76.41 47.332 18.49-48.114-78.83-45.24-.66-9.579-8.59 5.726-.66 9.028 5.51 5.394-5.51 13.213zM1103.26 705.163l-1.1 2.642 1.55 3.743-1.11 2.643 2.65 1.101-1.1 2.642 7.92 3.302-1.65 3.964-2.2 5.285 2.64 1.1-2.2 5.285 1.54 3.743 3.42 2.972 2.31 5.615 1.65-3.964 2.64 1.101 9.36-22.461-6.06-4.073-3.74 1.542-.22-3.193-2.09-2.422 1.65-3.963 1.1-2.643-2.64-1.1 1.1-2.643-2.64-1.1 2.2-5.285-5.29-2.202-4.4 10.57-5.29-2.201zM1097.75 643.95l-10.57-4.402 4.41-10.57-2.65-1.101 2.2-5.285 7.93 3.302-1.1 2.643 2.64 1.1-3.3 7.928 2.64 1.1-2.2 5.285zM961.22 543.669l-7.93-21.908 13.652-6.718-.219 15.414-5.503 13.212z"/><circle cx="957.252" cy="504.805" r="4.294" transform="rotate(-67.387 957.252 504.805)"/><path d="M894.59 368.623l-3.084-7.486 107.999-43.391 3.085 7.486-108 43.391zM753.453 424.57l-2.313-5.615 134.201-54.184 3.634 6.165-135.522 53.634zM572.463 498.026l-3.084-7.487 176.697-70.593 3.083 7.486-176.696 70.594zM630.706 514.533l-13.656-30.495 43.046-17.73 12.555 33.137-41.945 15.088zM762.486 462.442l-18.715 7.709-5.947-11.78-20.587 8.48 5.396 13.101-46.788 19.272-13.326-35.009 87.412-34.911 12.555 33.138zM433.75 570.486l-16.503 95.456 104.377 43.476 25.865-62.098 21.688-11.122-31.607-76.734-103.82 11.022z"/><path d="M539.337 603.613c-2.643-8.544 2.567-12.368 5.503-13.213l1.872-.771 16.189 39.303-11.78 5.946c-2.827-6.862-9.141-22.722-11.784-31.265zM442.46 668.691l-21.14-8.805-2.642-1.1 14.522-86.978 31.928-2.206-22.668 99.089z"/><path d="M550.571 636.2l-11.233-32.587c-.918-4 1.309-16.265 7.595-10.791 6.826 5.945 13.215 24.11 17.84 35.339l-12.33 7.268M459.523 646.34l-5.504 13.212-1.1 2.642 13.212 5.504 2.972-3.414 8.698 5.174-.329 4.514 28.296 10.235 24.323-65.84-5.505-5.394 3.852-9.249-13.983-7.375-8.589-12.88-31.71-13.208-2.417 39.305-6.713 23.562 11.891 4.952 2.422-2.092 10.57 4.403-5.504 13.212-5.064.992-19.818-8.255zM769.422 460.679l-14.648-35.559 75.633-28.965 13.326 35.009-74.311 29.515z"/><circle cx="555.524" cy="624.309" r="2.863" transform="rotate(-67.387 555.524 624.309)"/><path d="M513.92 727.915l-80.595-33.57 7.154-17.176 80.595 33.57-7.154 17.176z"/><path d="M418.018 667.814l-4.511 18.276 19.818 8.255 7.154-17.176-22.461-9.355zM443.572 759.08l-40.958-17.06 9.462-48.773 50.207 20.912-18.711 44.921z"/><path d="M425.291 717.356l-17.176-7.154 3.962-16.955 19.818 8.255-6.604 15.854zM533.843 691.25l-15.959 38.316 39.637 16.509 19.045-12.223-11.013-29.394-31.71-13.208z"/><path d="M551.453 648.971l-16.51 39.637-1.1 2.642 30.388 12.658 14.206 29.173 22.459-9.25-32.599-81.798-16.844 6.938zM467.017 717.681l-18.161 43.601 42.28 17.61 18.16-43.6-42.279-17.611zM401.733 747.856l-11.445 38.645 29.949 24.878 19.812-47.564-38.316-15.959zM444.783 767.338l-19.261 46.243-1.651 3.963 15.855 6.604 38.202-13.546 10.456-25.104-43.601-18.16zM493.449 784.507l-9.906 23.782 36.33-12.776-26.424-11.006z"/><path d="M526.038 791.879l-29.067-12.107 18.16-43.6 38.316 15.959 49.21-21.365 9.472 25.652-86.091 35.461zM449.812 468.645l-3.297 45.14 69.47-6.724-11.343-24.881-46.793-17.94-8.037 4.405zM323.429 533.838l-11.557 27.745 80.595 33.57 4.951-30.497-73.989-30.818zM336.966 497.614l-12.657 30.388 77.952 32.469 4.73-33.69-70.025-29.167zM347 614.976l-50.207-20.913 11.557-27.745 50.206 20.912L347 614.976z"/><path d="M342.374 603.746l-42.279-17.61 8.255-19.818 42.279 17.61-8.255 19.818z"/><circle cx="312.975" cy="577.547" r="4.294" transform="rotate(-67.387 312.975 577.547)"/><path d="M363.07 587.56l-11.556 27.746 33.03 13.758 7.593-29.397-29.067-12.107z"/><path d="M388.615 604.401l-26.425-11.006-10.676 21.911 31.709 13.207 5.392-24.112zM347.991 620.04l-6.053 14.534 38.315 15.959 2.09-16.184-34.352-14.309zM338.965 637.987l-6.054 14.533 44.922 18.711 3.411-15.634-42.279-17.61zM295.692 596.706l-6.053 14.534 48.885 20.361 6.054-14.533-48.886-20.362zM288.537 613.882l-6.603 15.855 47.564 19.811 6.604-15.855-47.565-19.811zM412.385 521.276l-72.667-30.268 7.154-17.176 45.138-15.309 20.375 62.753zM315.06 524.15l-42.279-17.61 73.65-39.094-9.355 22.461-6.606-2.751-15.41 36.994zM291.067 585.477l-75.31-31.369 9.906-23.782 6.606 2.752 33.467-17.069 2.201-5.285 46.243 19.261-23.113 55.492zM172.486 531.434l-4.402 10.57 34.904 31.593 10.456-25.103-40.958-17.06zM348.082 463.483l-31.498-84.441 42.496-16.409 30.397 87.083-41.395 13.767zM321.464 672.559l-48.885-20.361 6.604-15.855 48.885 20.362-6.604 15.854z"/><path d="M305.607 647.349l-6.053 14.534-.55 1.321-27.746-11.557 6.604-15.854 27.745 11.556zM372.671 772.961l-10.569-4.402 16.173-90.942 14.533 6.054-20.137 89.29zM393.688 677.835l-13.212-5.503 22.226-105.475 13.213 5.503-22.227 105.475zM271.478 654.84l-13.208 31.709 84.122 66.048 9.906-23.782 5.06-38.204-85.88-35.771z"/><path d="M283.26 667.5l-10.456 25.103 6.606 2.752-1.651 3.963 34.352 14.309 1.651-3.964 26.425 11.007 14.64-20.26-66.061-27.516 2.201-5.285-3.963-1.651-3.744 1.542zM206.292 584.276l-18.71 44.922 61.219 50.306 12.107-29.066c-7.135-6.693-5.764-18.423-4.186-23.451l-50.43-42.711zM42.717 816.93l66.589-159.868 12.439-14.975-11.343-24.88-49.988-36.326-92.49-75.735-39.31-39.63-34.024-37.429-21.467 14.315-30.389-12.657-3.852 9.248 14.095 18.274-9.467 11.562 1.762 6.936-5.503 13.212 3.086 26.092-19.707 2.645-16.398 50.536 4.955 6.716.882 12.771 12.662 6.824-6.053 14.534-10.238 9.69-14.313-2.861-6.604 15.854-15.855-6.603-3.852 9.248-20.808 5.287-15.302 10.682 15.855 6.603-13.208 31.71-22.461-9.356-21.358 6.609-22.46-9.356-10.459 6.497-19.93-19.154-6.603 15.855-11.446 38.645-4.509 36.883-7.923 33.911-6.272 29.947 30.495-13.656 23.782 9.906 13.761-14.425 4.952-11.891 21.358-6.608 12.551-4.075 37.103 7.702 15.086 23.339 17.29 36.66 18.497 7.704 16.844-6.938c4.366-8.001 16.005-26.513 27.63-36.555 11.625-10.042 24.294-1.251 29.176 4.4 8.368 3.485 27.107 7.88 35.12-2.426 8.014-10.306 17.504-15.966 21.247-17.508l19.819 8.255 13.544 19.595c5.101 2.642 17.705 11.096 27.307 23.778 9.602 12.682 19.855 11.888 23.782 9.905l16.296 12.99 45.908-13.437-30.281-38.971zM129.34 612.691l-10.9.111C45.072 556.919-97.284 436.123-91.65 413.663c5.635-22.461 2.273-29.029-4.517-37.542-6.79-8.514-.891-24.439 19.704-21.252 177.699 27.503 256.421 43.237 303.21 23.965 5.761-.184-3.742 15.496-8.255 19.818-18.054 17.288-184.963-8.822-264.675-23.418-9.028 5.542-25.738 23.079-20.362 48.885 5.376 25.806 136.498 127.659 201.388 175.36l-5.503 13.212zM214.548 564.457l-4.953 11.891c17.837 16.733 29.399 26.2 49.879 44.033 3.698-5.902 15.118-10.241 20.366-11.673l6.054-14.533-71.346-29.718zM260.685 628.638l15.855 6.604-6.053 14.534c-11.891-4.953-12.553-14.532-9.802-21.138zM278.851 629.693l-15.854-6.604c4.322-10.377 16.333-9.434 21.798-7.665l-5.944 14.269zM262.82 651.939l-11.887 28.538 5.765 2.401 11.887-28.538-5.765-2.401zM285.895 612.781l-5.285-2.201 6.604-15.855 5.285 2.202-6.604 15.854zM181.525 625.125l-18.388-15.412 19.262-46.242 18.388 15.411-19.262 46.243zM161.817 609.163l-14.975-12.439 19.812-47.564 14.424 13.76-19.261 46.243zM226.418 401.954l-15.959 38.315 73.989 30.818 13.207-31.709-17.401-47.56-53.836 10.136z"/><path d="M162.028 537.931L89.36 507.663l25.315-60.777 72.668 30.268-25.315 60.777zM83.966 513.168L72.41 540.914l65.183 51.958 20.362-48.885-73.989-30.819zM46.197 458.675l-18.711 44.922 40.96 35.666 25.315-60.776-47.564-19.812zM96.512 471.881l-47.564-19.812 20.362-48.885 53.618 5.278-26.416 63.419zM-5.99 446.241l-10.457 25.103 39.198 28.73 18.16-43.6-35.673-14.859-3.302 7.928-7.927-3.302zM43.663 449.868L9.311 435.559l3.302-7.927-9.249-3.852 13.208-31.71 36.333 5.831-13.208 31.709 10.57 4.403-6.604 15.855zM-45.964 378.426l-12.107 29.067 42.279 17.61 3.302-7.927 9.248 3.852 13.759-33.031-56.481-9.571z"/><path d="M-4.89 443.598l2.201-5.285 5.285 2.201L.395 445.8zM-.488 433.028l2.201-5.285 5.285 2.202-2.201 5.284zM118.005 662.235l114.621 89.605-28.617 68.704L138.608 784l-53.072-43.812 32.469-77.953z"/><path d="M94.561 722.241l-7.154 17.176 24.114 23.998 12.989-16.296-29.949-24.878zM41.569 428.84l14.308-34.352 10.57 4.402-14.308 34.352z"/><path d="M46.854 431.041l2.201-5.285 5.285 2.201-2.201 5.285zM366.838 790.688l-13.871 3.524-210.855-163.798-4.296-15.743 4.403-10.57 229.022 176.017-4.403 10.57zM138.48 642.856l208.872 153.669 11.452 17.174-3.191 18.827-117.923-81.678-119.356-93.127 4.953-11.891 15.193-2.974zM222.281 787.843l-23.116 36.885 141.044 82.005 16.396-69.143-121.116-81.456-13.208 31.709zM411.88 894.724l-74.309 48.121c11.004-45.031 8.912-47.453 29.931-123.972C468.373 865.555 551.07 1066.79 579.81 1161.58h-.001c-17.176-7.16-32.028-13.34-35.784-25.76-26.61-87.99-99.184-197.392-132.145-241.096zM425.927 522.265l-15.634-3.411-15.861-62.423 28.844-9.692c3.121 11.119 14.756 27.853 5.951 48.992-4.843 11.627-5.098 22.167-3.3 26.534zM359.63 361.312l30.947 85.761 30.716-10.463-30.948-85.761-30.715 10.463z"/><path d="M126.052 750.862l-13.21 13.103 28.628 24.328 60.117 34.343 17.06-40.958-59.016-36.986-33.579 6.17zM79.92 742.5l-33.569 80.595 26.097 34.127 15.193-2.975 8.59 12.88 8.368 9.688 9.248 3.852 11.562 9.467 14.424 13.76 6.608 21.358 83.126 23.771 21.358-6.608-51.312-55.483-46.911-84.658-25.544-16.842L79.921 742.5z"/><path d="M152.385 918.426l-12.114-26.752-7.158-20.037 5.503-13.212 3.302-7.928-10.572-23.009 21.355-25.214 51.089 33.683-7.704 18.497 13.212 5.504-6.604 15.854-13.212-5.503 4.407 26.643-41.504 21.474z"/><path d="M80.698 800.191l-3.852 9.248 44.265 46.346 13.98-11.232-4.075-12.55 5.504-13.213-1.435-30.056-42.28-17.61-14.42 23.452 2.313 5.615zM232.031 381.035l-6.604 15.854 164.148-47.912-6.167-14.972-151.377 47.03zM20.804 787.647l-37.437-40.401 46.675-48.778 31.49 28.621-24.213 58.134-16.515 2.424zM79.578 635.376l-43.813 53.072 32.483 33.686 29.718-71.347-18.388-15.411zM-24.232 739.43l-52.412-52.84 59.449-31.054L19.03 687.68l-43.261 51.75zM55.354 619.085L-8.608 649.81l36.997 34.015 41.499-58.687-14.534-6.053zM-21.06 553.146l-62.421 34.468 59.348 51.078 63.521-37.11-60.449-48.436z"/><circle cx="16.161" cy="627.567" r="4.294" transform="rotate(-67.387 16.161 627.567)"/><circle cx="1222.24" cy="356.253" r="37.213" transform="rotate(-67.387 1222.24 356.253)"/><path d="M1206.49 360.548c.88-5.835-1.21-8.257-4.62-11.229h0c4.51.33 9.03.659 11.23-4.626v.001c2.86 4.293 2.86 4.293 4.95 6.715 2.42-2.092 3.52-4.735 3.85-9.249 5.29 2.201 8.92 8.366 7.49 15.523l10.57 4.402-1.65 3.964-10.57-4.402c-5.17 8.698-14.2 8.038-16.84 6.938 2.97-3.414 4.62-7.377 3.85-9.249-3.19.221-5.06.992-8.26 1.212z"/></g></svg>