<svg width="804" height="165" fill="none" xmlns="http://www.w3.org/2000/svg"><path d="M49.5 13.647c-9.49 1.612-16.19 5.52-19.726 11.475l-2.17 3.722v106.692l1.426 2.667c3.35 6.327 9.739 10.669 17.989 12.282 10.11 1.985 18.299 0 24.44-6.017 2.047-1.985 3.846-3.66 3.97-3.66.124 0 .248 1.365.248 3.04 0 5.024 0 5.024 6.265 5.024h5.52V82.5H55.145l.186 7.878.186 7.94 4.528.186 4.528.186-.186 16.376c-.186 15.507-.248 16.438-1.489 18.112-1.116 1.489-1.798 1.737-4.776 1.923-4.218.249-5.83-.558-7.01-3.287-1.302-3.164-1.302-96.085 0-99.248 1.117-2.606 2.606-3.412 6.266-3.412 6.513 0 6.761.682 7.133 19.23l.31 15.197h22.331V29.464l-1.86-3.66c-.993-1.984-2.792-4.404-3.97-5.334-7.01-5.831-20.595-8.684-31.822-6.823zM101.419 16.19c-.186.496-.248 30.457-.186 66.62l.186 65.752 11.29.186 11.351.124.124-30.829.186-30.89 3.412.185c4.032.186 7.195 1.613 8.932 4.032 1.241 1.675 1.303 2.73 1.613 29.464l.31 27.728h22.331l.186-29.03c.124-25.99 0-29.278-.868-31.201-2.357-4.963-6.948-7.754-15.57-9.553-5.831-1.178-5.769-1.303.434-2.481 7.816-1.427 12.406-4.652 15.136-10.545 1.24-2.605 1.302-3.846 1.302-17.989V32.566l-1.736-3.722c-3.102-6.575-7.692-10.049-15.88-11.848-5.955-1.364-42.057-2.047-42.553-.806zm32.628 16.128c4.28 1.426 4.28 1.488 4.28 18.174 0 13.709-.124 15.136-1.241 16.935-1.426 2.357-4.652 3.473-9.49 3.163l-3.226-.186-.186-18.609c-.062-10.235 0-18.92.186-19.353.372-.993 6.762-1.055 9.677-.124zM175.359 15.942c-.248.186-.434 30.208-.434 66.682v66.248l25.928-.124 25.867-.186.186-8.498.186-8.56-14.453-.124-14.453-.187-.186-23.385-.124-23.447 13.46-.124 13.523-.186.186-8.499.186-8.56-13.522-.124-13.523-.186V33.186L212.329 33l14.143-.124-.186-8.56-.186-8.498-25.185-.186c-13.832-.063-25.308.062-25.556.31zM258.045 16.128c0 .558-.992 7.878-2.791 20.47-.559 3.597-2.171 16.003-3.722 27.603-1.489 11.6-3.722 28.348-4.9 37.218-1.179 8.87-2.916 21.711-3.846 28.534-.869 6.823-1.799 13.895-1.923 15.631l-.31 3.288h10.235c9.242 0 10.297-.124 10.545-1.116.186-.559 1.364-8.685 2.667-17.989l2.357-16.872h8.25c7.444 0 8.25.124 8.25 1.054 0 .62.993 8.622 2.171 17.865 1.179 9.18 2.171 16.81 2.171 16.872 0 .124 5.149.186 11.476.186h11.475v-1.737c0-.93-.682-6.699-1.55-12.84-1.551-11.351-3.474-25.68-7.444-55.827a7533.373 7533.373 0 00-3.164-23.261c-.434-3.598-1.736-13.337-2.791-21.71-1.054-8.375-2.171-15.819-2.481-16.625l-.558-1.365h-17.059c-10.607 0-17.058.248-17.058.62zm18.485 33c.434 4.9 1.365 14.887 1.985 22.207.682 7.319 1.303 15.693 1.365 18.609l.186 5.272-5.211.186c-2.853.124-5.458-.062-5.769-.372-.31-.31-.124-4.404.435-9.49.806-7.506 4.652-44.6 4.652-45.097 0-.061.372-.124.806-.124.621 0 .993 2.358 1.551 8.809zM310.15 24.192v8.622l9.801.186 9.739.186.31 57.688.31 57.688h22.951l.186-57.874.124-57.812h20.47v-8.312c0-7.01-.124-8.374-.992-8.684-.558-.186-14.887-.373-31.946-.373H310.15v8.685zM452.819 17.74c-13.026 1.427-21.462 6.638-23.881 14.702-1.427 4.838-1.303 26.983.186 31.51 1.799 5.522 6.327 11.663 16.066 21.96 10.421 11.04 14.453 16.003 16.872 20.469 1.551 3.04 1.613 3.35 1.613 14.64 0 12.964-.248 13.708-4.342 14.39-3.846.621-6.514-.186-7.816-2.295-1.055-1.736-1.179-3.287-1.179-17.616V99.868h-22.393l.187 17.803.186 17.865 1.86 3.349c4.405 7.94 13.213 11.848 26.984 11.848 11.041 0 18.236-2.295 23.943-7.568 4.714-4.342 5.211-6.637 5.211-24.129 0-11.786-.186-15.322-.931-17.121-2.047-4.776-8.746-13.15-22.827-28.1-3.349-3.597-7.505-8.56-9.18-11.103l-3.102-4.652.186-10.98c.186-10.358.248-11.165 1.489-12.405 1.675-1.613 6.327-2.233 8.87-1.24 2.916 1.24 3.164 2.604 3.164 18.36v14.577h22.393l-.186-16.934c-.186-15.88-.248-16.996-1.551-19.354-2.978-5.52-8.622-9.49-15.818-11.103-4.28-.992-12.592-1.613-16.004-1.24zM592.635 17.989c-10.545 1.488-16.996 5.024-20.47 11.351l-1.799 3.226-.186 50.492c-.186 57.812-.434 54.4 5.087 59.921 6.141 6.017 13.15 8.064 26.114 7.568 4.839-.186 9.367-.745 11.29-1.365 4.466-1.365 10.359-5.396 12.22-8.188 3.598-5.583 3.536-4.094 3.349-57.874l-.186-49.314-1.488-3.287c-2.668-5.893-9.243-10.36-17.431-11.91-4.714-.869-12.53-1.179-16.5-.62zm10.297 15.693c.869.434 1.861 1.737 2.295 2.916 1.055 3.101 1.055 92.424 0 95.526-.868 2.605-4.094 3.97-7.877 3.35-5.025-.807-4.653 3.039-4.839-50.68-.186-51.856-.31-49.871 3.164-51.298 1.985-.806 5.458-.744 7.257.186zM496.675 20.284c-.248.186-.434 3.97-.434 8.374v7.94h19.849v111.654h22.331l.124-55.703.186-55.641 9.801-.186 9.739-.186V19.85H527.69c-16.872 0-30.829.186-31.015.434zM642.321 20.594c-.186.434-.248 29.278-.186 64.077l.186 63.271 9.181.186 9.118.186-.124-54.649c-.124-30.022 0-54.586.186-54.586s1.055 5.086 1.985 11.29c1.675 11.475 6.575 42.49 10.607 66.868 1.241 7.319 2.854 17.244 3.66 22.02l1.365 8.685 16.624.186 16.562.124V19.787l-9.118.187-9.181.186L693 44.66c-.062 13.461.124 37.9.434 54.277.31 16.81.31 30.022 0 30.332-.372.373-.558.187-.558-.372 0-2.791-2.729-26.114-3.97-34.612-2.295-14.95-7.506-45.468-10.297-60.108-1.365-7.32-2.481-13.522-2.481-13.77 0-.31-7.568-.559-16.748-.559-12.841 0-16.872.186-17.059.745zM725.442 21.214c-.186.806-.248 29.589-.186 64.077l.186 62.651 25.308.186 25.308.124-.186-8.188-.186-8.25-13.771-.186-13.832-.124V86.222h26.052V69.474h-26.052V36.598h27.355l-.186-8.25-.186-8.188-24.626-.186-24.688-.125-.31 1.365z" fill="white"/></svg>