<?xml version="1.0" encoding="utf-8"?><svg xmlns="http://www.w3.org/2000/svg" xmlns:xlink="http://www.w3.org/1999/xlink"><symbol viewBox="0 0 50 50" id="area-download" xmlns="http://www.w3.org/2000/svg"><g clip-path="url(#aclip0_1613_17942)"><path d="M14.697.137c-.83.263-1.562.81-2.05 1.562-.655.967-.635.733-.635 8.526v7.06h-8.37l-.595.293c-.664.342-1.123.8-1.426 1.455-.205.45-.205.527-.205 8.31 0 7.481.01 7.882.186 8.34.224.587.722 1.153 1.318 1.505l.45.263 4.325.03 4.317.029v4.668c0 4.297.01 4.707.185 5.215.332 1.015 1.055 1.816 2.06 2.304l.538.254h30.957l.586-.273c.664-.313 1.426-1.006 1.738-1.582.537-.996.498.146.537-17.48.02-11.348 0-16.417-.078-16.67-.078-.274-1.504-1.817-6.62-7.13L35.39.05 25.244.029C17.304.02 15 .04 14.697.137zm18.428 8.261l.03 6.446.273.263.263.274 6.446.03 6.445.019-.02 15.654-.029 15.654-.273.42c-.195.283-.43.489-.782.654l-.507.235h-14.6c-10.4 0-14.717-.03-14.99-.107-.508-.147-1.162-.801-1.309-1.31-.068-.263-.107-1.864-.107-4.765V37.5h17.041l.508-.234a3.008 3.008 0 001.494-1.592c.195-.527.195-.664.176-8.408l-.03-7.881-.224-.45c-.313-.634-.938-1.22-1.553-1.454-.508-.186-.771-.196-8.965-.196h-8.447v-6.767c0-4.522.039-6.885.107-7.14.137-.487.713-1.103 1.211-1.278.322-.118 1.846-.137 9.102-.147h8.72l.02 6.445zm6.836-.664c2.598 2.706 4.873 5.079 5.049 5.274l.322.37H35.156V8.106c0-2.9.02-5.273.04-5.273.019 0 2.157 2.207 4.765 4.902zm-9.482 11.602c.205.059.439.215.537.371.175.254.185.645.215 7.5.029 8.018.038 7.871-.567 8.164-.322.166-1.162.176-13.36.176-14.228 0-13.515.03-13.779-.547-.078-.176-.107-2.324-.107-7.656V19.94l.244-.302c.137-.157.352-.313.469-.332.488-.098 26.006-.069 26.347.029z"/><path d="M7.031 27.578v4.16H8.79V28.73l1.25-.068c1.465-.078 2.09-.224 2.578-.635.567-.468.801-1.064.801-2.05 0-.918-.166-1.387-.693-1.866-.635-.595-.752-.615-3.32-.654l-2.374-.039v4.16zm4.092-2.422c.518.303.645.928.303 1.475-.235.39-.655.517-1.778.517H8.79v-2.275l1.025.059c.713.039 1.114.107 1.31.224zm3.623 2.432v4.16l2.275-.03c2.256-.029 2.266-.029 2.823-.302 1.054-.518 1.65-1.504 1.845-3.018.196-1.591-.195-3.164-1.005-4.003-.81-.83-1.045-.899-3.663-.938l-2.275-.039v4.17zm4.15-2.432c.762.371 1.084 1.28 1.006 2.842-.039.684-.107 1.006-.283 1.357-.38.762-.596.86-1.953.909l-1.162.029v-5.42l1.006.049c.722.03 1.113.098 1.386.234zm4.151 2.432v4.15h1.758v-3.515h3.515v-1.465h-3.515v-1.856h4.004v-1.465h-5.762v4.15z"/></g><defs><clipPath id="aclip0_1613_17942"><path d="M0 0h50v50H0z"/></clipPath></defs></symbol><symbol viewBox="0 0 20 21" id="close" xmlns="http://www.w3.org/2000/svg"><path fill-rule="evenodd" clip-rule="evenodd" d="M15.301 17.093a.483.483 0 00.707 0 .544.544 0 000-.742l-5.3-5.565 5.3-5.566a.544.544 0 000-.742.483.483 0 00-.707 0L10 10.044 4.7 4.478a.483.483 0 00-.707 0 .543.543 0 000 .742l5.3 5.566-5.3 5.565a.543.543 0 000 .742.483.483 0 00.707 0l5.3-5.565 5.301 5.565z"/><path fill-rule="evenodd" clip-rule="evenodd" d="M4.564 4.62a.297.297 0 00-.435 0 .334.334 0 000 .457l5.437 5.708-5.437 5.709a.334.334 0 000 .456c.12.126.315.126.435 0L10 11.242l5.437 5.708c.12.126.315.126.435 0a.334.334 0 000-.456l-5.437-5.709 5.437-5.708a.334.334 0 000-.457.297.297 0 00-.435 0L10 10.33 4.564 4.62zm-.707-.285a.669.669 0 01.979 0L10 9.758l5.165-5.423a.669.669 0 01.979 0c.27.284.27.744 0 1.028l-5.165 5.422 5.165 5.423c.27.284.27.744 0 1.028a.669.669 0 01-.979 0L10 11.813l-5.164 5.423a.669.669 0 01-.979 0 .753.753 0 010-1.028l5.165-5.423-5.165-5.422a.753.753 0 010-1.028z"/></symbol><symbol viewBox="0 0 16 16" id="cross" xmlns="http://www.w3.org/2000/svg"><path fill-rule="evenodd" clip-rule="evenodd" d="M15.074 1.865a.625.625 0 10-.884-.884L8 7.171 1.81.981a.625.625 0 00-.884.884l6.19 6.19L.981 14.19a.625.625 0 00.884.884L8 8.939l6.135 6.135a.625.625 0 10.884-.884L8.884 8.055l6.19-6.19z"/></symbol><symbol viewBox="0 0 31 30" id="fb" xmlns="http://www.w3.org/2000/svg"><path d="M19.284 15.875h-2.636v7.875h-3.516v-7.875h-2.848v-3.27h2.848v-2.46c0-.938.176-1.735.527-2.39a3.453 3.453 0 011.477-1.477c.656-.352 1.406-.528 2.25-.528.375 0 .773.024 1.195.07.422.024.75.06.984.106l.352.035V8.74h-1.406c-.656 0-1.137.175-1.442.527-.28.328-.421.738-.421 1.23v2.11h3.128l-.492 3.27z"/></symbol><symbol viewBox="0 0 31 30" id="ig" xmlns="http://www.w3.org/2000/svg"><path d="M12.628 11.903c.797-.797 1.758-1.196 2.883-1.196s2.074.399 2.847 1.196c.797.773 1.196 1.722 1.196 2.847s-.399 2.086-1.196 2.883c-.773.774-1.722 1.16-2.847 1.16s-2.086-.386-2.883-1.16c-.774-.797-1.16-1.758-1.16-2.883s.386-2.074 1.16-2.847zm1.02 4.71a2.54 2.54 0 001.863.774 2.54 2.54 0 001.863-.774 2.54 2.54 0 00.774-1.863 2.54 2.54 0 00-.774-1.863 2.54 2.54 0 00-1.863-.774 2.54 2.54 0 00-1.863.774 2.54 2.54 0 00-.774 1.863c0 .727.258 1.348.774 1.863zM20.361 9.9a.803.803 0 01.282.633c0 .257-.094.48-.282.668a.803.803 0 01-.632.28.913.913 0 01-.669-.28.913.913 0 01-.28-.668c0-.258.093-.47.28-.633a.913.913 0 01.669-.282c.257 0 .468.094.632.282zm2.989 1.617c.023.633.035 1.71.035 3.234s-.012 2.602-.035 3.235c-.07 1.43-.504 2.543-1.301 3.34-.774.773-1.875 1.183-3.305 1.23-.633.047-1.71.07-3.234.07s-2.602-.023-3.235-.07c-1.43-.07-2.53-.492-3.304-1.266a3.392 3.392 0 01-.739-.984 5.771 5.771 0 01-.421-1.09 6.337 6.337 0 01-.106-1.23c-.047-.633-.07-1.711-.07-3.235 0-1.523.023-2.613.07-3.27.07-1.405.492-2.495 1.266-3.269.773-.797 1.875-1.23 3.304-1.3a98.496 98.496 0 013.235-.036c1.523 0 2.601.012 3.234.035 1.43.07 2.531.504 3.305 1.301.797.774 1.23 1.875 1.3 3.305zm-1.688 7.875c.07-.188.129-.422.176-.703.047-.305.082-.656.105-1.055.024-.422.036-.762.036-1.02v-3.726c0-.258-.012-.586-.036-.984a9.962 9.962 0 00-.105-1.055 3.812 3.812 0 00-.176-.738 2.538 2.538 0 00-1.512-1.512 3.81 3.81 0 00-.738-.176 9.949 9.949 0 00-1.055-.105 17.371 17.371 0 00-.984-.036h-3.726c-.257 0-.597.012-1.02.036-.398.023-.75.058-1.054.105a3.83 3.83 0 00-.703.176 2.537 2.537 0 00-1.512 1.512 3.81 3.81 0 00-.175.738 9.949 9.949 0 00-.106 1.055c-.023.398-.035.726-.035.984v4.219c.023.351.047.656.07.914a9.327 9.327 0 00.246 1.37c.305.727.809 1.231 1.512 1.513.188.07.422.129.703.175.305.047.656.082 1.055.106.422.023.75.035.984.035h3.762c.258 0 .586-.012.984-.035a9.962 9.962 0 001.055-.106c.305-.046.55-.105.738-.175.727-.305 1.23-.809 1.512-1.512z"/></symbol><symbol viewBox="0 0 31 30" id="in" xmlns="http://www.w3.org/2000/svg"><path d="M11.116 21.5V10.988h-3.27V21.5h3.27zM9.464 9.582c1.055 0 1.898-.879 1.898-1.934 0-1.02-.843-1.863-1.898-1.863-1.02 0-1.863.844-1.863 1.863 0 1.055.843 1.934 1.863 1.934zM23.35 21.5v-5.766c0-2.812-.633-4.992-3.938-4.992-1.582 0-2.637.88-3.094 1.688h-.035v-1.442h-3.129V21.5h3.27v-5.203c0-1.371.246-2.672 1.933-2.672 1.688 0 1.723 1.547 1.723 2.777V21.5h3.27z"/></symbol><symbol viewBox="0 0 20 20" id="menu" xmlns="http://www.w3.org/2000/svg"><path stroke="#00A9E5" stroke-width="1.5" d="M1.667 4.25h16.666M1.667 10.084h16.666M1.667 15.916h16.666"/></symbol><symbol viewBox="0 0 50 50" id="rent-catalog-utp-1" xmlns="http://www.w3.org/2000/svg"><g clip-path="url(#hclip0_106_1018)"><path d="M2.293 2.283c-.39.39-.39.87 0 1.299l.283.322h2.676l.283-.322c.39-.43.39-.908 0-1.299L5.252 2H2.576l-.283.283zm5.762 0c-.381.39-.39.87 0 1.299.273.303.302.312 1.21.351 1.25.059 1.749-.029 2.061-.341.371-.362.352-.918-.03-1.309L11.015 2H8.338l-.283.283zm5.82-.049c-.469.47-.43 1.084.078 1.465.225.166.45.215 1.152.244 1.192.04 1.68-.039 1.983-.351.37-.362.351-.918-.03-1.309L16.775 2h-1.338c-1.27 0-1.337.01-1.562.234zm5.781 0c-.478.44-.449 1.084.059 1.465.205.147.459.205 1.143.234 1.68.079 2.246-.166 2.246-.957 0-.322-.059-.468-.284-.693L22.537 2H21.22c-1.25 0-1.319.01-1.563.234zm5.879-.088c-.566.303-.596 1.153-.058 1.553.224.166.449.205 1.269.234 1.611.06 2.139-.195 2.139-1.025 0-.283-.069-.42-.303-.635C28.279 2 28.26 2 27.029 2c-.879.01-1.318.049-1.494.146zm5.781-.009c-.263.146-.488.508-.498.79 0 .372.362.811.752.919.479.137 1.924.137 2.402 0a.908.908 0 00.372-1.572C34.04 2 34.02 2 32.79 2c-.84.01-1.318.049-1.475.137zm5.782-.02c-.557.264-.518-1.308-.518 23.906 0 25.342-.039 23.643.547 23.917.176.078 1.982.107 6.299.107h6.064l.283-.283.284-.284V2.566l-.284-.283L49.49 2l-6.093.01c-4.083 0-6.153.039-6.3.107zm11.005 23.906v22.07h-9.57V3.954h9.57v22.07zM8.367 5.906c-.127.059-1.172 1.035-2.314 2.178l-2.09 2.07v.46c0 .38.049.488.303.702.195.166.41.254.644.254.322 0 .469-.117 1.611-1.24l1.25-1.24v8.652l.284.283a.938.938 0 001.523-.253c.127-.274.146-.928.146-4.454v-4.12l1.211 1.18c1.143 1.124 1.23 1.192 1.612 1.192.586 0 .937-.341.937-.918v-.449l-2.148-2.148C9.099 5.818 8.914 5.682 8.367 5.906zM2.293 20.545l-.283.283V31.22l.283.283.283.283h12.227l.312-.283.322-.283V20.828l-.322-.283-.312-.283H2.576l-.283.283zm11.24 5.478v3.809h-9.57v-7.617h9.57v3.808zm-5.478 7.999l-.284.283v8.652l-1.25-1.24c-1.142-1.123-1.289-1.24-1.611-1.24a.979.979 0 00-.644.253c-.254.215-.303.323-.303.704v.449l2.08 2.08c1.142 1.133 2.207 2.119 2.363 2.178.147.058.39.078.537.048.156-.039 1.035-.84 2.393-2.197l2.148-2.148v-.45c0-.576-.351-.917-.937-.917-.381 0-.469.068-1.612 1.19l-1.21 1.183v-4.122c0-3.525-.02-4.18-.147-4.453a.938.938 0 00-1.523-.253zm-5.332 14.14c-.118.02-.332.176-.47.332-.34.42-.331.899.04 1.27l.283.283h2.676l.283-.283c.39-.391.39-.87 0-1.3l-.283-.321-1.162-.02c-.635-.01-1.25.01-1.367.04zm5.761 0c-.117.02-.332.176-.468.332-.342.42-.332.899.039 1.27l.283.283h2.676l.283-.283c.556-.557.273-1.455-.508-1.612-.332-.068-1.953-.058-2.305.01zm5.674.068c-.361.157-.625.498-.625.82 0 .303.254.772.479.9.107.048.771.097 1.474.097h1.29l.282-.283c.557-.557.274-1.455-.507-1.612-.557-.107-2.08-.058-2.393.078zm5.879-.039c-.8.244-.977 1.153-.313 1.68.166.147.42.176 1.504.176h1.309l.283-.283c.527-.537.332-1.367-.38-1.573-.43-.117-2.003-.117-2.403 0zm5.762 0c-.596.186-.87.733-.645 1.28.205.478.528.576 1.895.576 1.201 0 1.23-.01 1.533-.274a.908.908 0 00-.371-1.572c-.44-.127-2.012-.127-2.412-.01zm5.703.029a.99.99 0 00-.518.44c-.166.283-.175.381-.078.713.176.576.45.674 1.904.674 1.202 0 1.231-.01 1.534-.274a.908.908 0 00-.371-1.572c-.498-.136-2.041-.127-2.471.02z"/></g><defs><clipPath id="hclip0_106_1018"><path d="M0 0h50v50H0z"/></clipPath></defs></symbol><symbol viewBox="0 0 51 50" id="rent-catalog-utp-2" xmlns="http://www.w3.org/2000/svg"><g clip-path="url(#iclip0_106_1057)"><path d="M33.513.293c-.564.156-8.046 2.168-16.618 4.482C7.145 7.393 1.22 9.033 1.104 9.141c-.244.214-.253.83-.01 1.035.087.088.564.351 1.05.595 1.246.625 2.774 1.68 3.717 2.56.438.41.798.78.798.82 0 .039-.457.185-1.021.331-1.878.489-1.849.44-1.372 2.227l.33 1.26-.408.107c-1.927.508-2.072.576-2.16.918-.068.264 1.635 6.797 1.868 7.149.224.351.516.351 1.693.039.613-.166 1.11-.293 1.119-.274.01.01.136.479.282 1.045.38 1.426.477 1.631.808 1.7.194.038 2.88-.635 9.155-2.325 4.894-1.318 8.97-2.422 9.078-2.451.175-.059.185.02.185 2.285 0 2.54.087 3.408.447 4.658.224.782.224.84.088 1.377-.662 2.559.905 5.381 3.444 6.192.886.283 2.364.293 3.152.02l.565-.196.749.195c.681.186 1.11.205 4.904.235l4.154.039.03 4.365.029 4.365.32.654c.351.723.935 1.3 1.655 1.66.428.206.593.225 2.54.255 1.848.029 2.091.01 2.256-.137.175-.166.185-.576.185-15.176 0-14.414-.01-15.02-.175-15.166-.155-.146-.447-.166-2.12-.166-1.8 0-1.976.02-2.492.234-.71.293-1.245.723-1.615 1.309-.584.908-.603 1.113-.603 6.63v5.01h-6.791l-.117-.468c-.438-1.758-2.121-3.36-3.911-3.73l-.565-.108v-3.027c0-1.66.02-3.018.04-3.018.116 0 7.725-2.07 7.92-2.148.525-.235.583.048-2.132-10.147-1.4-5.244-2.607-9.61-2.695-9.707-.214-.234-.759-.205-1.965.127zm1.226 2.393c.165.625.272 1.142.243 1.162-.03.02-5.157 1.406-11.393 3.086A4452.87 4452.87 0 009.209 10.8l-3.046.82-.7-.527a18.01 18.01 0 00-1.275-.88c-.35-.204-.516-.36-.438-.39.078-.03 2.52-.683 5.439-1.465 2.919-.78 9.768-2.627 15.227-4.101 5.458-1.475 9.943-2.676 9.973-2.686.029-.01.184.498.35 1.114zm1.148 4.267C38.173 15.527 39.039 18.81 39 18.838c-.038.049-4.553 1.28-4.563 1.25-.506-.977-1.333-1.924-2.101-2.422-.866-.557-1.752-.8-2.91-.8-.856 0-1.138.038-1.731.243-.925.332-1.547.743-2.209 1.465-.915.986-1.382 2.149-1.43 3.545l-.03.781-5.575 1.504c-3.064.83-5.594 1.485-5.614 1.455-.029-.029-.097-.644-.145-1.377-.302-4.248-1.82-7.88-4.603-11.035-.32-.361-.564-.674-.544-.683.02-.02 1.391-.391 3.055-.84 1.664-.44 7.88-2.11 13.816-3.711a1801.92 1801.92 0 0110.907-2.93c.058-.01.31.733.564 1.67zM8.362 16.182c1.206 1.699 2.296 4.414 2.675 6.64.195 1.104.302 3.37.176 3.496-.078.078-2.618.762-2.666.713-.059-.068-2.948-10.957-2.92-10.996.05-.039 1.918-.586 2.073-.595.068-.01.36.332.662.742zm22.417 2.363a4.164 4.164 0 011.76 1.299c.215.263.39.527.39.566 0 .108.01.108-4.086 1.211-1.849.498-3.377.86-3.386.82-.088-.195.204-1.425.447-1.923.506-1.036 1.625-1.924 2.744-2.159.584-.117 1.567-.039 2.13.186zm-25.774.947c0 .03.282 1.113.633 2.422.35 1.299.632 2.412.632 2.47 0 .098-1.245.489-1.304.41-.068-.107-1.333-5-1.284-5.038.136-.137 1.323-.381 1.323-.264zm44.367 15.176v13.965h-1.1c-1.721 0-2.451-.332-2.899-1.319-.175-.37-.185-.986-.185-12.627 0-13.398-.029-12.607.565-13.232.554-.586 1.031-.723 2.578-.742l1.041-.01v13.965zM30.886 25.43v2.87l-.35.07c-.565.097-1.304.468-1.966.976-.34.254-.632.44-.652.42-.146-.137-.243-1.72-.243-3.858v-2.46l.418-.118c.224-.058.935-.254 1.577-.43a35.113 35.113 0 011.196-.332c.01-.01.02 1.28.02 2.862zM33.328 30c2.393 1.104 2.958 4.228 1.1 6.065-1.49 1.474-3.746 1.474-5.235 0-2.004-1.993-1.177-5.342 1.547-6.25.642-.206 1.936-.118 2.588.185zm10.401 5.596v1.611h-3.717c-2.053 0-3.882-.03-4.086-.059l-.35-.058.418-.576a5.105 5.105 0 00.885-2.002c.03-.205.088-.41.107-.46.02-.038 1.547-.068 3.396-.068h3.347v1.612z"/></g><defs><clipPath id="iclip0_106_1057"><path transform="translate(.919)" d="M0 0h49.816v50H0z"/></clipPath></defs></symbol><symbol viewBox="0 0 51 50" id="rent-catalog-utp-3" xmlns="http://www.w3.org/2000/svg"><path d="M25.38.176c-.098.097-1.47 1.963-3.046 4.14l-2.851 3.965-5.04 2.94c-2.773 1.62-5.108 3.027-5.196 3.125-.136.146-.155.449-.155 2.05 0 1.856 0 1.875.243 2.11.263.273.409.293.759.137.38-.176.457-.489.457-1.846v-1.27h8.562v4.766l-4.952 2.89c-2.724 1.592-4.982 2.96-5.01 3.047-.03.088-.06.977-.06 1.993 0 1.64.02 1.855.176 2.06.263.322.759.293 1.06-.049.214-.254.224-.341.224-1.582v-1.308h8.562v4.99l-.73 2.383c-.398 1.308-.73 2.51-.73 2.676 0 .595.74.927 1.159.507.097-.097.311-.615.476-1.142.166-.537.428-1.416.604-1.973.165-.547.33-.996.37-.996.038 0 1.07 1.006 2.286 2.227l2.218 2.226-4.193 4.18c-2.306 2.305-4.213 4.16-4.233 4.14-.02-.019.4-1.474.944-3.232.886-2.89.963-3.222.856-3.476-.155-.391-.593-.547-.982-.352-.224.127-.321.283-.526.957-2.354 7.666-2.685 8.818-2.588 9.082a.7.7 0 00.817.42c.146-.03 2.443-2.236 5.566-5.332 2.919-2.9 5.351-5.273 5.4-5.273.048 0 2.48 2.373 5.41 5.273 3.259 3.242 5.409 5.303 5.565 5.342.32.078.71-.137.817-.469.068-.205-.428-1.943-2.5-8.71l-2.579-8.468v-4.98h8.562v1.308c0 1.24.01 1.328.224 1.582.301.342.798.371 1.06.05.156-.206.176-.43.176-2.1 0-1.358-.03-1.924-.117-2.032-.068-.088-1.567-1.006-3.337-2.03-1.761-1.026-3.97-2.315-4.885-2.852l-1.683-.987v-4.756h8.562v1.27c0 1.357.078 1.67.457 1.846.35.156.497.136.76-.137.243-.235.243-.244.243-2.129 0-1.836-.01-1.894-.215-2.09-.194-.176-6.781-4.062-9.252-5.459l-.856-.478-2.93-4.053C27.696 2.07 26.314.195 26.227.127c-.224-.176-.623-.156-.847.049zm2.684 4.902l2.15 2.979-2.597.049c-2.578.048-2.588.048-2.773.283-.253.312-.234.654.058.937l.234.244 2.462.01h2.461l-2.092 2.05c-1.148 1.124-2.111 2.042-2.14 2.042-.03 0-.993-.918-2.14-2.041l-2.093-2.05h.604c.525-.01.622-.04.797-.265.253-.322.263-.634.02-.927-.156-.196-.302-.244-.876-.283l-.7-.05 2.17-3.007c1.186-1.65 2.198-2.988 2.237-2.979.04.02 1.032 1.368 2.218 3.008zm-8.95 7.08v1.905h-3.28c-1.8 0-3.25-.02-3.23-.04.088-.097 6.363-3.76 6.441-3.769.04 0 .068.86.068 1.904zm16.666-.078c1.722.996 3.172 1.856 3.22 1.904.059.04-1.371.079-3.181.079H32.54v-1.905c0-1.045.03-1.904.059-1.904.029 0 1.459.82 3.181 1.826zm-13.086.645l2.062 2.07-2.091 2.1-2.092 2.1v-4.18c0-2.295.01-4.17.029-4.17.01 0 .953.937 2.092 2.08zm8.387 2.09v4.18l-2.092-2.1-2.092-2.1 2.063-2.07a168.21 168.21 0 012.091-2.08c.02 0 .03 1.875.03 4.17zm-3.162 3.056l2.043 2.05h-8.27l2.043-2.05c1.119-1.133 2.063-2.05 2.092-2.05.029 0 .973.917 2.092 2.05zm.038 5.518c-1.109 1.103-2.062 2.002-2.13 2.002-.059 0-1.012-.899-2.121-2.002l-2.014-1.992 4.135-.01h4.135l-2.005 2.002zm-8.873 2.46c-.02.02-1.498.02-3.288.01l-3.25-.029 3.26-1.904 3.259-1.904.029 1.894c.01 1.045.01 1.914-.01 1.934zm17.766-1.347c1.216.713 2.209 1.318 2.209 1.338 0 .02-1.47.039-3.26.039H32.54v-3.896l1.05.605c.575.342 2.034 1.201 3.26 1.914zm-14.156-.059l2.062 2.07-2.091 2.1-2.092 2.1v-4.18c0-2.295.01-4.17.029-4.17.01 0 .953.938 2.092 2.08zm8.387 2.09v4.18l-2.092-2.1-2.092-2.1 2.063-2.07a168.21 168.21 0 012.091-2.08c.02 0 .03 1.875.03 4.17zm-3.065 3.154l2.043 2.051h-8.465l2.053-2.05c1.129-1.133 2.112-2.051 2.18-2.051.077 0 1.06.918 2.189 2.05zm-.175 5.538l-2.014 2.03-2.014-2.03-2.024-2.022h8.075l-2.023 2.022zm3.882-.586c.146.478 1.012 3.34 1.946 6.377.924 3.037 1.664 5.527 1.644 5.547-.02.02-1.926-1.846-4.232-4.141l-4.194-4.18 2.219-2.226c1.216-1.221 2.247-2.227 2.286-2.227.039 0 .185.381.33.85z"/></symbol><symbol viewBox="0 0 51 50" id="rent-catalog-utp-4" xmlns="http://www.w3.org/2000/svg"><g clip-path="url(#kclip0_106_1117)"><path d="M10.26.127c-.477.156-1.295.996-1.44 1.494-.088.313-.117 4.834-.117 19.707v19.297H6.61c-2.102 0-2.102 0-2.335.244l-.244.234v3.438c0 2.412.04 3.555.117 3.838.156.537.963 1.348 1.499 1.504.583.176 35.104.176 35.688 0 .535-.156 1.342-.967 1.498-1.504.088-.313.117-4.834.117-19.707V9.375h2.092c2.101 0 2.101 0 2.335-.244l.243-.235V5.46c0-2.373-.039-3.555-.117-3.818-.058-.215-.301-.606-.535-.86-.759-.85.934-.781-18.846-.771-12.483.01-17.62.039-17.864.117zm31.193 1.65c-.03.127-.059 10.567-.059 23.204v22.978l-.243.234c-.224.235-.302.245-1.314.245s-1.09-.01-1.313-.245l-.243-.234v-6.856l-.244-.234-.233-.244H10.259V2.041l.244-.234.233-.244h30.775l-.059.214zm4.368.03l.243.234v5.771h-3.113v-5.77l.243-.234c.224-.235.302-.244 1.314-.244 1.011 0 1.09.01 1.313.244zm-9.097 43.28c0 1.602.03 3.009.058 3.126l.059.224H6.066l-.234-.244-.243-.234v-5.772h31.135v2.9z"/><path d="M15.63 10.81l.03.665 1.245.029 1.235.03v6.434h1.46v-6.446h2.53v-1.367H15.6l.03.654zm8.834-.439c-.058.127-.73 1.885-1.498 3.916l-1.401 3.691.798-.029.788-.03.34-.946.34-.957h2.736l.35.947.35.957.789.03.788.029-.195-.518c-.107-.283-.778-2.041-1.479-3.916l-1.284-3.389h-.662c-.593 0-.671.02-.759.215zm1.294 3.086l.526 1.484h-2.18l.545-1.504c.302-.83.555-1.503.564-1.484.01.01.263.684.545 1.504zm4.457-1.347c.759 1.074 1.352 2.011 1.323 2.08-.049.117-1.45 2.158-2.277 3.31l-.34.469h1.673l.895-1.367c.496-.752.925-1.358.954-1.358.029 0 .457.606.953 1.358l.895 1.367h.779c.428 0 .778-.02.778-.05 0-.028-.584-.898-1.304-1.923l-1.313-1.865.311-.45c.166-.243.779-1.122 1.353-1.943.574-.82 1.05-1.513 1.05-1.543 0-.02-.36-.039-.797-.039h-.808l-.924 1.416c-.506.782-.954 1.416-.983 1.416-.03 0-.477-.634-.992-1.416l-.944-1.416h-1.645l1.363 1.953zM19.065 22.9a.763.763 0 00-.244.538c0 .185.088.39.244.537l.233.244h13.057l.234-.244c.321-.313.321-.762 0-1.075l-.234-.244H19.298l-.233.244zm-3.892 3.907a.763.763 0 00-.243.537c0 .185.087.39.243.537l.233.244h20.841l.234-.244a.763.763 0 00.243-.537.763.763 0 00-.243-.537l-.234-.244h-20.84l-.234.244zm0 3.125a.763.763 0 00-.243.537c0 .185.087.39.243.537l.233.244h20.841l.234-.244a.763.763 0 00.243-.537.763.763 0 00-.243-.537l-.234-.244h-20.84l-.234.244zm0 3.125a.763.763 0 00-.243.537c0 .185.087.39.243.537l.233.244h20.841l.234-.244a.763.763 0 00.243-.537.763.763 0 00-.243-.537l-.234-.245h-20.84l-.234.245zm0 3.125a.763.763 0 00-.243.537c0 .185.087.39.243.537l.233.244h20.841l.234-.244a.763.763 0 00.243-.537.763.763 0 00-.243-.537l-.234-.245h-20.84l-.234.245z"/></g><defs><clipPath id="kclip0_106_1117"><path transform="translate(.919)" d="M0 0h49.816v50H0z"/></clipPath></defs></symbol><symbol viewBox="0 0 51 50" id="rent-catalog-utp-5" xmlns="http://www.w3.org/2000/svg"><g clip-path="url(#lclip0_106_1137)"><path d="M13.658.283l-.282.283v8.916l.244.235c.155.166.34.244.583.244a.749.749 0 00.584-.244l.243-.235V5.088c0-3.018-.029-4.473-.107-4.629-.233-.508-.846-.586-1.265-.176zm8.018.176c-2.55 2.08-4.768 4.004-4.885 4.229-.078.156-.107.38-.068.517.04.166.934.977 2.744 2.5 2.442 2.041 2.724 2.256 3.055 2.256.467 0 .778-.322.778-.8 0-.401-.184-.597-2.218-2.276l-1.177-.977 6.08-.03c3.338-.009 8.806-.009 12.143 0l6.081.03-1.177.977c-2.043 1.69-2.218 1.875-2.218 2.285 0 .478.32.79.797.79.312 0 .633-.243 3.026-2.245 2.832-2.363 2.949-2.49 2.686-3.027-.117-.225-2.335-2.149-4.885-4.229-.651-.537-1.011-.596-1.381-.215a.819.819 0 00-.02 1.152c.117.137.896.811 1.723 1.495l1.508 1.26-6.11.029c-3.357.01-8.845.01-12.201 0l-6.11-.03 1.508-1.26c.826-.683 1.605-1.357 1.731-1.494a.828.828 0 00-.029-1.152c-.37-.38-.73-.322-1.381.215zM49.512.117c-.409.195-.428.381-.428 4.97v4.395l.243.235c.156.166.34.244.584.244a.749.749 0 00.584-.244l.243-.235V.566l-.282-.283c-.292-.293-.584-.342-.944-.166zM1.205 12.783c-.409.42-.33 1.035.175 1.27.156.078 1.606.107 4.612.107h4.378l.234-.244a.816.816 0 000-1.172l-.234-.244H1.487l-.282.283zm14.535-.146c-.856.273-1.712 1.045-2.101 1.894l-.214.46V47.51l.214.459c.292.644 1.022 1.396 1.673 1.709l.545.273h32.4l.545-.273c.651-.313 1.381-1.065 1.673-1.71l.214-.458V14.99l-.263-.537a3.723 3.723 0 00-1.624-1.64l-.545-.264-16.054-.02c-13.028-.01-16.132.01-16.463.108zm31.982 1.601c0 .04-3.523 3.604-7.833 7.93l-7.832 7.861-7.832-7.861c-4.31-4.326-7.833-7.89-7.833-7.93 0-.048 7.054-.078 15.665-.078 8.62 0 15.665.03 15.665.078zm-24.713 9.15l7.832 7.862-7.832 7.861c-4.31 4.327-7.862 7.862-7.901 7.862-.049 0-.078-7.08-.078-15.723 0-8.652.03-15.723.078-15.723.039 0 3.59 3.536 7.9 7.862zm26.075 7.862c0 8.643-.03 15.723-.078 15.723-.039 0-3.59-3.535-7.9-7.862l-7.833-7.861 7.832-7.861c4.31-4.326 7.862-7.862 7.9-7.862.05 0 .079 7.07.079 15.723zm-9.175 9.102c4.3 4.316 7.813 7.87 7.813 7.91 0 .048-7.045.078-15.665.078-8.61 0-15.665-.03-15.665-.069 0-.087 15.587-15.752 15.665-15.752.03 0 3.561 3.526 7.852 7.833zM5.534 15.947c-.175.098-2.393 2.705-4.154 4.883-.535.654-.594 1.016-.214 1.387a.811.811 0 001.148.02c.136-.118.807-.9 1.488-1.73l1.256-1.513.029 6.133c.01 3.37.01 8.877 0 12.246l-.03 6.133-1.255-1.514c-.68-.83-1.352-1.611-1.488-1.728a.811.811 0 00-1.148.02c-.38.37-.321.732.214 1.386 2.072 2.558 3.989 4.785 4.213 4.902.535.264.661.147 3.016-2.695 2.033-2.442 2.238-2.725 2.238-3.057 0-.468-.321-.781-.798-.781-.4 0-.594.186-2.267 2.227l-.973 1.181-.03-6.103c-.01-3.35-.01-8.838 0-12.188l.03-6.103 1.206 1.465c1.586 1.914 1.615 1.943 2.053 1.943.467 0 .779-.322.779-.8 0-.313-.244-.636-2.228-3.028-2.374-2.871-2.53-3.008-3.085-2.686zM1.35 48.457c-.233.108-.428.469-.428.771 0 .108.127.332.283.489l.282.283h8.883l.233-.244a.816.816 0 000-1.172l-.233-.244-4.408.01c-2.821 0-4.485.039-4.612.107z"/></g><defs><clipPath id="lclip0_106_1137"><path transform="translate(.922)" d="M0 0h49.816v50H0z"/></clipPath></defs></symbol><symbol viewBox="0 0 51 50" id="rent-catalog-utp-6" xmlns="http://www.w3.org/2000/svg"><path d="M16.13.205a2.285 2.285 0 00-1.07 1.133c-.108.254-.127 2.11-.127 10.088 0 9.463.01 9.785.185 10.146.253.489.885 1.045 1.342 1.172.234.069 1.878.108 4.486.108h4.106v22.46H23.32c-1.216 0-1.878.04-2.2.137-1.04.313-1.614 1.143-1.614 2.324v.664h-.973c-.847 0-1.002.03-1.168.196-.262.264-.262.908 0 1.172.195.195.321.195 8.465.195s8.27 0 8.465-.195c.262-.264.262-.908 0-1.172-.166-.166-.321-.196-1.158-.196h-.963l-.03-.771c-.038-.674-.077-.83-.33-1.201a2.45 2.45 0 00-1.304-.957c-.195-.049-1.148-.098-2.121-.098h-1.78V22.96l4.26-.03c4.146-.029 4.263-.038 4.642-.243a2.78 2.78 0 00.652-.489c.593-.615.564-.078.564-10.8.01-6.104-.03-9.893-.087-10.05-.146-.4-.701-.976-1.13-1.161C35.142.01 34.607 0 25.83 0c-9.253 0-9.292 0-9.7.205zm18.836 1.592l.204.185v9.415c0 9.277 0 9.404-.194 9.6-.195.194-.321.194-9.088.194-8.61 0-8.902-.01-9.116-.185l-.234-.186-.02-9.267c-.019-7.315 0-9.307.098-9.502.253-.508-.03-.489 9.37-.46 8.474.02 8.786.03 8.98.206zm-4.68 45.469c.165.156.214.312.214.683v.489h-9.34v-.489c0-.37.048-.527.214-.683.204-.186.32-.196 4.456-.196 4.135 0 4.252.01 4.456.196z"/><path d="M21.715 5.254c-.146.166-.166.762-.166 6.543v6.357l.214.205a.87.87 0 00.564.196.877.877 0 00.565-.196c.204-.195.214-.263.214-2.441v-2.246h1.488c1.684 0 2.55-.147 3.289-.557.71-.38 1.46-1.181 1.849-1.953.32-.644.33-.693.33-1.836 0-1.123-.01-1.201-.31-1.806-.312-.655-1.08-1.504-1.665-1.856a5.403 5.403 0 00-.895-.39c-.515-.176-.837-.196-2.948-.196-2.18 0-2.384.02-2.53.176zm5.098 1.65a2.813 2.813 0 011.41 1.358c.224.459.254.615.215 1.25-.03.625-.078.781-.36 1.2-.39.577-1.06 1.056-1.664 1.192-.243.059-1.08.108-1.868.108h-1.44V6.61l1.634.05c1.363.038 1.693.077 2.073.243z"/></symbol><symbol viewBox="0 0 48 50" id="rent-download" xmlns="http://www.w3.org/2000/svg"><path d="M13.697.137c-.83.263-1.562.81-2.05 1.562-.655.967-.635.733-.635 8.526v7.06h-8.37l-.595.293c-.664.342-1.123.8-1.426 1.455-.205.45-.205.527-.205 8.31 0 7.481.01 7.882.186 8.34.224.587.722 1.153 1.318 1.505l.45.263 4.325.03 4.317.029v4.668c0 4.297.01 4.707.185 5.215.332 1.015 1.055 1.816 2.06 2.304l.538.254h30.957l.586-.273c.664-.313 1.426-1.006 1.738-1.582.537-.996.498.146.537-17.48.02-11.348 0-16.417-.078-16.67-.078-.274-1.504-1.817-6.62-7.13L34.39.05 24.244.029C16.304.02 14 .04 13.697.137zm18.428 8.261l.03 6.446.273.263.263.274 6.446.03 6.445.019-.02 15.654-.029 15.654-.273.42c-.195.283-.43.489-.782.654l-.507.235h-14.6c-10.4 0-14.717-.03-14.99-.107-.508-.147-1.162-.801-1.309-1.31-.068-.263-.107-1.864-.107-4.765V37.5h17.041l.508-.234a3.008 3.008 0 001.494-1.592c.195-.527.195-.664.176-8.408l-.03-7.881-.224-.45c-.313-.634-.938-1.22-1.553-1.454-.508-.186-.771-.196-8.965-.196h-8.447v-6.767c0-4.522.039-6.885.107-7.14.137-.487.713-1.103 1.211-1.278.322-.118 1.846-.137 9.102-.147h8.72l.02 6.445zm6.836-.664c2.598 2.706 4.873 5.079 5.049 5.274l.322.37H34.156V8.106c0-2.9.02-5.273.04-5.273.019 0 2.157 2.207 4.765 4.902zm-9.482 11.602c.205.059.439.215.537.371.175.254.185.645.215 7.5.029 8.018.038 7.871-.567 8.164-.322.166-1.162.176-13.36.176-14.228 0-13.515.03-13.779-.547-.078-.176-.107-2.324-.107-7.656V19.94l.244-.302c.137-.157.352-.313.469-.332.488-.098 26.006-.069 26.348.029z"/><path d="M6.031 27.578v4.16H7.79V28.73l1.25-.068c1.465-.078 2.09-.224 2.578-.635.567-.468.801-1.064.801-2.05 0-.918-.166-1.387-.693-1.866-.635-.595-.752-.615-3.32-.654l-2.374-.039v4.16zm4.092-2.422c.518.303.645.928.303 1.475-.235.39-.655.517-1.778.517H7.79v-2.275l1.025.059c.713.039 1.114.107 1.31.224zm3.623 2.432v4.16l2.275-.03c2.256-.029 2.266-.029 2.823-.302 1.054-.518 1.65-1.504 1.845-3.018.196-1.591-.195-3.164-1.005-4.003-.81-.83-1.045-.899-3.663-.938l-2.275-.039v4.17zm4.15-2.432c.762.371 1.084 1.28 1.006 2.842-.039.684-.107 1.006-.283 1.357-.38.762-.596.86-1.953.909l-1.162.029v-5.42l1.006.049c.722.03 1.113.098 1.386.234zm4.151 2.432v4.15h1.758v-3.515h3.515v-1.465h-3.515v-1.856h4.004v-1.465h-5.762v4.15z"/></symbol><symbol viewBox="0 0 19 20" id="search" xmlns="http://www.w3.org/2000/svg"><path clip-rule="evenodd" d="M13.196 12.903c1.253-1.314 2.035-3.076 2.035-5.014 0-4.07-3.412-7.39-7.618-7.39C3.412.5 0 3.82 0 7.89c0 4.067 3.412 7.387 7.613 7.387a7.726 7.726 0 004.56-1.47l5.663 5.494c.14.133.312.2.484.2a.68.68 0 00.483-.2.667.667 0 000-.947l-5.607-5.45zM1.378 7.89c0-3.333 2.79-6.052 6.235-6.052 3.436 0 6.238 2.708 6.238 6.052 0 3.34-2.791 6.051-6.238 6.051-3.444 0-6.235-2.72-6.235-6.051z"/></symbol><symbol viewBox="0 0 15 15" id="slam" xmlns="http://www.w3.org/2000/svg"><g clip-path="url(#pclip0)"><path fill-rule="evenodd" clip-rule="evenodd" d="M6.804 14.612c3.746 0 6.803-3.157 6.803-7.025a.217.217 0 00-.216-.224H7.209V7.35h.039V1.428h-.039v-.63a.217.217 0 00-.216-.223H6.79C3.057.562 0 3.718 0 7.587c0 3.868 3.057 7.025 6.804 7.025zm5.924-6.16c-.135.992-.5 1.9-1.028 2.682a.212.212 0 01-.297.056 4.307 4.307 0 01-1.867-2.724c-.027-.14.081-.279.216-.279h2.76c.135 0 .23.126.216.266zm-5.302-.265h1.028a.22.22 0 01.216.196c.23 1.41 1.015 2.64 2.11 3.408a.22.22 0 01.027.349 5.857 5.857 0 01-3.368 1.564.216.216 0 01-.243-.224V8.425c.013-.126.122-.238.23-.238zm-6.33 0h2.813c.135 0 .244.14.216.28a4.287 4.287 0 01-1.907 2.75c-.094.057-.23.043-.297-.055a6.204 6.204 0 01-1.042-2.71c-.013-.14.081-.265.217-.265zm5.058 5.53a5.803 5.803 0 01-3.34-1.55c-.109-.097-.095-.279.026-.349a5.129 5.129 0 002.138-3.435.221.221 0 01.216-.196h.987c.122 0 .217.098.217.224v5.083c0 .14-.122.238-.244.224zM6.398 1.68v5.447a.217.217 0 01-.217.223h-.933c-.108 0-.203-.084-.216-.21a5.161 5.161 0 00-2.15-3.826.235.235 0 01-.028-.363 5.854 5.854 0 013.3-1.509c.122-.014.244.098.244.238zm-4.14 2.234a4.316 4.316 0 011.935 3.185c.014.14-.081.251-.216.251H1.055c-.135 0-.23-.112-.216-.251a6.26 6.26 0 011.121-3.13.212.212 0 01.298-.056zm8.669 2.528a.311.311 0 01-.311-.321c0-1.271-1.015-2.305-2.273-2.305a.311.311 0 01-.31-.321.31.31 0 01.31-.321c1.597 0 2.882 1.312 2.882 2.933.013.195-.122.335-.298.335zM9.06 6.385a.32.32 0 01-.203-.321.433.433 0 00-.46-.447.262.262 0 01-.256-.21c-.054-.223.108-.419.297-.405a1.05 1.05 0 01.987 1.117c-.027.182-.19.322-.365.266zm3.504-.266c0 .182.135.322.31.322.177 0 .312-.14.298-.322 0-2.849-2.164-5.167-4.829-5.167a.311.311 0 00-.31.321.31.31 0 00.31.321c2.327 0 4.22 2.025 4.22 4.525z"/></g><defs><clipPath id="pclip0"><path transform="translate(0 .562)" d="M0 0h14.009v14.05H0z"/></clipPath></defs></symbol><symbol viewBox="0 0 31 30" id="tw" xmlns="http://www.w3.org/2000/svg"><path d="M22.612 11.094c.024.094.036.246.036.457a10.49 10.49 0 01-.704 3.727 11.797 11.797 0 01-2.004 3.375c-.843 1.007-1.945 1.828-3.304 2.46-1.36.633-2.86.95-4.5.95-2.063 0-3.95-.551-5.66-1.653.257.024.55.036.878.036 1.711 0 3.247-.528 4.606-1.583-.82 0-1.547-.234-2.18-.703a3.814 3.814 0 01-1.265-1.828c.234.024.457.035.668.035.328 0 .656-.035.984-.105a3.586 3.586 0 01-1.512-.703 3.908 3.908 0 01-1.054-1.266 3.644 3.644 0 01-.387-1.652v-.07a3.476 3.476 0 001.652.492c-1.101-.75-1.652-1.782-1.652-3.094 0-.656.176-1.277.527-1.863a10.235 10.235 0 007.594 3.867 5.12 5.12 0 01-.07-.844 3.61 3.61 0 011.054-2.601c.727-.727 1.594-1.09 2.602-1.09 1.078 0 1.98.386 2.707 1.16a7.51 7.51 0 002.355-.879c-.28.867-.82 1.547-1.617 2.04a7.93 7.93 0 002.11-.599 8.114 8.114 0 01-1.864 1.934z"/></symbol><symbol viewBox="0 0 31 30" id="ut" xmlns="http://www.w3.org/2000/svg"><path d="M24.686 10.11c.07.28.13.632.176 1.054.07.422.118.844.14 1.266.024.398.036.773.036 1.125.023.351.035.645.035.879v.316c0 2.11-.129 3.668-.387 4.676-.117.399-.328.75-.632 1.055a2.437 2.437 0 01-1.09.632c-.445.118-1.29.212-2.531.282-1.243.047-2.38.082-3.41.105h-1.547c-4.008 0-6.504-.129-7.489-.387-.914-.257-1.488-.82-1.722-1.687-.118-.445-.211-1.055-.282-1.828a134.89 134.89 0 01-.105-2.004v-.844c0-2.086.129-3.633.387-4.64.117-.422.328-.786.632-1.09a2.437 2.437 0 011.09-.633c.446-.117 1.29-.2 2.532-.246a101.59 101.59 0 013.41-.14h1.547c4.007 0 6.504.128 7.488.386.422.117.785.328 1.09.633.304.304.515.668.633 1.09zm-11.18 7.523l5.028-2.883-5.027-2.847v5.73z"/></symbol></svg>