<svg width="50" height="50" fill="none" xmlns="http://www.w3.org/2000/svg"><g clip-path="url(#clip0_1768_16165)" fill="white"><path d="M.762.205a1.4 1.4 0 00-.567.576C0 1.162 0 1.31 0 25c0 23.701 0 23.838.195 24.219.127.254.332.459.586.586.381.195.518.195 7.412.175 6.973-.029 7.032-.029 7.305-.234.488-.361.654-.771.693-1.719.03-.468.069-.859.088-.859.03 0 .293.068.596.156.4.117.781.147 1.475.117 1.084-.058 1.699-.273 2.558-.869l.557-.39.644.44c1.66 1.142 3.828 1.132 5.498-.01.42-.284.694-.41.772-.362 1.28.947 1.963 1.201 3.174 1.211 1.22 0 2.216-.332 3.076-1.035l.4-.323.225.225c.293.322 1.191.791 1.894.986.899.264 2.256.166 3.086-.205.352-.156.82-.43 1.055-.595.225-.176.43-.323.45-.323.019 0 .322.196.683.44 1.152.771 2.646 1.035 3.926.693 1.25-.332 2.558-1.347 3.086-2.412.37-.732.595-1.68.547-2.295-.079-.927-.762-1.494-1.66-1.377-.753.098-1.124.518-1.25 1.416-.167 1.221-.84 1.875-1.924 1.875-1.016 0-1.729-.664-1.885-1.748-.147-1.045-.664-1.572-1.543-1.572-.772 0-1.27.566-1.475 1.7-.185 1.015-.879 1.62-1.865 1.62-1.055 0-1.758-.674-1.914-1.836-.117-.908-.684-1.484-1.465-1.484-.762 0-1.377.615-1.465 1.465-.078.722-.43 1.299-.976 1.62-.381.226-.518.255-1.065.216-.517-.03-.693-.088-.996-.342-.498-.4-.684-.742-.8-1.484-.06-.342-.167-.723-.255-.86-.38-.586-1.25-.781-1.904-.44-.4.216-.781.88-.781 1.358 0 .488-.215.918-.664 1.319-.44.4-.87.517-1.543.439-.86-.088-1.465-.742-1.602-1.719-.049-.332-.166-.742-.264-.908-.36-.615-1.328-.85-1.953-.469-.439.264-.605.567-.722 1.28-.117.742-.303 1.084-.801 1.484-.303.254-.479.312-.996.342-.547.039-.684.01-1.065-.215a2.022 2.022 0 01-.693-.684c-.244-.41-.244-.43-.244-2.724v-2.305l.42.146c1.357.489 3.164.167 4.394-.78l.47-.362.36.312c.518.46 1.495.88 2.325.997 1.279.185 2.802-.225 3.672-.997l.36-.312.46.352c.635.488 1.103.712 1.865.888 1.319.313 2.676.04 3.877-.79l.605-.411.342.273c1.72 1.368 4.22 1.397 5.967.059l.46-.352.37.303c.508.4 1.182.733 1.856.908 2.627.684 5.488-1.21 5.908-3.916.137-.869.049-1.318-.322-1.748-.899-1.025-2.52-.342-2.53 1.055 0 .176-.088.488-.185.703-.46.996-1.582 1.397-2.55.908-.634-.332-.966-.81-1.073-1.533-.05-.332-.166-.742-.264-.918-.39-.654-1.338-.889-1.992-.478-.44.273-.576.508-.684 1.23-.205 1.26-.986 1.973-2.07 1.885-1.006-.088-1.65-.742-1.787-1.826-.117-.967-.635-1.494-1.455-1.494-.801 0-1.358.527-1.475 1.396-.127.977-.478 1.484-1.23 1.797-1.114.469-2.412-.293-2.569-1.484-.107-.811-.156-.928-.517-1.29-.498-.498-.957-.576-1.563-.273-.586.293-.79.596-.898 1.318-.04.323-.147.713-.225.87-.44.85-1.504 1.23-2.392.869-.723-.313-1.065-.801-1.192-1.739-.107-.722-.312-1.025-.898-1.318-.537-.273-1.016-.225-1.455.146-.381.323-.498.567-.586 1.182-.04.283-.157.674-.264.88-.39.751-1.406 1.171-2.217.898-.39-.127-.957-.586-1.152-.919-.088-.156-.127-4.11-.166-17.05-.049-16.621-.049-16.846-.244-17.178a2.29 2.29 0 00-.469-.537c-.273-.205-.332-.205-7.324-.225C1.309.01 1.114.01.762.205zm12.52 4.19v1.464h-2.999c-1.738 0-3.154.04-3.369.098-.469.137-.918.654-1.006 1.162-.049.313-.02.498.147.83.38.801.312.781 3.955.84l3.222.049v2.93l-1.386.048c-1.201.04-1.416.079-1.66.254-.86.635-.772 1.875.175 2.432.274.156.557.195 1.631.225l1.299.039-.03 1.435-.029 1.426-3.222.049c-3.643.058-3.574.039-3.955.84-.166.332-.196.517-.147.83.088.508.537 1.025 1.006 1.162.215.058 1.63.098 3.37.098h2.997V23.535h-1.279c-1.436 0-1.797.098-2.168.625-.303.42-.303 1.26 0 1.68.371.527.732.625 2.168.625h1.28v2.93h-2.999c-1.738 0-3.154.039-3.369.097-.469.137-.918.654-1.006 1.162-.049.313-.02.498.147.83.38.801.312.782 3.955.84l3.222.05V35.302l-1.386.049c-1.201.039-1.416.078-1.66.254-.86.634-.772 1.874.175 2.431.274.156.557.195 1.631.225l1.299.039-.03 1.435-.029 1.426-3.222.049c-3.643.059-3.574.039-3.955.84-.166.332-.196.517-.147.83.088.508.537 1.025 1.006 1.162.215.059 1.63.098 3.37.098h2.997V47.07H2.93V2.93H13.28v1.465z"/><path d="M33.203.176c-.225.107-.928.86-1.982 2.119-2.432 2.9-2.51 3.008-2.51 3.545 0 .83.625 1.484 1.416 1.484.557 0 .928-.244 1.602-1.054l.595-.713.02 8.476c.029 8.028.039 8.496.205 8.77.283.449.635.664 1.181.703.567.049.997-.166 1.3-.625.165-.244.175-.781.224-8.809l.049-8.545.664.791c.664.801.976 1.006 1.553 1.006 1.054 0 1.787-1.21 1.27-2.09-.118-.195-1.085-1.396-2.16-2.675C34.64.166 34.454 0 33.8 0c-.137 0-.41.078-.596.176zM23.779 6.69c-.215.078-.4.146-.41.146-.059 0-3.877 4.648-4.033 4.902-.371.606-.205 1.367.39 1.875.244.205.41.254.81.254.655 0 .968-.195 1.632-1.015l.537-.665.049 8.438c.048 8.232.048 8.438.244 8.77.263.459.957.81 1.416.732.508-.098.869-.313 1.074-.664.186-.303.195-.557.195-8.79 0-4.657.04-8.466.078-8.466.04 0 .332.313.645.684.693.85.986 1.015 1.69.957 1.113-.098 1.67-1.27 1.035-2.198-.645-.927-3.975-4.804-4.21-4.902-.488-.186-.751-.205-1.142-.059zM42.92 6.69c-.215.078-.4.146-.41.146-.069 0-3.985 4.756-4.092 4.97-.313.596-.069 1.514.498 1.866.38.234 1.103.264 1.504.058.146-.078.527-.459.85-.85l.575-.702.05 8.486.048 8.486.234.332c.303.42.977.733 1.407.645.478-.107.908-.41 1.084-.771.136-.294.156-1.231.156-8.819v-8.476l.37.439c.91 1.104 1.124 1.29 1.602 1.338.254.03.567.03.704-.01.38-.098.83-.527.947-.937.224-.733.127-.909-2.022-3.496-1.103-1.329-2.119-2.48-2.265-2.579-.4-.244-.81-.283-1.24-.127z"/></g><defs><clipPath id="clip0_1768_16165"><path fill="white" d="M0 0h50v50H0z"/></clipPath></defs></svg>