<svg width="100" height="100" fill="none" xmlns="http://www.w3.org/2000/svg"><g clip-path="url(#clip0_2102_18286)" fill="white"><path d="M95.313 6.25h-4.688a4.693 4.693 0 00-4.688 4.688v4.687h-6.25V12.5a1.563 1.563 0 00-3.124 0v3.125h-6.25V12.5a1.563 1.563 0 00-3.126 0v3.125h-6.25V12.5a1.563 1.563 0 00-3.124 0v3.125h-6.25V12.5a1.563 1.563 0 00-3.126 0v3.125h-6.25V12.5a1.563 1.563 0 00-3.124 0v3.125h-6.25V12.5a1.563 1.563 0 00-3.126 0v3.125h-6.25V12.5a1.563 1.563 0 00-3.125 0v3.125h-6.25v-4.688A4.693 4.693 0 009.375 6.25H4.687A4.693 4.693 0 000 10.938v65.624c0 .863.7 1.563 1.563 1.563 5.526 0 5.632 3.125 12.108 3.125 6.405 0 6.635-3.125 12.11-3.125 5.483 0 5.652 3.125 12.109 3.125 6.395 0 6.685-3.125 12.109-3.125 5.483 0 5.652 3.125 12.109 3.125 6.395 0 6.691-3.125 12.11-3.125 5.483 0 5.652 3.125 12.11 3.125 6.4 0 6.642-3.125 12.11-3.125.863 0 1.562-.7 1.562-1.563V10.939a4.693 4.693 0 00-4.688-4.688zm-9.376 12.5V25H14.064v-6.25h71.874zM3.126 75.073V10.938c0-.862.701-1.563 1.563-1.563h4.687c.861 0 1.563.701 1.563 1.563v66.88c-2.642-.678-3.823-2.364-7.813-2.745zM43.75 50.15c-2.074.424-2.318 1.413-4.297 1.413-2.268 0-2.59-1.562-5.86-1.562-3.265 0-3.592 1.563-5.859 1.563-1.956 0-2.225-.99-4.297-1.414v-2.493c0-5.6 4.557-10.156 10.157-10.156S43.75 42.056 43.75 47.656v2.493zm-5.86 27.976c-5.484 0-5.652-3.125-12.11-3.125-1.428 0-2.57.163-3.533.412l1.102-22.04c.81.321 1.598 1 3.213 1.234v6.331a1.563 1.563 0 003.125 0v-6.49c1.803-.49 2.059-1.322 3.906-1.322 2.323 0 2.55 1.563 5.86 1.563 2.442 0 3.4-.925 4.386-1.316l1.126 22.538c-2.429.992-3.434 2.215-7.075 2.215zm10.164-3.01c-1.37-27.409-1.179-22.296-1.179-27.459 0-7.323-5.958-13.281-13.281-13.281-7.324 0-13.282 5.958-13.282 13.281 0 5.143.202-.17-1.259 29.058-1.681.871-2.799 1.35-4.99 1.405V28.125h71.874v49.994c-2.382-.06-3.578-.675-4.948-1.383-.065-.033.02 1.218-1.302-25.214v-3.866c0-7.323-5.957-13.281-13.28-13.281-7.324 0-13.282 5.958-13.282 13.281 0 5.129.197-.067-1.18 27.459a16.508 16.508 0 00-3.89 0zm12.493-23.552c-1.966 0-2.217-.989-4.297-1.414v-2.493c0-5.6 4.556-10.156 10.156-10.156 5.6 0 10.156 4.556 10.156 10.156v2.493c-2.073.424-2.318 1.413-4.296 1.413-2.323 0-2.55-1.562-5.86-1.562-3.262 0-3.593 1.563-5.859 1.563zm1.56 26.562c-3.64 0-4.645-1.222-7.072-2.213l1.127-22.54c.812.322 1.597 1 3.213 1.234v6.331a1.563 1.563 0 003.125 0v-6.49c1.8-.49 2.06-1.322 3.907-1.322 2.322 0 2.55 1.563 5.859 1.563 2.44 0 3.397-.924 4.385-1.316l1.102 22.04c-.964-.248-2.106-.412-3.536-.412-6.395 0-6.685 3.125-12.11 3.125zm26.956-.307v-66.88c0-.862.7-1.563 1.562-1.563h4.688c.861 0 1.562.701 1.562 1.563v64.135c-3.933.375-5.258 2.089-7.813 2.745zM98.438 87.5c-6.396 0-6.686 3.125-12.11 3.125-5.485 0-5.653-3.125-12.11-3.125-6.396 0-6.687 3.125-12.11 3.125-5.484 0-5.652-3.125-12.11-3.125-6.395 0-6.69 3.125-12.108 3.125-5.484 0-5.652-3.125-12.11-3.125-6.395 0-6.69 3.125-12.109 3.125-5.483 0-5.651-3.125-12.108-3.125a1.563 1.563 0 000 3.125c5.483 0 5.651 3.125 12.108 3.125 6.395 0 6.686-3.125 12.11-3.125 5.483 0 5.652 3.125 12.109 3.125 6.395 0 6.685-3.125 12.109-3.125 5.483 0 5.652 3.125 12.109 3.125 6.395 0 6.691-3.125 12.11-3.125 5.483 0 5.652 3.125 12.11 3.125 6.395 0 6.685-3.125 12.11-3.125a1.562 1.562 0 100-3.125z"/><path d="M32.813 64.063c-.863 0-1.563.7-1.563 1.562v6.25a1.563 1.563 0 003.125 0v-6.25c0-.863-.7-1.563-1.563-1.563zM39.063 57.813c-.863 0-1.563.7-1.563 1.562v4.688a1.563 1.563 0 003.125 0v-4.688c0-.863-.7-1.563-1.563-1.563zM65.625 64.063c-.863 0-1.563.7-1.563 1.562v6.25a1.563 1.563 0 003.126 0v-6.25c0-.863-.7-1.563-1.563-1.563zM71.875 57.813c-.863 0-1.563.7-1.563 1.562v4.688a1.563 1.563 0 003.126 0v-4.688c0-.863-.7-1.563-1.563-1.563z"/></g><defs><clipPath id="clip0_2102_18286"><path fill="white" d="M0 0h100v100H0z"/></clipPath></defs></svg>