<svg width="80" height="80" fill="none" xmlns="http://www.w3.org/2000/svg"><path d="M39.281.281c-.156.157-2.36 3.141-4.89 6.625l-4.579 6.344-8.093 4.703c-4.454 2.594-8.204 4.844-8.344 5-.219.235-.25.719-.25 3.282 0 2.968 0 3 .39 3.375.422.437.657.468 1.22.218.609-.281.734-.781.734-2.953v-2.031h13.75v7.625l-7.954 4.625c-4.375 2.547-8 4.734-8.046 4.875-.047.14-.094 1.562-.094 3.187 0 2.625.031 2.97.281 3.297.422.516 1.219.469 1.703-.078.344-.406.36-.547.36-2.531V43.75h13.75v7.984l-1.172 3.813c-.64 2.094-1.172 4.016-1.172 4.281 0 .953 1.187 1.485 1.86.813.155-.157.5-.985.765-1.828.265-.86.687-2.266.969-3.157.265-.875.53-1.593.593-1.593.063 0 1.72 1.609 3.672 3.562l3.563 3.563-6.735 6.687c-3.703 3.688-6.765 6.656-6.797 6.625-.03-.031.641-2.36 1.516-5.172 1.422-4.625 1.547-5.156 1.375-5.562-.25-.625-.953-.875-1.578-.563-.36.203-.516.453-.844 1.531-3.781 12.266-4.312 14.11-4.156 14.532.203.515.781.812 1.313.672.234-.047 3.921-3.579 8.937-8.532 4.688-4.64 8.594-8.437 8.672-8.437.078 0 3.984 3.797 8.687 8.437 5.235 5.188 8.688 8.485 8.938 8.547.516.125 1.14-.219 1.312-.75.11-.328-.687-3.11-4.015-13.937l-4.14-13.547V43.75H64.53v2.094c0 1.984.016 2.125.36 2.531.484.547 1.28.594 1.703.078.25-.328.28-.687.28-3.36 0-2.171-.046-3.077-.187-3.25-.109-.14-2.515-1.609-5.359-3.25-2.828-1.64-6.375-3.702-7.844-4.562l-2.703-1.578v-7.609h13.75v2.031c0 2.172.125 2.672.734 2.953.563.25.797.219 1.22-.218.39-.375.39-.391.39-3.407 0-2.937-.016-3.031-.344-3.343-.312-.282-10.89-6.5-14.86-8.735l-1.374-.765-4.703-6.485C43 3.313 40.78.313 40.64.203c-.36-.281-1-.25-1.36.078zm4.313 7.844l3.453 4.766-4.172.078c-4.14.078-4.156.078-4.453.453-.406.5-.375 1.047.094 1.5l.375.39 3.953.016h3.953l-3.36 3.282c-1.843 1.796-3.39 3.265-3.437 3.265-.047 0-1.594-1.469-3.438-3.265l-3.359-3.282h.969c.844-.015 1-.062 1.281-.422.406-.515.422-1.015.031-1.484-.25-.313-.484-.39-1.406-.453l-1.125-.078 3.484-4.813c1.907-2.64 3.532-4.781 3.594-4.765.063.03 1.656 2.187 3.563 4.812zM29.219 19.453V22.5h-5.266c-2.89 0-5.219-.031-5.188-.062.141-.157 10.22-6.016 10.344-6.032.063 0 .11 1.375.11 3.047zm26.765-.125c2.766 1.594 5.094 2.969 5.172 3.047.094.063-2.203.125-5.11.125h-5.265v-3.047c0-1.672.047-3.047.094-3.047s2.344 1.313 5.11 2.922zM34.97 20.36l3.312 3.312-3.36 3.36-3.359 3.359v-6.688c0-3.672.016-6.672.047-6.672.016 0 1.532 1.5 3.36 3.329zm13.468 3.343v6.688l-3.359-3.36-3.36-3.359 3.313-3.313c1.828-1.828 3.344-3.328 3.36-3.328.03 0 .046 3 .046 6.672zm-5.078 4.89l3.282 3.282H33.36l3.28-3.281c1.797-1.813 3.313-3.281 3.36-3.281.047 0 1.562 1.468 3.36 3.28zm.063 8.829c-1.781 1.766-3.313 3.203-3.422 3.203-.094 0-1.625-1.437-3.406-3.203l-3.235-3.188L40 34.22h6.642l-3.22 3.203zm-14.25 3.938c-.032.03-2.407.03-5.282.015l-5.218-.047 5.234-3.047 5.235-3.047.046 3.032c.016 1.672.016 3.062-.015 3.093zm28.531-2.157c1.953 1.14 3.547 2.11 3.547 2.14 0 .032-2.36.063-5.234.063H50.78v-6.234l1.688.969c.922.547 3.265 1.922 5.234 3.062zm-22.734-.094l3.312 3.313-3.36 3.36-3.359 3.359v-6.688c0-3.672.016-6.672.047-6.672.016 0 1.532 1.5 3.36 3.328zm13.468 3.344v6.688l-3.359-3.36-3.36-3.359 3.313-3.313c1.828-1.828 3.344-3.328 3.36-3.328.03 0 .046 3 .046 6.672zM43.516 47.5l3.28 3.281H33.204l3.297-3.28c1.812-1.813 3.39-3.282 3.5-3.282.125 0 1.703 1.469 3.516 3.281zm-.282 8.86L40 59.61l-3.234-3.25-3.25-3.235h12.968l-3.25 3.234zm6.235-.938c.234.766 1.625 5.344 3.125 10.203 1.484 4.86 2.672 8.844 2.64 8.875-.031.031-3.093-2.953-6.797-6.625l-6.734-6.687 3.563-3.563c1.953-1.953 3.609-3.562 3.671-3.562.063 0 .297.609.532 1.359z" fill="white"/></svg>