<svg width="60" height="60" fill="none" xmlns="http://www.w3.org/2000/svg"><path d="M27.077 22.122a1.5 1.5 0 01.989-.372h11.747a1.5 1.5 0 011.015.396l.338-.368-.338.368 7.01 6.444a2.5 2.5 0 001.692.66h4.51a1.5 1.5 0 011.493 1.65l-.85 8.5a1.5 1.5 0 01-1.493 1.35H7a1.5 1.5 0 01-1.5-1.5v-5.222a1.5 1.5 0 011.105-1.448l11.832-3.226c.366-.1.704-.282.99-.532l7.65-6.7z" fill="#005EB8" stroke="white"/><circle cx="13.75" cy="40" r="3.25" fill="#005EB8" stroke="white"/><circle cx="45" cy="40" r="3.25" fill="#005EB8" stroke="white"/><path d="M18.828 29.375h30.469" stroke="white"/></svg>