<svg width="100" height="100" fill="none" xmlns="http://www.w3.org/2000/svg"><g clip-path="url(#clip0_2104_18302)"><path fill-rule="evenodd" clip-rule="evenodd" d="M97.559 91.016h-5.93l-.696-2.178a5.348 5.348 0 00-3.985-3.61l-1.94-5.94a91.926 91.926 0 01-4.491-32.261 2.637 2.637 0 001.343-2.295v-4.883a2.64 2.64 0 00-2.637-2.637h-1.804c.01-.945.591-1.81 1.49-2.212.448-.205 1.178-.3 2.057.056 2.837 1.387 5.458 1.81 8.013 1.29 2.816-.572 4.847-2.318 5.435-4.671a6.28 6.28 0 00.068-.305c.11-.559.451-1.005.936-1.223a7.78 7.78 0 004.544-7.855c-.365-3.769-3.496-6.772-7.285-6.985a7.84 7.84 0 00-2.219.192 9.39 9.39 0 01-3.29.16 7.925 7.925 0 00-.115-2.865 1.465 1.465 0 00-2.855.656c.049.213.083.431.102.648a4.8 4.8 0 01-2.701 4.77c-1.377.668-2.38 1.946-2.753 3.506l-.008.033c-.344 1.374-1.559 2.39-2.956 2.472a3.227 3.227 0 01-1.63-.327c-1.466-.724-3.118-.73-4.532-.015-1.203.608-3.333 1.076-4.748 1.046-1.765-.039-5.319-.653-7.444-2.708-.92-.93-2.718-1.45-4.164-1.04a4.35 4.35 0 00-3.237 4.203v1.892H28.256v-2.428a5.67 5.67 0 00-3.21-5.095 4.543 4.543 0 01-2.575-4.08 4.526 4.526 0 014.527-4.52h.003c.908 0 1.748-.498 2.192-1.302a7.516 7.516 0 019.384-3.34c2.151.87 4.558.27 5.991-1.492a7.395 7.395 0 015.76-2.743 7.402 7.402 0 016.22 3.375c1.306 2.003 3.868 2.854 6.09 2.022a8.865 8.865 0 018.72 1.455c1.645 1.354 3.967 1.575 5.778.552a4.81 4.81 0 013.273-.535 1.464 1.464 0 10.552-2.877 7.746 7.746 0 00-5.267.86c-.763.433-1.758.327-2.475-.263a11.804 11.804 0 00-11.607-1.936c-.95.355-2.047-.014-2.609-.878A10.322 10.322 0 0050.328 0c-3.129 0-6.057 1.395-8.033 3.826-.616.758-1.668 1.008-2.619.624a10.446 10.446 0 00-12.93 4.432c-3.995.13-7.204 3.42-7.204 7.445a7.487 7.487 0 004.243 6.724 2.727 2.727 0 011.541 2.45v2.429H22.34a2.64 2.64 0 00-2.637 2.636v6.93c0 1.011.573 1.89 1.41 2.332a91.876 91.876 0 01-4.215 34.431L13.38 85.208a5.35 5.35 0 00-4.084 3.63L8.6 91.016H2.44A2.444 2.444 0 000 93.457v4.102A2.444 2.444 0 002.441 100H97.56A2.444 2.444 0 00100 97.559v-4.102a2.444 2.444 0 00-2.441-2.441zM31.152 30.859h-8.52v6.344h32.813v-6.344H39.94v.001h-8.789zm56.99 58.873l.412 1.284H69.526l-.697-2.178c-.09-.28-.2-.548-.33-.803h17.318c1.066 0 2 .682 2.326 1.697zm-5.919-9.535l1.603 4.908H64.683l-3.568-11.193a92.021 92.021 0 01-4.07-20.68h6.627v.001h8.789v-.001h5.09a94.816 94.816 0 004.672 26.965zM71.907 50.303H77.517c.004-.978.023-1.956.057-2.935H56.767c.015.98.044 1.958.09 2.934h15.05zm-47.694-6.995a95.802 95.802 0 00-.145-3.176h29.935a96.873 96.873 0 00-.14 3.176h-29.65zm54.717 1.13H56.77c.023-1.43.08-2.862.17-4.296H78.93v4.297zM53.056 27.93v-1.892a1.42 1.42 0 011.066-1.372c.34-.087.786-.085 1.37.316 2.596 2.51 6.694 3.47 9.415 3.531 1.885.046 4.518-.543 6.135-1.36.584-.296 1.281-.286 1.914.027.954.471 2.027.688 3.097.625 2.663-.156 4.977-2.083 5.627-4.687l.015-.06c.168-.704.599-1.27 1.182-1.552a7.735 7.735 0 003.302-3.03c1.661.29 3.35.25 4.946-.124.451-.106.918-.146 1.388-.12 2.358.133 4.306 2 4.533 4.343a4.853 4.853 0 01-2.83 4.9c-1.342.604-2.317 1.849-2.608 3.328-.011.054-.023.107-.037.162-.442 1.773-2.368 2.346-3.175 2.51-1.899.386-3.908.042-6.142-1.05-1.452-.711-3.095-.752-4.504-.116l-.037.017c-1.952.87-3.215 2.786-3.224 4.886H58.374v-6.646a2.64 2.64 0 00-2.637-2.636h-2.68zm-33.37 47.225a94.74 94.74 0 004.569-28.917h29.572a94.752 94.752 0 004.497 28.564l3.284 10.303H16.49l3.197-9.95zM97.07 97.07H2.93v-3.125H97.07v3.125zm-85.395-6.054H66.45l-.41-1.284a2.434 2.434 0 00-2.326-1.697H14.41c-1.065 0-2 .682-2.325 1.697l-.411 1.284z" fill="white"/></g><defs><clipPath id="clip0_2104_18302"><path fill="white" d="M0 0h100v100H0z"/></clipPath></defs></svg>