<svg width="50" height="50" fill="none" xmlns="http://www.w3.org/2000/svg"><g clip-path="url(#clip0_1768_16180)" fill="white"><path d="M0 1.484V2.96h.42c.85.01 1.816.215 3.34.723 2.08.703 2.607.79 4.54.79 1.895 0 2.657-.126 4.2-.663 1.807-.625 2.412-.762 3.623-.82 1.533-.079 2.461.077 4.336.702 2.031.684 2.598.782 4.541.782 1.943 0 2.51-.098 4.541-.782 1.885-.625 2.812-.78 4.336-.703 1.191.059 1.826.205 3.486.782 1.65.585 2.403.703 4.385.693 2.031-.01 2.5-.088 4.639-.82 1.377-.47 2.343-.674 3.203-.684H50V0l-.947.068c-1.29.088-2.168.284-3.633.801-1.67.596-2.676.762-4.21.694-1.308-.06-1.806-.167-3.72-.83-1.543-.538-2.959-.743-4.678-.674-1.591.068-2.353.214-4.199.85-1.552.527-2.343.683-3.613.683s-2.06-.156-3.613-.684c-2.198-.752-2.588-.82-4.785-.81-2.12 0-2.637.097-4.786.859-1.279.45-2.226.625-3.427.635-1.26 0-2.334-.205-3.809-.723C3.125.352 2.236.156.947.07L0 0v1.484zM13.545 8.701c-1.485 1.484-2.705 2.754-2.705 2.803 0 .049.45.547.996 1.094l1.006 1.005.996-.996 1.006-1.005V30.84l-1.006-1.006-.996-.996-1.006 1.006c-.547.547-.996 1.045-.996 1.093 0 .06 1.22 1.319 2.715 2.813l2.705 2.705 2.763-2.764 2.754-2.754-1.025-1.025-1.025-1.025-.977.976-.977.977V11.602l.977.976.977.977 1.025-1.026 1.025-1.025-2.763-2.764-2.754-2.754-2.715 2.715zM28.027 10.576v1.465h11.328v-2.93H28.027v1.465zM28.027 16.436V17.9h8.008V14.971h-8.008v1.465zM28.027 22.295v1.465h11.328v-2.93H28.027v1.465zM28.027 28.154v1.465h8.008v-2.93h-8.008v1.465zM28.027 34.014v1.464h11.328V32.55H28.027v1.465zM0 41.133v1.474h.42c.85.01 1.816.215 3.34.723 2.08.703 2.607.791 4.54.791 1.895 0 2.657-.127 4.2-.664 1.807-.625 2.412-.762 3.623-.82 1.533-.078 2.461.078 4.336.703 2.031.683 2.598.781 4.541.781 1.943 0 2.51-.098 4.541-.781 1.885-.625 2.812-.781 4.336-.703 1.191.058 1.826.205 3.486.781 1.65.586 2.403.703 4.385.693 2.031-.01 2.5-.088 4.639-.82 1.377-.469 2.343-.674 3.203-.684H50v-2.959l-.947.069c-1.29.088-2.168.283-3.633.8-1.67.596-2.676.762-4.21.694-1.308-.059-1.806-.166-3.72-.83-1.543-.537-2.959-.742-4.678-.674-1.591.068-2.353.215-4.199.85-1.552.527-2.343.683-3.613.683s-2.06-.156-3.613-.683c-2.198-.752-2.588-.82-4.785-.81-2.12 0-2.637.097-4.786.858-1.279.45-2.226.626-3.427.635-1.26 0-2.334-.205-3.809-.722-1.455-.518-2.344-.713-3.633-.801L0 39.648v1.485zM0 46.992v1.475h.42c.85.01 1.816.215 3.34.723 2.08.703 2.607.79 4.54.79 1.895 0 2.657-.127 4.2-.664 1.807-.625 2.412-.761 3.623-.82 1.533-.078 2.461.078 4.336.703 2.031.684 2.598.782 4.541.782 1.943 0 2.51-.098 4.541-.782 1.885-.625 2.812-.781 4.336-.703 1.191.059 1.826.205 3.486.781 1.65.586 2.403.703 4.385.694 2.031-.01 2.5-.088 4.639-.82 1.377-.47 2.343-.674 3.203-.684H50v-2.959l-.947.068c-1.29.088-2.168.283-3.633.8-1.67.597-2.676.763-4.21.694-1.308-.058-1.806-.166-3.72-.83-1.543-.537-2.959-.742-4.678-.674-1.591.069-2.353.215-4.199.85-2.734.938-4.492.938-7.226 0-2.198-.752-2.588-.82-4.785-.81-2.12 0-2.637.097-4.786.859-1.279.45-2.226.625-3.427.635-1.26 0-2.334-.206-3.809-.723-1.455-.518-2.344-.713-3.633-.8L0 45.506v1.485z"/></g><defs><clipPath id="clip0_1768_16180"><path fill="white" d="M0 0h50v49.98H0z"/></clipPath></defs></svg>