<svg width="50" height="50" fill="none" xmlns="http://www.w3.org/2000/svg"><path d="M5.469 4.346L2.393 7.422l1.054 1.045L4.492 9.52l1.319-1.318 1.318-1.318v8.74h2.93v-8.74l1.318 1.318 1.318 1.318 1.026-1.025 1.025-1.025-3.105-3.106L8.545 1.27 5.469 4.346zM21.875 4.346l-3.076 3.076 1.055 1.045 1.044 1.054 1.319-1.318 1.318-1.318v8.74h2.93v-8.74l1.318 1.318 1.319 1.318 1.044-1.054 1.055-1.045-3.076-3.076C26.435 2.656 25.029 1.27 25 1.27c-.03 0-1.436 1.386-3.125 3.076zM38.35 4.375l-3.096 3.096 1.025 1.025 1.026 1.025 1.318-1.318 1.318-1.318v8.74h2.93v-8.74l1.319 1.318 1.318 1.318 1.054-1.054 1.045-1.045-3.076-3.076-3.076-3.076-3.105 3.105zM0 22.92v1.465l.86.058c.995.069 1.386.186 2.734.791 1.982.89 3.603 1.182 5.752 1.026 1.27-.098 2.324-.39 3.818-1.055 1.426-.654 2.041-.79 3.496-.79 1.445 0 2.188.175 3.74.878.616.273 1.456.596 1.856.703 1.523.39 3.965.39 5.478 0 .4-.107 1.29-.44 1.963-.742 1.573-.693 2.188-.84 3.653-.84 1.416 0 2.04.137 3.388.742 2.041.909 2.95 1.123 4.864 1.133 1.963 0 2.91-.205 4.834-1.074 1.318-.586 1.709-.703 2.714-.772l.85-.058v-2.93l-.996.059c-1.172.058-2.256.351-3.662.976-.527.235-1.192.508-1.475.596-1.142.38-3.261.361-4.463-.02a25.083 25.083 0 01-1.738-.703c-1.68-.742-2.617-.908-4.707-.85-1.924.05-2.568.206-4.424 1.046-1.426.634-2.129.8-3.535.8-1.406 0-2.11-.166-3.535-.8-1.856-.84-2.5-.997-4.424-1.045-2.05-.059-3.018.107-4.61.8a39.22 39.22 0 01-1.67.694c-1.18.449-3.515.478-4.706.049-.293-.098-1.045-.4-1.66-.674-1.436-.615-2.149-.801-3.39-.87L0 21.456v1.465zM0 30.44v1.464l.86.059c.995.068 1.386.185 2.734.79 1.982.89 3.603 1.183 5.752 1.026 1.27-.097 2.324-.39 3.818-1.054 1.426-.655 2.041-.791 3.496-.791 1.445 0 2.188.175 3.74.878.616.274 1.456.596 1.856.704 1.523.39 3.965.39 5.478 0 .4-.108 1.29-.44 1.963-.742 1.573-.694 2.188-.84 3.653-.84 1.416 0 2.04.136 3.388.742 2.041.908 2.95 1.123 4.864 1.133 1.963 0 2.91-.206 4.834-1.075 1.318-.586 1.709-.703 2.714-.771l.85-.059V28.975l-.996.058c-1.172.059-2.256.352-3.662.977-.527.234-1.192.508-1.475.595-1.142.381-3.261.362-4.463-.02a25.083 25.083 0 01-1.738-.702c-1.68-.742-2.617-.908-4.707-.85-1.924.049-2.568.205-4.424 1.045-1.426.635-2.129.8-3.535.8-1.406 0-2.11-.165-3.535-.8-1.856-.84-2.5-.996-4.424-1.045-2.05-.058-3.018.108-4.61.801-.575.254-1.327.566-1.67.693-1.18.45-3.515.479-4.706.05-.293-.099-1.045-.401-1.66-.675-1.436-.615-2.149-.8-3.39-.869L0 28.975v1.464zM0 37.861v1.465l.771.069c.967.078 1.534.244 2.989.888.644.283 1.543.606 2.002.723 1.64.41 4.013.37 5.566-.108.352-.107 1.162-.43 1.817-.713 1.562-.693 2.46-.878 3.945-.8 1.348.068 1.523.117 3.232.86 1.983.858 2.705 1.005 4.727 1.005 1.973-.01 2.822-.195 4.619-.996 1.514-.694 1.953-.8 3.242-.87 1.485-.077 2.393.108 3.946.801.654.284 1.464.606 1.816.713 1.523.47 3.877.518 5.537.118.44-.108 1.338-.43 2.002-.723 1.484-.654 2.041-.82 3.017-.898l.772-.069V36.426h-.459c-1.27 0-2.793.4-4.482 1.172-1.319.615-1.846.722-3.409.722-1.582.01-1.894-.068-3.74-.879-1.816-.8-2.558-.957-4.56-.957-2.237 0-2.579.088-5.41 1.309-1.29.557-2.891.723-4.415.45-.459-.089-1.26-.362-2.109-.733-2.1-.908-3.32-1.153-5.352-1.055-1.464.078-2.47.322-4.004.996-1.777.791-2.128.87-3.662.88-1.582 0-1.943-.08-3.72-.85-1.582-.674-2.52-.928-3.76-1.016L0 36.396v1.465zM0 45.303v1.445l.81.068c.86.069 1.739.352 3.282 1.026 1.494.664 2.324.83 4.209.83 1.22.01 1.797-.04 2.373-.176.752-.166 2.031-.644 2.773-1.025.733-.371 1.729-.606 2.764-.664 1.455-.079 2.432.117 3.877.752 1.572.703 2.07.869 3.154 1.025 1.621.254 3.438.146 4.756-.254.361-.117 1.201-.45 1.875-.742 1.504-.674 2.451-.86 3.916-.781 1.152.058 1.895.263 3.174.85 1.806.83 3.437 1.152 5.361 1.044 1.377-.078 2.627-.39 4.014-1.025 1.347-.606 1.924-.782 2.89-.86l.772-.068V43.848h-.41c-.655 0-2.217.263-2.813.468a40.11 40.11 0 00-1.68.694c-1.474.654-2.392.84-3.837.762-1.28-.069-1.748-.196-3.057-.782-2.021-.918-3.486-1.21-5.488-1.103-1.377.068-2.422.312-3.623.85-.508.214-1.29.536-1.748.703-.801.292-.889.302-2.344.302-1.455 0-1.543-.01-2.344-.302a43.766 43.766 0 01-1.748-.704c-1.201-.537-2.246-.78-3.623-.85-1.963-.107-3.486.196-5.322 1.036-1.309.596-2.022.79-3.223.85-1.445.068-2.353-.108-3.808-.752-.625-.284-1.387-.596-1.69-.694-.615-.215-2.178-.478-2.822-.478H0v1.455z" fill="white"/></svg>