<svg width="100" height="100" fill="none" xmlns="http://www.w3.org/2000/svg"><path d="M80 55.833v-1.667a5 5 0 00-5-5 5.025 5.025 0 00-5 5v1.667h-5.868A17.3 17.3 0 0061 52.848c-.333-.25-.667-.484-1-.699v-7.983h3.333a5.025 5.025 0 005-5 5 5 0 00-5-5h-6.666v-3.333H60c.92 0 1.667-.747 1.667-1.667v-5h10a5 5 0 100-10H28.333a5 5 0 000 10h10v5c0 .92.747 1.667 1.667 1.667h3.333v3.333h-6.666a5.025 5.025 0 00-5 5 5 5 0 005 5H40v7.983c-.333.215-.667.445-.988.692a17.244 17.244 0 00-3.144 2.992H30v-1.667a5.025 5.025 0 00-5-5 5 5 0 00-5 5v1.667H0v23.333h20v1.667a5 5 0 1010 0v-1.667h5.872c6.426 7.803 17.961 8.919 25.764 2.492a18.284 18.284 0 002.492-2.492H70v1.667a5 5 0 1010 0v-1.667h20V55.833H80zm-60 20H3.333V59.166H20v16.667zm6.667 5a1.667 1.667 0 01-3.334 0V54.166c0-.92.747-1.667 1.667-1.667.45-.001.879.183 1.187.51.31.304.484.722.48 1.157v26.667zm1.666-60a1.667 1.667 0 010-3.334h43.334a1.667 1.667 0 010 3.334H28.333zm13.334 6.666v-3.333h16.666v3.333H41.667zm11.666 3.334v3.333h-6.666v-3.333h6.666zm-16.666 10c-.92 0-1.667-.747-1.667-1.667-.002-.45.183-.879.51-1.187a1.596 1.596 0 011.157-.48h26.666c.92 0 1.667.747 1.667 1.667.001.45-.183.879-.51 1.187a1.595 1.595 0 01-1.157.48H36.667zm33.333 35h-6.683c-.525 0-1.019.247-1.334.666-4.952 6.619-14.331 7.97-20.95 3.017a14.971 14.971 0 01-3.016-3.017 1.667 1.667 0 00-1.334-.666H30V59.166h6.683a1.666 1.666 0 001.334-.678A14.895 14.895 0 0142.5 54.53c.517-.298.835-.851.833-1.448v-8.917h13.334v8.917c-.002.597.316 1.15.833 1.448.52.301 1.022.635 1.5 1a13.954 13.954 0 012.963 2.963c.313.425.807.676 1.334.679H70v16.66zm6.667 5a1.667 1.667 0 01-3.334 0V54.166c-.001-.45.183-.879.51-1.187A1.596 1.596 0 0175 52.5c.92 0 1.667.747 1.667 1.667v26.667zm20-5H80V59.166h16.667v16.667z" fill="white"/></svg>