<svg width="538" height="500" fill="none" xmlns="http://www.w3.org/2000/svg"><g opacity=".3" fill="white"><path d="M-25.3 234.782l67.057-4.082-54.18-33.91-13.014 10.46-.003-.752 12.821-10.304.327-.019 55.139 34.512a.3.3 0 01-.132.552l-68.012 4.139-.004-.596zM-24.612 374.163l34.801 20.615 26.283-7.246-61.138-24.165-.002-.64 62.178 24.576a.3.3 0 01.184.294.295.295 0 01-.213.272l-27.257 7.517-.074.01-.145-.039-34.613-20.505-.004-.689zM269.851 316.124l-2.829 14.117-67.188-22.494 70.017 8.377zm-2.612 14.801l.145-.041.137-.196 2.959-14.764-.048-.234-.2-.121-73.21-8.756c-.156-.024-.284.082-.316.23a.301.301 0 00.194.348l70.25 23.52.089.014zM495.337 488.088l-34.103 22.459-24.121-64.685 58.224 42.226zm-34.245 23.202l.154-.047 34.764-22.892.134-.246-.123-.249-59.352-43.043-.343.009a.304.304 0 00-.092.341l24.588 65.936.18.177.09.014z"/><path d="M460.675 510.702l-104.136 1.715 79.838-66.872 24.298 65.157zm-104.964 2.323h.004l105.381-1.735.235-.13.029-.274-24.588-65.935-.194-.182-.257.057-80.793 67.671a.303.303 0 00-.088.331c.042.12.15.198.271.197zM196.431 307.018L75.859 356.987l59.529-101.9 61.043 51.931zm-121.26 50.873l.105-.021 121.82-50.486.178-.232-.102-.273-61.674-52.47-.231-.065-.198.14L74.922 357.44l.026.347.222.104z"/><path d="M134.901 254.772l-59.35 101.59 9.483-124.608 49.867 23.018zm-59.73 103.119l.244-.143 60.147-102.956.028-.242-.157-.183-50.536-23.328-.264.015-.14.232L74.88 357.57a.295.295 0 00.2.307l.09.014z"/><path d="M84.468 231.604l-9.454 124.224-31.941-124.585 41.395.361zM75.17 357.891l.023-.001a.29.29 0 00.262-.273l9.612-126.283-.076-.226-.21-.096-42.082-.368-.23.114-.05.259 32.47 126.652a.29.29 0 00.281.222z"/><path d="M-24.668 362.729l62.027 24.515 37.064-29.434-99.17-10.969-.002-.599 99.947 11.056a.294.294 0 01.249.215.304.304 0 01-.103.316l-37.762 29.988-.173.061-.106-.019-61.969-24.494-.002-.636zM43.159 190.638l40.895 40.368-41.066-.359.17-40.009zm41.622 40.969a.288.288 0 00.266-.185l-.07-.326-41.904-41.367-.312-.059a.298.298 0 00-.175.273l-.176 40.997a.291.291 0 00.285.299l42.081.368h.005z"/><path d="M-25.693 155.357l68.28 34.113.198-188.29-68.781 93.046-.004-.975L42.844.117a.282.282 0 01.322-.1c.117.04.196.155.196.281l-.2 189.646-.135.252-.152.046-.127-.03-68.438-34.193-.003-.662z"/><path d="M42.585 190.278l-.173 40.137-53.983-33.788 54.156-6.349zm.114 40.961l.14-.038.148-.259.174-40.996-.094-.224-.225-.073-55.317 6.484a.296.296 0 00-.25.232.304.304 0 00.133.317l55.14 34.514.151.043z"/><path d="M-25.572 179.857l13.25 16.257 54.175-6.35-67.543-33.745-.003-.663L43 189.677c.116.057.18.186.159.317a.291.291 0 01-.252.246l-55.316 6.484-.03.001-.223-.104-12.904-15.833-.005-.931zM355.791 513.013l-64.031 19.292-2.093.011 65.269-19.665-115.781-61.519 27.973 81.302-.611.004-28.149-81.816a.305.305 0 01.082-.322l.323-.042 117.07 62.204a.305.305 0 01.155.294.295.295 0 01-.207.257z"/><path d="M266.517 532.438l-28.041-81.503-75.922 38.03 93.525 43.527-1.385.008-92.94-43.254a.297.297 0 01-.168-.268.296.296 0 01.161-.272l76.768-38.45.235-.008.162.174 28.214 82.012-.609.004zM265.523 331.588l-31.952 24.844-18.769-5.79 50.721-19.054zm-31.894 25.469l.173-.06 33.609-26.132a.302.302 0 00.08-.38.284.284 0 00-.352-.137l-53.353 20.042a.297.297 0 00-.19.288.294.294 0 00.205.276l19.744 6.09.084.013z"/><path d="M266.353 330.643l-52.304 19.648-16.564-42.704 68.868 23.056zm-52.467 20.323l.098-.017 53.353-20.042a.3.3 0 00.19-.284.298.298 0 00-.199-.279l-70.251-23.519-.298.079-.058.314 16.896 43.562a.286.286 0 00.269.186z"/><path d="M233.351 356.984l4.839 90.524-23.9-96.403 19.061 5.879zm5.291 93.837l.042-.004a.295.295 0 00.244-.311l-5.013-93.764a.295.295 0 00-.205-.269l-19.743-6.088-.282.069-.081.288 24.758 99.854a.29.29 0 00.28.225z"/><path d="M213.467 350.392l-136.602 6.819 119.964-49.716 16.638 42.897zM75.17 357.891h.012l138.717-6.925.227-.136.026-.272-16.896-43.562-.153-.162-.221-.002-121.821 50.486a.3.3 0 00-.175.34c.03.137.149.234.284.233z"/><path d="M210.835 194.16L196.77 306.536l-60.995-51.891 75.06-60.485zM196.99 307.405l.105-.021.179-.238 14.222-113.627a.297.297 0 00-.142-.296l-.321.023-75.895 61.158-.112.231.104.233 61.674 52.468.186.069z"/><path d="M210.657 193.551l-74.98 60.419 9.663-90.67 65.317 30.251zm-75.34 61.384l.175-.063 75.897-61.157.109-.27-.168-.236-66.115-30.619-.261.013-.145.225-9.782 91.778a.307.307 0 00.148.293l.142.036z"/><path d="M176.301 27.845l-31.327 134.273L43.686.727 176.3 27.845zM145.099 163.16l.047-.004a.292.292 0 00.231-.224l31.555-135.25-.038-.227-.187-.132L43.129.005a.284.284 0 00-.293.126l-.004.328 102.023 162.563.244.137z"/><path d="M144.713 163.739l-9.64 90.461-49.811-22.994 59.451-67.467zm-9.396 91.196l.141-.038.143-.225 9.782-91.778a.297.297 0 00-.168-.304.283.283 0 00-.331.071L84.566 231.11l-.069.261.164.21 50.537 23.329.119.025z"/><path d="M144.235 163.396l-59.47 67.488L43.448 190.1l100.786-26.704zm-59.454 68.211h.009l.203-.097 60.317-68.448.034-.354a.284.284 0 00-.319-.135L42.801 189.655l-.206.214.08.29 41.905 41.365.201.083z"/><path d="M144.637 162.676L43.162 189.56 43.36 1.304l101.277 161.372zM42.875 190.242l.07-.01 102.223-27.082.196-.18-.025-.27L43.315.137a.28.28 0 00-.322-.124.295.295 0 00-.208.285l-.199 189.646.11.236.179.062zM213.707 351.157l24.542 98.988-128.651-24.759 104.109-74.229zm24.935 99.664l.209-.095.07-.277-24.758-99.853-.178-.205-.264.033-105.02 74.878a.305.305 0 00-.118.308.29.29 0 00.23.229l129.775 24.977.054.005z"/><path d="M237.727 450.65l-75.779 37.957-52.328-62.612 128.107 24.655zm-75.853 38.622l.124-.03 76.768-38.451a.303.303 0 00.161-.308.295.295 0 00-.235-.253l-129.774-24.976a.288.288 0 00-.304.145l.033.342 53.007 63.427.22.104z"/><path d="M212.889 351.017L108.971 425.11l-33.343-67.242 137.261-6.851zm-104.022 74.827l.161-.052 105.021-74.878a.3.3 0 00-.178-.542l-138.717 6.924-.236.148-.006.286 33.697 67.953.185.153.073.008z"/><path d="M161.38 488.839l-35.248 12.91-16.726-75.098 51.974 62.188zm-35.455 13.599l.094-.017 35.951-13.166.182-.204-.06-.27-53.01-63.427a.281.281 0 00-.348-.072.301.301 0 00-.151.332l17.06 76.594.142.194.14.036z"/><path d="M108.699 426.127l16.856 75.682-85.07-7.713 68.214-67.969zm17.226 76.311l.216-.102.064-.262-17.059-76.594-.199-.218-.282.071-69.035 68.79-.072.313c.037.11.134.187.247.196l86.094 7.805.026.001z"/><path d="M75.07 358.048l33.13 66.811-70.258-37.327 37.127-29.484zm33.797 67.796l.203-.086a.309.309 0 00.052-.346l-33.698-67.953-.193-.155-.239.054-37.762 29.987-.111.263.154.238 71.46 37.967.134.031z"/><path d="M108.309 425.687l-68.342 68.1-29.383-98.244 97.725 30.144zm-68.478 68.947l.2-.085 69.035-68.788.079-.285-.198-.214-98.716-30.448-.287.074-.07.299 29.68 99.238.205.199.072.01z"/><path d="M37.373 387.898l68.596 36.446-94.761-29.23 26.165-7.216zm71.494 37.946c.113 0 .22-.071.265-.187a.301.301 0 00-.135-.375l-71.458-37.966-.208-.022-27.256 7.517a.297.297 0 00-.215.283.297.297 0 00.207.289l98.715 30.449.085.012zM453.517 414.408l80.096 48.415-96.66-17.985 16.564-30.43zm81.644 49.302a.287.287 0 00.269-.194.301.301 0 00-.124-.36l-81.751-49.413-.22-.031-.177.141-16.905 31.058-.01.273.21.164 98.657 18.357.051.005z"/><path d="M452.964 414.211l-16.508 30.323-32.771-40.431 49.279 10.108zm-16.46 31.143l.026-.002.225-.151 16.905-31.057.012-.27-.206-.167-50.472-10.352a.285.285 0 00-.303.139l.027.344 33.564 41.41.222.106zM293.687 236.111l.07-.011a.298.298 0 00.208-.362l-15.855-63.033a.286.286 0 00-.352-.213.297.297 0 00-.206.362l15.855 63.033a.29.29 0 00.28.224z"/><path d="M277.627 173.154l15.621 62.102-81.257-41.707 65.636-20.395zm16.06 62.957l.181-.068.097-.305-15.855-63.033-.138-.184-.223-.026-66.62 20.702a.293.293 0 00-.204.26.296.296 0 00.159.29l82.473 42.332.13.032z"/><path d="M293.164 236.563l-23.172 78.977-72.227-8.639 95.399-70.338zM270.2 316.162a.288.288 0 00.274-.211l23.487-80.052a.299.299 0 00-.108-.327l-.335-.001-96.696 71.295a.3.3 0 00.134.538l73.208 8.756.036.002z"/><path d="M293.127 235.858l-95.767 70.611 14.085-112.536 81.682 41.925zm-96.137 71.547l.167-.055 96.696-71.295.121-.265-.16-.244-82.474-42.332-.264.004-.15.225-14.224 113.627a.303.303 0 00.139.293l.149.042zM270.366 316.491l47.762 53.216-50.57-39.205 2.808-14.011zm50.151 55.74l.213-.098a.305.305 0 00-.003-.402l-50.318-56.069-.289-.084-.205.227-2.959 14.762.109.298 53.278 41.306.174.06z"/><path d="M267.238 330.999l52.156 40.435-85.059-14.853 32.903-25.582zm53.279 41.232a.29.29 0 00.264-.18.306.306 0 00-.091-.357l-53.279-41.305h-.346l-33.612 26.133a.299.299 0 00-.104.308.289.289 0 00.231.222l86.888 15.174.049.005z"/><path d="M319.893 372.126l-80.999 77.746-4.959-92.757 85.958 15.011zm-81.251 78.695l.194-.08 81.877-78.59.079-.303-.227-.208-86.89-15.174-.239.071-.096.238 5.013 93.765a.295.295 0 00.18.259l.109.022zM-25.017 292.152l99.72 64.788-32.199-125.591-67.676 29.51-.004-.644 67.762-29.548.239.008.152.191 32.47 126.652a.304.304 0 01-.107.316l-.17.057-.156-.046-100.028-64.988-.003-.705z"/><path d="M-24.75 346.242l98.711 10.919-98.974-64.303-.004-.706 100.34 65.19a.304.304 0 01.119.349.29.29 0 01-.272.2l-.032-.001-99.885-11.05-.002-.598zM-25.176 260.215l66.218-28.875-66.34 4.038-.003-.596 67.982-4.137c.157-.014.265.088.297.229a.299.299 0 01-.168.342l-67.982 29.643-.004-.644zM402.803 403.943l32.74 40.392-97.452-40.626 64.712.234zm33.701 41.411l.233-.124-.013-.365-33.565-41.41-.22-.105-66.344-.241h-.003a.291.291 0 00-.281.241.3.3 0 00.174.332l99.911 41.651.108.021z"/><path d="M435.942 445.143l-80.034 67.036-18.937-108.294 98.971 41.258zm-80.231 67.882l.181-.066 80.793-67.671.103-.276-.177-.232-99.91-41.65-.289.045-.101.284 19.115 109.321.183.226.102.019z"/><path d="M321.124 372.485l80.2 30.859-64.556-.234-15.644-30.625zm81.815 31.46a.3.3 0 00.1-.577l-82.421-31.714a.286.286 0 00-.318.082l-.038.335 16.077 31.474.254.159 66.345.241h.001z"/><path d="M336.377 403.839l18.946 108.348-116.028-61.65 97.082-46.698zm19.334 109.186l.171-.058.112-.292-19.117-109.321-.151-.211-.254-.006-97.953 47.116-.167.264.156.27 117.069 62.205.134.033z"/><path d="M336.198 403.269l-96.024 46.188 80.263-77.041 15.761 30.853zm-97.556 47.552l.12-.028 97.953-47.117.152-.175-.018-.233-16.078-31.473-.206-.155-.246.075-81.875 78.59a.303.303 0 00-.043.384l.241.132zM-24.443 408.08l33.915-13.04-34.08-20.188-.004-.689 34.903 20.677a.3.3 0 01.145.283.3.3 0 01-.188.255l-34.689 13.336-.002-.634zM277.832 173.077l.238-.131a.304.304 0 00-.079-.414l-66.57-45.954a.281.281 0 00-.399.082.301.301 0 00.079.412l66.57 45.955.161.05z"/><path d="M277.163 172.677L211.5 193.08l.049-65.698 65.614 45.295zm-65.951 21.102l.082-.013 66.62-20.701a.295.295 0 00.202-.241l-.125-.292-66.57-45.954-.294-.015-.154.262-.049 66.656.115.238.173.06z"/><path d="M210.973 127.32l-.049 65.702-65.169-30.182 65.218-35.52zm.239 66.459l.156-.048.131-.25.05-66.656-.139-.255-.283-.007-66.166 36.036-.153.272.171.262 66.114 30.619.119.027z"/><path d="M210.905 126.683l-65.378 35.608 31.179-133.643 34.199 98.035zm-65.806 36.476l.133-.035 66.164-36.035a.304.304 0 00.137-.366l-34.609-99.211c-.043-.123-.165-.213-.287-.195a.29.29 0 00-.265.227L144.817 162.79l.103.306.179.062zM-24.24 449.332l63.552 44.285-29.276-97.885-34.315 45.578-.005-.964 34.205-45.431.28-.109.223.204 29.68 99.238a.303.303 0 01-.102.327l-.171.059-.162-.051-63.905-44.531-.004-.72z"/><path d="M-23.939 510.381l63.071-16.172-63.368-44.156-.004-.72 64.23 44.756a.305.305 0 01.124.3.297.297 0 01-.214.236l-63.835 16.369-.004-.613zM-24.284 440.346L9.3 395.743l-33.74 12.971-.003-.634 34.492-13.26a.281.281 0 01.333.103l-.004.357-34.656 46.03-.005-.964zM135.295 250.698c2.109-.012 3.828 1.743 3.839 3.92.011 2.177-1.69 3.951-3.8 3.962-2.108.011-3.827-1.745-3.838-3.921-.01-2.177 1.69-3.951 3.799-3.961z"/><path d="M135.289 249.507c2.742-.015 4.984 2.275 4.998 5.105.013 2.83-2.205 5.144-4.947 5.158-2.741.014-4.982-2.276-4.997-5.106-.014-2.829 2.205-5.143 4.946-5.157zm.006 1.19c-2.109.011-3.809 1.785-3.799 3.962.011 2.176 1.73 3.932 3.838 3.92 2.11-.01 3.811-1.784 3.8-3.961-.011-2.177-1.73-3.932-3.839-3.921zM83.144 231.317c-.005-.932.724-1.691 1.626-1.696.904-.004 1.64.748 1.644 1.68.005.932-.724 1.691-1.627 1.697-.901.003-1.638-.747-1.643-1.681z"/><path d="M84.764 228.432c1.538-.009 2.796 1.275 2.805 2.863.007 1.587-1.237 2.884-2.776 2.892-1.537.009-2.794-1.276-2.802-2.863-.007-1.586 1.236-2.885 2.773-2.892zm.006 1.189c-.901.005-1.631.765-1.626 1.696.005.934.742 1.684 1.643 1.681.903-.005 1.632-.765 1.627-1.697-.004-.932-.74-1.684-1.644-1.68zM42.893 193.828c-2.078.01-3.77-1.719-3.782-3.863-.01-2.147 1.666-3.893 3.743-3.905 2.08-.011 3.773 1.719 3.782 3.864.011 2.145-1.664 3.893-3.743 3.904z"/><path d="M42.85 184.87c2.71-.014 4.925 2.25 4.94 5.048.013 2.798-2.18 5.086-4.892 5.101-2.71.012-4.926-2.251-4.94-5.049-.014-2.798 2.18-5.085 4.891-5.1zm.004 1.19c-2.077.012-3.753 1.758-3.743 3.905.011 2.144 1.704 3.873 3.782 3.863 2.079-.011 3.755-1.759 3.743-3.904-.01-2.145-1.702-3.875-3.782-3.864zM213.867 347.16c1.877-.01 3.408 1.553 3.416 3.491.01 1.938-1.503 3.517-3.382 3.527-1.877.01-3.407-1.553-3.417-3.492-.01-1.937 1.506-3.516 3.383-3.526z"/><path d="M213.861 345.969c2.51-.012 4.564 2.085 4.576 4.677.013 2.591-2.02 4.71-4.529 4.722-2.511.014-4.564-2.083-4.576-4.675-.014-2.591 2.018-4.709 4.529-4.724zm.006 1.191c-1.877.011-3.393 1.589-3.383 3.527.01 1.938 1.541 3.502 3.418 3.492 1.878-.011 3.391-1.589 3.381-3.528-.008-1.938-1.539-3.501-3.416-3.491zM108.855 423.359c1.17-.005 2.124.969 2.13 2.177.006 1.207-.938 2.192-2.109 2.198-1.171.007-2.124-.968-2.131-2.177-.006-1.207.939-2.192 2.11-2.198z"/><path d="M108.848 422.168c1.805-.009 3.28 1.499 3.29 3.362.008 1.862-1.452 3.385-3.256 3.395-1.804.009-3.28-1.499-3.289-3.361-.01-1.863 1.451-3.385 3.255-3.396zm.007 1.191c-1.171.006-2.116.992-2.11 2.199.007 1.208.96 2.183 2.13 2.176 1.172-.005 2.115-.991 2.11-2.198-.006-1.208-.96-2.182-2.13-2.177zM37.385 383.346c2.267-.011 4.113 1.874 4.125 4.213.011 2.34-1.816 4.246-4.083 4.257-2.265.013-4.111-1.874-4.124-4.214-.01-2.339 1.816-4.243 4.082-4.256z"/><path d="M37.38 382.156c2.898-.016 5.268 2.406 5.282 5.397.015 2.993-2.33 5.438-5.229 5.454-2.898.015-5.269-2.407-5.283-5.398-.014-2.991 2.331-5.437 5.23-5.453zm.005 1.19c-2.266.013-4.093 1.917-4.082 4.256.013 2.34 1.859 4.227 4.124 4.214 2.266-.011 4.094-1.917 4.083-4.257-.012-2.339-1.858-4.224-4.125-4.213zM535.151 461.671c.933-.005 1.692.771 1.697 1.732.005.962-.747 1.746-1.679 1.752-.933.004-1.692-.772-1.697-1.733-.005-.962.747-1.746 1.679-1.751z"/><path d="M535.145 460.48c1.566-.008 2.848 1.301 2.855 2.918.009 1.615-1.259 2.938-2.825 2.947-1.567.009-2.848-1.301-2.856-2.918-.008-1.616 1.26-2.938 2.826-2.947zm.006 1.191c-.932.005-1.684.789-1.679 1.751.005.961.764 1.737 1.696 1.732.933-.005 1.685-.789 1.68-1.751-.005-.961-.764-1.737-1.697-1.732zM453.395 411.181c1.507-.008 2.736 1.248 2.743 2.804.009 1.555-1.207 2.823-2.715 2.831-1.507.008-2.735-1.248-2.743-2.802-.007-1.556 1.208-2.824 2.715-2.833z"/><path d="M453.39 409.991c2.14-.011 3.891 1.777 3.902 3.987.011 2.21-1.723 4.016-3.862 4.029-2.142.011-3.892-1.778-3.903-3.988-.011-2.209 1.722-4.016 3.863-4.028zm.005 1.19c-1.507.009-2.722 1.277-2.715 2.833.008 1.554 1.236 2.81 2.743 2.802 1.508-.008 2.724-1.276 2.715-2.831-.007-1.556-1.236-2.812-2.743-2.804zM293.677 234.112c.911-.005 1.651.753 1.656 1.692.005.939-.729 1.705-1.638 1.71-.911.004-1.653-.753-1.658-1.693-.004-.939.73-1.704 1.64-1.709z"/><path d="M293.671 232.922c1.544-.008 2.807 1.283 2.815 2.877.008 1.594-1.242 2.897-2.786 2.905-1.545.007-2.807-1.282-2.816-2.876-.007-1.594 1.243-2.897 2.787-2.906zm.006 1.19c-.91.005-1.644.77-1.64 1.71.005.939.747 1.696 1.658 1.692.909-.005 1.643-.77 1.638-1.71-.005-.938-.745-1.697-1.656-1.692zM196.969 303.23c2.075-.011 3.765 1.716 3.776 3.858.01 2.141-1.663 3.886-3.737 3.896-2.074.011-3.765-1.716-3.776-3.857-.011-2.142 1.664-3.887 3.737-3.897z"/><path d="M196.963 302.04c2.707-.014 4.921 2.248 4.934 5.041.015 2.795-2.176 5.08-4.884 5.094-2.706.014-4.92-2.248-4.933-5.042-.015-2.794 2.177-5.079 4.883-5.093zm.006 1.191c-2.074.01-3.748 1.754-3.737 3.896.011 2.142 1.702 3.869 3.776 3.857 2.074-.01 3.747-1.755 3.737-3.896-.011-2.142-1.701-3.869-3.776-3.857zM270.207 317.799c-1.034.006-1.878-.856-1.883-1.924-.005-1.068.829-1.939 1.865-1.944 1.036-.006 1.878.856 1.883 1.924.005 1.069-.829 1.938-1.865 1.944z"/><path d="M270.183 312.741c1.668-.009 3.034 1.385 3.041 3.107.009 1.724-1.341 3.132-3.011 3.141-1.668.009-3.033-1.386-3.041-3.108-.009-1.723 1.341-3.132 3.011-3.14zm.006 1.19c-1.036.005-1.871.876-1.865 1.944.005 1.068.849 1.93 1.883 1.924 1.036-.006 1.87-.875 1.865-1.944-.005-1.068-.848-1.93-1.883-1.924zM267.228 328.441c1.17-.007 2.122.967 2.128 2.176.006 1.207-.937 2.191-2.107 2.197-1.169.006-2.123-.968-2.129-2.176-.006-1.207.938-2.191 2.108-2.197z"/><path d="M267.222 327.251c1.802-.01 3.279 1.498 3.287 3.359.009 1.862-1.45 3.384-3.254 3.393-1.804.011-3.278-1.496-3.288-3.359-.01-1.861 1.451-3.384 3.255-3.393zm.006 1.19c-1.17.006-2.114.99-2.108 2.197.006 1.209.96 2.182 2.129 2.176 1.17-.006 2.113-.99 2.107-2.197-.006-1.209-.958-2.181-2.128-2.176zM233.619 355.047c.915-.005 1.662.758 1.667 1.703.005.946-.735 1.715-1.65 1.72-.915.006-1.662-.758-1.667-1.703-.004-.944.735-1.715 1.65-1.72z"/><path d="M233.613 353.858c1.55-.008 2.818 1.287 2.825 2.886.009 1.6-1.246 2.908-2.796 2.916-1.55.009-2.817-1.287-2.825-2.886-.009-1.6 1.247-2.908 2.796-2.916zm.006 1.189c-.915.005-1.654.776-1.65 1.72.005.946.752 1.709 1.667 1.703.915-.005 1.655-.775 1.65-1.72-.005-.945-.752-1.708-1.667-1.703zM75.153 354.618c1.592-.009 2.89 1.318 2.898 2.96.007 1.643-1.275 2.982-2.867 2.991-1.592.009-2.89-1.318-2.898-2.96-.009-1.643 1.275-2.983 2.867-2.991z"/><path d="M75.147 353.428c2.226-.012 4.045 1.847 4.057 4.145.011 2.296-1.79 4.174-4.014 4.186-2.226.012-4.045-1.848-4.056-4.145-.013-2.296 1.788-4.175 4.013-4.186zm.006 1.19c-1.592.008-2.876 1.348-2.867 2.99.007 1.643 1.306 2.97 2.898 2.961 1.592-.009 2.874-1.348 2.867-2.991-.008-1.642-1.306-2.969-2.898-2.96zM42.681 227.521c1.83-.01 3.322 1.514 3.33 3.402.009 1.89-1.467 3.429-3.297 3.439-1.829.009-3.32-1.514-3.33-3.403-.01-1.89 1.467-3.428 3.297-3.438z"/><path d="M42.675 226.331c2.463-.013 4.476 2.045 4.49 4.587.012 2.543-1.982 4.621-4.445 4.633-2.463.013-4.476-2.044-4.489-4.586-.012-2.542 1.98-4.622 4.444-4.634zm.006 1.19c-1.83.01-3.307 1.548-3.297 3.438.01 1.889 1.5 3.412 3.33 3.403 1.83-.01 3.306-1.549 3.297-3.439-.009-1.888-1.5-3.412-3.33-3.402zM436.485 441.348c1.985-.01 3.602 1.641 3.611 3.69.011 2.048-1.59 3.717-3.574 3.728-1.984.01-3.602-1.643-3.612-3.69-.01-2.049 1.591-3.718 3.575-3.728z"/><path d="M436.479 440.157c2.617-.014 4.757 2.174 4.771 4.874.012 2.703-2.106 4.91-4.722 4.925-2.617.013-4.758-2.173-4.77-4.875-.014-2.701 2.104-4.91 4.721-4.924zm.006 1.191c-1.984.01-3.585 1.679-3.575 3.728.01 2.047 1.628 3.7 3.612 3.69 1.984-.012 3.585-1.68 3.574-3.728-.01-2.049-1.626-3.7-3.611-3.69zM400.869 403.658c-.006-1.18.915-2.14 2.058-2.147 1.144-.006 2.073.946 2.08 2.125.006 1.179-.916 2.141-2.059 2.147-1.143.005-2.073-.946-2.079-2.125z"/><path d="M402.922 400.321c1.776-.009 3.228 1.476 3.238 3.309.01 1.834-1.429 3.334-3.206 3.343-1.776.008-3.23-1.475-3.238-3.309-.009-1.834 1.428-3.333 3.206-3.343zm.005 1.19c-1.143.007-2.064.968-2.058 2.147.006 1.179.936 2.13 2.079 2.125 1.143-.006 2.065-.967 2.059-2.146-.005-1.18-.937-2.132-2.08-2.126zM336.577 399.897c1.878-.009 3.407 1.553 3.417 3.491.01 1.938-1.505 3.517-3.382 3.527-1.878.01-3.408-1.553-3.418-3.491-.009-1.938 1.505-3.517 3.383-3.527z"/><path d="M336.571 398.708c2.51-.014 4.563 2.083 4.575 4.675.013 2.591-2.018 4.709-4.529 4.723-2.51.013-4.563-2.084-4.575-4.675-.012-2.592 2.018-4.71 4.529-4.723zm.006 1.189c-1.878.011-3.392 1.589-3.383 3.528.01 1.937 1.54 3.501 3.418 3.491 1.877-.011 3.392-1.589 3.382-3.528-.01-1.938-1.54-3.5-3.417-3.491zM238.625 447.462c1.637-.009 2.971 1.356 2.98 3.046.008 1.69-1.312 3.067-2.95 3.076-1.637.008-2.971-1.356-2.98-3.046-.008-1.69 1.312-3.067 2.95-3.076z"/><path d="M238.62 446.271c2.27-.011 4.127 1.886 4.139 4.23.01 2.344-1.827 4.261-4.098 4.272-2.271.013-4.128-1.884-4.138-4.229-.012-2.344 1.825-4.26 4.097-4.273zm.005 1.191c-1.638.009-2.958 1.386-2.95 3.076.009 1.691 1.343 3.055 2.98 3.046 1.638-.009 2.958-1.386 2.95-3.076-.008-1.692-1.343-3.055-2.98-3.046zM320.505 369.686c1.203-.006 2.182.995 2.188 2.235.006 1.242-.963 2.252-2.166 2.259-1.201.006-2.18-.994-2.187-2.236-.006-1.24.964-2.252 2.165-2.258z"/><path d="M320.5 368.496c1.835-.01 3.336 1.525 3.346 3.419.01 1.896-1.476 3.445-3.313 3.454-1.835.01-3.336-1.524-3.346-3.418-.01-1.896 1.476-3.446 3.313-3.455zm.005 1.19c-1.202.006-2.171 1.018-2.165 2.258.005 1.241.986 2.242 2.187 2.236 1.203-.007 2.172-1.017 2.166-2.259-.007-1.24-.986-2.241-2.188-2.235zM277.817 170.092c1.439-.007 2.609 1.19 2.618 2.673.006 1.485-1.152 2.695-2.591 2.701-1.438.009-2.61-1.188-2.617-2.673-.008-1.483 1.153-2.693 2.59-2.701z"/><path d="M277.811 168.902c2.073-.011 3.765 1.721 3.776 3.859.012 2.137-1.665 3.885-3.736 3.896-2.072.012-3.765-1.719-3.777-3.857-.011-2.138 1.666-3.886 3.737-3.898zm.006 1.191c-1.437.007-2.598 1.217-2.59 2.701.007 1.484 1.179 2.681 2.617 2.673 1.439-.007 2.597-1.216 2.591-2.701-.007-1.484-1.179-2.681-2.618-2.673zM211.201 191.485c1.068-.005 1.939.884 1.944 1.987.006 1.102-.855 1.999-1.923 2.006-1.068.005-1.938-.884-1.944-1.986-.005-1.103.856-2.001 1.923-2.007z"/><path d="M211.195 190.296c1.703-.009 3.095 1.412 3.105 3.17.008 1.756-1.371 3.192-3.072 3.201-1.702.009-3.095-1.412-3.104-3.17-.008-1.756 1.37-3.193 3.071-3.201zm.006 1.189c-1.067.006-1.928.904-1.923 2.007.006 1.102.876 1.991 1.944 1.986 1.068-.007 1.929-.904 1.923-2.006-.005-1.103-.876-1.992-1.944-1.987zM211.283 131.122c-2.299.013-4.173-1.902-4.184-4.274-.011-2.374 1.841-4.308 4.141-4.32 2.299-.012 4.172 1.902 4.185 4.275.011 2.374-1.843 4.306-4.142 4.319z"/><path d="M211.235 121.338c2.929-.015 5.326 2.433 5.342 5.459.015 3.027-2.357 5.499-5.288 5.516-2.931.015-5.328-2.435-5.344-5.46-.015-3.026 2.359-5.5 5.29-5.515zm.004 1.19c-2.298.012-4.152 1.946-4.14 4.32.011 2.372 1.885 4.287 4.183 4.274 2.3-.013 4.154-1.945 4.143-4.319-.013-2.373-1.886-4.287-4.186-4.275zM145.087 160.668c1.173-.005 2.129.971 2.135 2.182.006 1.211-.94 2.199-2.114 2.204-1.173.006-2.129-.97-2.135-2.181-.006-1.211.941-2.199 2.114-2.205z"/><path d="M145.081 159.478c1.807-.01 3.284 1.5 3.294 3.366.009 1.865-1.454 3.391-3.261 3.4-1.807.01-3.285-1.5-3.295-3.365-.008-1.865 1.453-3.392 3.262-3.401zm.006 1.19c-1.175.006-2.121.994-2.114 2.205.006 1.211.961 2.187 2.135 2.181 1.174-.005 2.12-.993 2.114-2.204-.006-1.211-.962-2.187-2.135-2.182zM10.135 392.262c1.516-.007 2.753 1.256 2.76 2.821.008 1.567-1.216 2.842-2.733 2.851-1.516.008-2.753-1.255-2.76-2.821-.009-1.566 1.215-2.842 2.733-2.851z"/><path d="M10.129 391.073c2.15-.011 3.908 1.786 3.919 4.005.012 2.22-1.729 4.034-3.88 4.046-2.15.011-3.909-1.786-3.92-4.006-.01-2.219 1.73-4.034 3.881-4.045zm.006 1.189c-1.518.009-2.742 1.285-2.733 2.851.007 1.566 1.244 2.829 2.76 2.821 1.517-.009 2.74-1.284 2.733-2.85-.007-1.566-1.244-2.829-2.76-2.822z"/></g></svg>