<svg width="44" height="45" fill="none" xmlns="http://www.w3.org/2000/svg"><path fill-rule="evenodd" clip-rule="evenodd" d="M27.014.5H6v44h32.8V12.286L27.014.5zM36.8 25.7V14.1H25.2V2.5H8v23.2h28.8z" fill="#006CBF"/><path d="M12.252 32.2h2.862c.684 0 1.287.132 1.809.396.528.258.936.624 1.224 1.098.294.474.441 1.026.441 1.656 0 .63-.147 1.182-.441 1.656a2.925 2.925 0 01-1.224 1.107c-.522.258-1.125.387-1.809.387h-2.862v-6.3zm2.79 5.103c.63 0 1.131-.174 1.503-.522.378-.354.567-.831.567-1.431 0-.6-.189-1.074-.567-1.422-.372-.354-.873-.531-1.503-.531H13.71v3.906h1.332zM22.919 38.608a3.704 3.704 0 01-1.774-.423 3.19 3.19 0 01-1.232-1.161 3.23 3.23 0 01-.442-1.674c0-.618.148-1.173.442-1.665a3.17 3.17 0 011.232-1.17 3.704 3.704 0 011.774-.423c.654 0 1.241.141 1.764.423a3.17 3.17 0 011.683 2.835 3.18 3.18 0 01-.45 1.674 3.19 3.19 0 01-1.233 1.161c-.523.282-1.11.423-1.764.423zm0-1.242c.372 0 .707-.084 1.008-.252.3-.174.534-.414.701-.72.174-.306.262-.654.262-1.044s-.088-.738-.262-1.044a1.78 1.78 0 00-.701-.711 1.972 1.972 0 00-1.008-.261c-.372 0-.709.087-1.009.261a1.84 1.84 0 00-.71.711 2.133 2.133 0 00-.252 1.044c0 .39.084.738.252 1.044.174.306.41.546.71.72.3.168.637.252 1.009.252zM30.656 38.608a3.677 3.677 0 01-1.746-.414 3.208 3.208 0 01-1.224-1.161 3.248 3.248 0 01-.44-1.683 3.2 3.2 0 01.44-1.674c.3-.498.708-.885 1.224-1.161a3.632 3.632 0 011.755-.423 3.64 3.64 0 011.476.288c.444.192.816.468 1.116.828l-.936.864c-.426-.492-.954-.738-1.584-.738-.39 0-.738.087-1.044.261a1.823 1.823 0 00-.72.711 2.133 2.133 0 00-.252 1.044c0 .39.084.738.252 1.044.174.306.414.546.72.72.306.168.654.252 1.044.252.63 0 1.158-.249 1.584-.747l.936.864c-.3.366-.672.645-1.116.837a3.704 3.704 0 01-1.485.288z" fill="white"/></svg>