<svg width="100" height="100" fill="none" xmlns="http://www.w3.org/2000/svg"><g clip-path="url(#clip0_2102_18294)" fill="white"><path d="M64.542 59.611a39.55 39.55 0 019.565 10.723 1.466 1.466 0 002.502-1.525 42.464 42.464 0 00-10.273-11.514 1.465 1.465 0 00-1.794 2.316zM42.95 47.561a1.465 1.465 0 00-.452 2.895c2.993.468 7.587 1.467 12.477 3.57a1.465 1.465 0 001.158-2.691 54.801 54.801 0 00-13.183-3.774zM28.627 41.141h-.73c-1.94.067-1.938 2.863 0 2.93h.73c1.94-.068 1.938-2.863 0-2.93zM28.627 47.462h-.73c-1.94.068-1.938 2.863 0 2.93h.73c1.94-.067 1.938-2.863 0-2.93z"/><path d="M99.297 70.98a2.09 2.09 0 00-1.623-.524c-2.01.219-3.182 1.199-4.124 1.986-.937.784-1.614 1.35-3.105 1.35-1.491 0-2.168-.566-3.106-1.35-.779-.651-1.698-1.415-3.101-1.793-3.58-7.577-8.726-13.875-15.3-18.719-1.603-1.096-3.26 1.156-1.738 2.359 5.784 4.26 10.393 9.725 13.723 16.255-1.664.324-2.693 1.18-3.553 1.898-.937.784-1.614 1.35-3.105 1.35-1.49 0-2.168-.566-3.105-1.35-2.84-2.72-7.135-2.714-9.969 0a15.07 15.07 0 01-.704.566c-1.463-10.055-8.475-18.754-19.926-19.744v-8.965c4.708.486 12.775 1.959 20.963 6.394a1.465 1.465 0 101.395-2.576c-8.795-4.764-17.452-6.283-22.358-6.763V34.5a2.312 2.312 0 00-2.309-2.309h-4.17a2.312 2.312 0 00-2.31 2.31v.343h-15.17v-20.88h1.808c1.042 0 1.89-.848 1.89-1.891V6.676c0-1.043-.848-1.89-1.89-1.89H1.465C.655 4.785 0 5.44 0 6.25v81.642c0 4.038 3.285 7.323 7.323 7.323h6.323c1.94-.067 1.939-2.863 0-2.93H7.323a4.398 4.398 0 01-4.393-4.393v-4.209c.602.236 1.066.623 1.64 1.103 2.84 2.72 7.134 2.714 9.967 0 .937-.784 1.615-1.35 3.105-1.35s2.168.566 3.105 1.35c2.845 2.722 7.134 2.713 9.968 0 .938-.784 1.615-1.35 3.105-1.35s2.168.566 3.105 1.35c2.84 2.72 7.135 2.714 9.968 0 .937-.783 1.614-1.35 3.105-1.35 1.49 0 2.167.567 3.104 1.35 2.846 2.723 7.134 2.714 9.969 0 .937-.783 1.614-1.35 3.105-1.35 1.49 0 2.167.567 3.105 1.35 2.84 2.72 7.135 2.715 9.968 0 .938-.783 1.615-1.35 3.105-1.35 1.491 0 2.168.567 3.106 1.35 2.84 2.72 7.136 2.715 9.97 0 .573-.48 1.038-.867 1.64-1.102v4.209a4.398 4.398 0 01-4.393 4.393H20.514c-1.94.067-1.938 2.863 0 2.93h72.163c4.038 0 7.323-3.285 7.323-7.323v-15.34c0-.6-.256-1.174-.703-1.574zM34.702 35.121h2.93v21.29h-2.93v-21.29zm-18.018 2.653h15.088v15.983H16.684V37.775zm15.088 18.913v.343a2.312 2.312 0 002.31 2.31h4.17a2.312 2.312 0 002.309-2.31v-.818c12.453 1.561 16.071 11.137 17.083 17.56-1.191-.104-1.824-.63-2.662-1.331-2.846-2.722-7.134-2.713-9.968 0-.937.784-1.614 1.35-3.105 1.35-1.49 0-2.167-.566-3.104-1.35-2.84-2.72-7.136-2.714-9.969 0-.937.784-1.614 1.35-3.105 1.35-1.49 0-2.168-.566-3.105-1.35-1.219-1.152-3.378-2.384-6.024-1.962V56.688h15.17zM2.93 55.478V47.23h10.742v8.246H2.93zm10.742-11.176h-5.21v-8.246h5.21v8.246zm-8.14 0H2.93v-8.246h2.602v8.246zM2.93 58.407h2.602v8.246H2.93v-8.246zm5.532 0h5.21v8.246h-5.21v-8.246zm5.21-25.281H2.93V24.88h10.742v8.246zM2.93 21.95v-7.985h2.602v7.985H2.93zm0 47.633h10.742v2.063c-1.404.975-2.131 2.176-4.119 2.146-1.49 0-2.167-.566-3.104-1.35-.843-.704-1.872-1.562-3.52-1.892v-.967zM13.672 21.95h-5.21v-7.985h5.21v7.985zM2.93 7.715h14.44v3.32H2.93v-3.32zm90.62 74.823c-.937.784-1.614 1.35-3.105 1.35-1.491 0-2.168-.566-3.106-1.35-2.845-2.721-7.134-2.713-9.969 0-.937.784-1.614 1.35-3.105 1.35-1.49 0-2.168-.566-3.105-1.35-2.84-2.72-7.135-2.714-9.969 0-.937.784-1.614 1.35-3.105 1.35-1.49 0-2.167-.566-3.104-1.35-2.846-2.722-7.134-2.713-9.968 0-.937.784-1.614 1.35-3.105 1.35-1.49 0-2.167-.566-3.104-1.35-2.84-2.72-7.136-2.714-9.969 0-.937.784-1.614 1.35-3.105 1.35-1.49 0-2.168-.566-3.105-1.35-2.84-2.72-7.135-2.714-9.968 0-.937.784-1.614 1.35-3.104 1.35s-2.168-.566-3.105-1.35c-.843-.704-1.872-1.562-3.52-1.891v-7.06c.603.235 1.067.623 1.64 1.102 2.84 2.72 7.135 2.715 9.968 0 .937-.783 1.615-1.35 3.105-1.35s2.168.567 3.105 1.35c2.845 2.723 7.134 2.714 9.968 0 .938-.783 1.615-1.35 3.105-1.35s2.168.567 3.105 1.35c2.84 2.72 7.135 2.715 9.968 0 .937-.783 1.614-1.35 3.105-1.35 1.49 0 2.167.567 3.104 1.35 2.846 2.723 7.134 2.714 9.969 0 .937-.783 1.614-1.349 3.105-1.349 1.49 0 2.167.566 3.105 1.35 2.84 2.72 7.135 2.714 9.968 0 .938-.784 1.615-1.35 3.105-1.35 1.491 0 2.168.566 3.106 1.35 2.84 2.72 7.136 2.714 9.97 0 .573-.48 1.037-.868 1.64-1.103v7.06c-1.647.33-2.677 1.187-3.52 1.891z"/></g><defs><clipPath id="clip0_2102_18294"><path fill="white" d="M0 0h100v100H0z"/></clipPath></defs></svg>