<svg width="246" height="246" fill="none" xmlns="http://www.w3.org/2000/svg"><g clip-path="url(#clip0_1601_16685)" fill="white"><path d="M152.789 10.57c-27.002 15.087-26.426 14.318-26.81 33.249l-.192 11.435h-3.268c-4.66 0-7.927.72-11.819 2.642-5.814 2.835-10.763 8.649-12.3 14.318l-.577 2.259H50.785c-51.025 0-48.96-.097-50.209 2.642-.816 1.826-.816 164.417 0 166.242C1.874 246.192-6.727 246 123 246c129.726 0 121.126.192 122.423-2.643.433-.961.577-14.942.577-57.704 0-61.356.144-58.425-2.643-59.674-3.459-1.586-6.966.721-6.966 4.564 0 1.298-.049 1.346-2.259 1.201-6.246-.384-16.288-1.681-20.948-2.738-4.084-.913-6.967-2.018-13.213-4.997-9.225-4.372-13.309-5.766-18.354-6.15-4.805-.336-8.408.576-16.576 4.18-8.408 3.7-11.675 4.516-17.057 4.132-5.141-.336-8.36-1.201-15.711-4.228l-5.91-2.402V84.082h110.028v1.922c0 3.411 1.969 5.765 4.804 5.765 1.586 0 3.412-1.105 4.132-2.45.913-1.826.913-10.57 0-12.396-1.201-2.258-2.306-2.45-14.222-2.45h-11.05V55.83c0-19.987-.337-23.975-2.163-27.723-2.066-4.324-4.756-6.342-18.978-14.318C176.14 1.01 174.218 0 172.969 0c-.721 0-9.321 4.517-20.18 10.571zm37.14 9.177c9.033 5.045 16.961 9.706 17.633 10.33l1.202 1.153h-71.542l1.009-1.009c1.105-1.105 33.681-19.555 34.642-19.603.288-.048 7.975 4.084 17.056 9.13zm20.036 37.91v16.816h-73.992V40.84h73.992v16.816zM125.883 69.62v4.756l-3.412.193c-3.027.144-3.555.336-4.564 1.49-.577.72-1.201 2.21-1.393 3.314-.145 1.153-.241 26.762-.145 56.936.145 54.821.145 54.869 1.154 56.215 1.201 1.633 3.747 2.354 5.573 1.633 2.018-.768 2.931-2.594 3.171-6.582.192-3.315.288-3.556 1.297-3.556 1.778 0 7.448-1.921 10.955-3.651 8.072-4.084 13.357-4.036 22.15.192 5.333 2.595 8.408 3.459 13.261 3.796 5.141.336 10.186-.817 16.912-3.988 8.552-3.988 13.357-3.988 21.909 0 6.775 3.171 11.772 4.324 16.913 3.94 2.258-.144 4.66-.433 5.429-.577l1.298-.288v52.948H9.61v-52.948l1.296.288c.77.144 3.172.433 5.43.577 5.14.384 10.138-.769 16.912-3.94 8.553-3.988 13.357-3.988 21.91 0 11.483 5.381 19.17 5.429 30.125.24 3.652-1.681 8.84-3.267 10.907-3.315.672 0 .817.865.96 6.871.097 5.621.289 7.111 1.01 8.168 1.777 2.738 5.765 2.786 7.735.192 1.009-1.346 1.009-1.394 1.249-59.578l.241-58.233 1.057-1.97c1.489-2.739 5.381-6.102 8.168-7.063 1.249-.432 3.891-.769 5.813-.769l3.46-.048v4.757zm-28.828 30.798v16.336l-1.057.048c-.625 0-3.508.192-6.487.384-6.15.433-12.54 0-15.903-1.105-1.538-.528-4.517-2.546-8.84-6.006-7.833-6.246-10.956-8.216-16-9.993-3.556-1.25-4.325-1.346-10.57-1.298-8.793.096-13.886 1.346-22.439 5.622l-6.15 3.027V84.082h87.446v16.336zm-52.612 8.408c3.94 1.057 7.063 2.979 14.366 8.793 10.426 8.36 13.79 9.417 28.684 9.129l9.562-.193V167.539l-3.075.337c-4.084.432-7.207 1.393-12.493 3.892-8.36 3.987-13.309 3.987-21.813.048-6.919-3.172-9.61-3.844-15.471-3.892-5.718 0-9.802 1.009-15.471 3.892-6.198 3.123-11.772 3.795-16.96 2.018l-1.922-.625-.145-26.81-.096-26.762 3.171-2.307c9.754-7.207 23.015-10.714 31.663-8.504zm144.477 20.708c2.451.961 6.631 2.835 9.273 4.18 2.643 1.298 6.006 2.787 7.448 3.316 4.132 1.393 14.846 3.219 22.533 3.795 3.844.289 7.304.625 7.64.721.48.144.577 3.556.48 15.904l-.144 15.759-1.922.625c-5.189 1.777-10.762 1.105-16.96-2.018-5.67-2.883-9.754-3.892-15.471-3.892-5.862.048-8.553.72-15.471 3.892-8.505 3.939-13.502 3.939-21.718 0-11.146-5.382-18.882-5.43-30.077-.241-2.835 1.298-5.765 2.499-6.63 2.643l-1.538.288v-22.149c0-12.156.096-22.15.192-22.15s2.114.721 4.469 1.634c11.579 4.468 20.756 5.237 29.693 2.354 1.345-.433 4.564-1.73 7.207-2.931 10.282-4.612 13.165-4.853 20.996-1.73z"/><path d="M46.365 192.86c-1.057.336-3.411 1.393-5.237 2.354-3.94 2.114-5.285 2.163-8.985.529-4.708-2.114-8.12-.529-8.12 3.748 0 3.843 5.286 6.822 12.3 6.822 3.7.048 4.084-.048 8.457-2.258 2.498-1.249 5.14-2.258 5.861-2.258.673 0 2.595.576 4.229 1.249 4.756 2.018 8.071.529 8.071-3.603 0-2.259-1.009-3.652-3.507-4.949-4.372-2.21-9.273-2.835-13.069-1.634zM157.834 192.86c-1.057.336-3.411 1.393-5.237 2.354-3.94 2.114-5.285 2.163-8.985.529-4.708-2.114-8.12-.529-8.12 3.748 0 3.843 5.285 6.822 12.3 6.822 3.7.048 4.084-.048 8.456-2.258 2.499-1.249 5.141-2.258 5.862-2.258.673 0 2.595.576 4.228 1.249 4.757 2.018 8.072.529 8.072-3.603 0-2.259-1.009-3.652-3.507-4.949-4.373-2.21-9.273-2.835-13.069-1.634zM93.932 212.079c-1.057.336-3.412 1.393-5.237 2.354-3.94 2.114-5.286 2.162-8.985.529-4.709-2.114-8.12-.529-8.12 3.747 0 3.844 5.285 6.823 12.3 6.823 3.7.048 4.084-.048 8.456-2.258 2.498-1.249 5.141-2.258 5.862-2.258.672 0 2.594.576 4.228 1.249 4.757 2.018 8.072.528 8.072-3.604 0-2.258-1.009-3.651-3.508-4.949-4.372-2.21-9.273-2.834-13.068-1.633zM205.4 212.079c-1.057.336-3.411 1.393-5.237 2.354-3.94 2.114-5.285 2.162-8.984.529-4.709-2.114-8.12-.529-8.12 3.747 0 3.844 5.285 6.823 12.3 6.823 3.699.048 4.084-.048 8.456-2.258 2.498-1.249 5.141-2.258 5.862-2.258.672 0 2.594.576 4.228 1.249 4.756 2.018 8.072.528 8.072-3.604 0-2.258-1.009-3.651-3.508-4.949-4.372-2.21-9.273-2.834-13.069-1.633zM39.447 119.348c-4.18 2.307-2.402 8.937 2.355 8.937 2.45 0 4.804-2.354 4.804-4.756 0-3.604-3.987-5.958-7.159-4.181zM21.67 128.958c-4.18 2.306-2.402 8.937 2.354 8.937 2.45 0 4.805-2.355 4.805-4.757 0-3.604-3.988-5.958-7.159-4.18zM58.666 134.243c-4.18 2.306-2.402 8.937 2.355 8.937 2.45 0 4.804-2.355 4.804-4.757 0-3.603-3.988-5.958-7.159-4.18zM39.447 138.567c-4.18 2.306-2.402 8.937 2.355 8.937 2.45 0 4.804-2.354 4.804-4.757 0-3.603-3.987-5.958-7.159-4.18zM77.885 143.852c-4.18 2.307-2.402 8.937 2.354 8.937 2.45 0 4.805-2.354 4.805-4.757 0-3.603-3.988-5.957-7.159-4.18zM21.67 148.177c-4.18 2.306-2.402 8.936 2.354 8.936 2.45 0 4.805-2.354 4.805-4.756 0-3.604-3.988-5.958-7.159-4.18zM58.666 153.462c-4.18 2.306-2.402 8.936 2.355 8.936 2.45 0 4.804-2.354 4.804-4.756 0-3.604-3.988-5.958-7.159-4.18zM161.149 145.534c-2.691 1.153-3.46 5.237-1.442 7.591.961 1.105 1.538 1.346 3.412 1.346 2.882 0 4.564-1.682 4.564-4.565 0-3.363-3.459-5.669-6.534-4.372zM197.184 146.495c-2.691 1.153-3.459 5.237-1.442 7.591.961 1.105 1.538 1.346 3.412 1.346 2.883 0 4.564-1.682 4.564-4.565 0-3.363-3.459-5.669-6.534-4.372zM138.567 147.936c-2.691 1.153-3.46 5.237-1.442 7.592.961 1.105 1.538 1.345 3.412 1.345 2.882 0 4.564-1.682 4.564-4.564 0-3.364-3.459-5.67-6.534-4.373zM217.364 149.858c-2.691 1.153-3.46 5.237-1.442 7.592.961 1.105 1.538 1.345 3.411 1.345 2.883 0 4.565-1.682 4.565-4.565 0-3.363-3.459-5.669-6.534-4.372zM179.887 155.624c-2.691 1.153-3.459 5.237-1.441 7.591.961 1.105 1.537 1.346 3.411 1.346 2.883 0 4.564-1.682 4.564-4.565 0-3.363-3.459-5.669-6.534-4.372zM238.842 104.454c-4.18 2.306-2.402 8.937 2.354 8.937 2.451 0 4.805-2.355 4.805-4.757 0-3.604-3.988-5.958-7.159-4.18z"/></g><defs><clipPath id="clip0_1601_16685"><path fill="white" d="M0 0h246v246H0z"/></clipPath></defs></svg>